<?xml version="1.0" standalone="no"?>
<!DOCTYPE svg PUBLIC "-//W3C//DTD SVG 20010904//EN"
 "http://www.w3.org/TR/2001/REC-SVG-20010904/DTD/svg10.dtd">
<svg version="1.0" xmlns="http://www.w3.org/2000/svg"
 width="216.000000pt" height="216.000000pt" viewBox="0 0 216.000000 216.000000"
 preserveAspectRatio="xMidYMid meet">
<metadata>
Created by potrace 1.14, written by Peter Selinger 2001-2017
</metadata>
<g transform="translate(0.000000,216.000000) scale(0.100000,-0.100000)"
fill="#000000" stroke="none">
<path d="M966 2139 c3 -5 -4 -10 -15 -10 -12 -1 -27 -2 -33 -3 -7 -1 -17 -7
-21 -13 -4 -7 -13 -13 -18 -13 -6 0 -25 -11 -43 -25 -18 -14 -37 -25 -42 -25
-5 0 -18 -14 -28 -30 -10 -18 -22 -28 -29 -24 -7 4 -9 4 -5 0 3 -4 -7 -28 -22
-53 -57 -90 -78 -215 -57 -334 l9 -45 -53 -3 c-29 -1 -57 -5 -61 -7 -5 -3 -33
-7 -63 -9 -30 -2 -59 -6 -64 -9 -5 -3 -26 -8 -47 -12 -22 -3 -43 -9 -49 -12
-5 -4 -23 -7 -40 -8 -16 0 -41 -4 -55 -9 -14 -5 -32 -9 -40 -10 -8 0 -25 -6
-36 -13 -12 -6 -25 -8 -29 -4 -3 4 -6 2 -4 -3 1 -6 -3 -23 -10 -40 -19 -44
-21 -66 -21 -205 1 -136 2 -153 17 -190 6 -14 8 -29 5 -34 -3 -5 0 -6 6 -2 7
4 12 1 12 -7 0 -12 9 -13 45 -6 25 5 72 10 104 13 33 2 64 7 70 11 7 4 52 9
101 12 101 5 110 -1 104 -72 -8 -105 -27 -365 -29 -410 -1 -27 -5 -102 -9
-165 -22 -327 -22 -321 -8 -332 9 -8 81 -12 212 -12 192 -1 199 0 222 22 30
27 45 28 53 1 4 -11 9 -18 12 -15 4 3 12 1 19 -5 15 -13 103 -19 110 -7 3 4
18 8 33 8 16 0 34 7 41 15 15 18 56 16 53 -2 -3 -17 27 -20 212 -23 94 -1 171
-3 173 -5 7 -7 53 49 53 64 0 40 -11 180 -16 218 -6 42 -6 43 24 43 29 0 59
-29 44 -44 -3 -3 35 -6 86 -6 68 0 98 4 116 16 14 9 25 13 25 10 0 -4 14 0 30
9 17 9 30 20 30 26 0 6 4 8 9 4 9 -5 21 19 28 55 1 8 -2 40 -7 70 -5 30 -12
106 -15 169 -4 63 -11 125 -16 138 -5 13 -8 27 -7 31 1 4 -4 39 -10 77 -7 39
-14 93 -17 120 -3 28 -9 70 -14 95 -5 25 -7 48 -5 52 3 5 0 8 -5 8 -6 0 -11
11 -11 25 0 23 -18 75 -31 85 -3 3 -9 14 -13 24 -13 36 -61 105 -73 106 -6 0
-14 8 -17 18 -5 15 -92 76 -106 74 -3 0 -12 5 -20 12 -8 7 -28 18 -45 23 -16
6 -39 15 -50 19 -11 4 -37 8 -59 9 l-39 0 2 104 c1 58 3 107 3 110 3 11 -22
90 -37 118 -8 15 -15 34 -15 41 0 6 -5 12 -11 12 -5 0 -15 13 -20 30 -6 16
-15 27 -20 24 -5 -3 -9 0 -9 6 0 13 -68 80 -81 80 -5 0 -9 5 -9 11 0 5 -5 7
-10 4 -6 -4 -22 1 -35 9 -14 9 -25 14 -25 11 0 -3 -13 1 -28 9 -32 16 -266 20
-256 5z m197 -118 c26 -6 57 -16 70 -22 12 -7 24 -12 27 -11 8 3 90 -70 90
-80 0 -5 9 -18 19 -29 48 -52 58 -209 20 -301 -6 -16 -16 -28 -21 -28 -5 0 -7
-4 -4 -8 7 -12 -54 -83 -65 -77 -5 4 -9 2 -9 -3 0 -5 -23 -24 -52 -41 -48 -30
-58 -33 -147 -34 -79 -1 -103 3 -136 20 -62 33 -154 121 -177 172 -22 47 -29
133 -16 197 10 51 46 124 61 124 8 0 18 10 21 23 7 28 94 87 138 94 18 3 39 8
46 12 16 9 70 6 135 -8z"/>
</g>
</svg>
