<svg width="304" height="14" viewBox="0 0 304 14" fill="none" xmlns="http://www.w3.org/2000/svg">
<path d="M6.19147 9.92676V11H1.2149V9.92676H6.19147ZM1.47467 1.04688V11H0.155334V1.04688H1.47467ZM9.13483 3.60352V11H7.86334V3.60352H9.13483ZM7.76764 1.6416C7.76764 1.43652 7.82916 1.26335 7.95221 1.12207C8.07981 0.980794 8.26666 0.910156 8.51276 0.910156C8.75429 0.910156 8.93886 0.980794 9.06647 1.12207C9.19863 1.26335 9.26471 1.43652 9.26471 1.6416C9.26471 1.83757 9.19863 2.00618 9.06647 2.14746C8.93886 2.28418 8.75429 2.35254 8.51276 2.35254C8.26666 2.35254 8.07981 2.28418 7.95221 2.14746C7.82916 2.00618 7.76764 1.83757 7.76764 1.6416ZM12.6797 5.18262V11H11.4151V3.60352H12.6114L12.6797 5.18262ZM12.379 7.02148L11.8526 7.00098C11.8572 6.49512 11.9324 6.02799 12.0782 5.59961C12.224 5.16667 12.4291 4.79069 12.6934 4.47168C12.9577 4.15267 13.2722 3.90658 13.6368 3.7334C14.0059 3.55566 14.4138 3.4668 14.8604 3.4668C15.225 3.4668 15.5531 3.51693 15.8448 3.61719C16.1365 3.71289 16.3848 3.86784 16.5899 4.08203C16.7995 4.29622 16.959 4.57422 17.0684 4.91602C17.1778 5.25326 17.2325 5.66569 17.2325 6.15332V11H15.961V6.13965C15.961 5.75228 15.904 5.44238 15.7901 5.20996C15.6762 4.97298 15.5098 4.80208 15.2911 4.69727C15.0723 4.58789 14.8034 4.5332 14.4844 4.5332C14.17 4.5332 13.8829 4.59928 13.6231 4.73145C13.3679 4.86361 13.1469 5.0459 12.96 5.27832C12.7777 5.51074 12.6342 5.77734 12.5294 6.07812C12.4291 6.37435 12.379 6.6888 12.379 7.02148ZM20.6749 0.5V11H19.4034V0.5H20.6749ZM25.1934 3.60352L21.9669 7.05566L20.1622 8.92871L20.0596 7.58203L21.3516 6.03711L23.6485 3.60352H25.1934ZM24.0381 11L21.3995 7.47266L22.0557 6.34473L25.5284 11H24.0381ZM28.1231 3.60352V11H26.8516V3.60352H28.1231ZM26.7559 1.6416C26.7559 1.43652 26.8174 1.26335 26.9405 1.12207C27.0681 0.980794 27.2549 0.910156 27.501 0.910156C27.7426 0.910156 27.9271 0.980794 28.0547 1.12207C28.1869 1.26335 28.253 1.43652 28.253 1.6416C28.253 1.83757 28.1869 2.00618 28.0547 2.14746C27.9271 2.28418 27.7426 2.35254 27.501 2.35254C27.2549 2.35254 27.0681 2.28418 26.9405 2.14746C26.8174 2.00618 26.7559 1.83757 26.7559 1.6416ZM31.668 5.18262V11H30.4034V3.60352H31.5997L31.668 5.18262ZM31.3672 7.02148L30.8409 7.00098C30.8454 6.49512 30.9206 6.02799 31.0665 5.59961C31.2123 5.16667 31.4174 4.79069 31.6817 4.47168C31.946 4.15267 32.2605 3.90658 32.6251 3.7334C32.9942 3.55566 33.4021 3.4668 33.8487 3.4668C34.2133 3.4668 34.5414 3.51693 34.8331 3.61719C35.1247 3.71289 35.3731 3.86784 35.5782 4.08203C35.7878 4.29622 35.9473 4.57422 36.0567 4.91602C36.1661 5.25326 36.2208 5.66569 36.2208 6.15332V11H34.9493V6.13965C34.9493 5.75228 34.8923 5.44238 34.7784 5.20996C34.6644 4.97298 34.4981 4.80208 34.2794 4.69727C34.0606 4.58789 33.7917 4.5332 33.4727 4.5332C33.1583 4.5332 32.8712 4.59928 32.6114 4.73145C32.3562 4.86361 32.1352 5.0459 31.9483 5.27832C31.766 5.51074 31.6225 5.77734 31.5176 6.07812C31.4174 6.37435 31.3672 6.6888 31.3672 7.02148ZM43.1837 3.60352H44.3321V10.8428C44.3321 11.4945 44.1999 12.0505 43.9356 12.5107C43.6713 12.971 43.3021 13.3197 42.8282 13.5566C42.3588 13.7982 41.8165 13.9189 41.2012 13.9189C40.946 13.9189 40.6452 13.8779 40.2989 13.7959C39.9571 13.7184 39.6199 13.584 39.2872 13.3926C38.959 13.2057 38.6833 12.9528 38.46 12.6338L39.1231 11.8818C39.433 12.2555 39.7566 12.5153 40.0938 12.6611C40.4356 12.807 40.7728 12.8799 41.1055 12.8799C41.5066 12.8799 41.8529 12.8047 42.1446 12.6543C42.4363 12.5039 42.6618 12.2806 42.8214 11.9844C42.9854 11.6927 43.0674 11.3327 43.0674 10.9043V5.23047L43.1837 3.60352ZM38.0909 7.38379V7.24023C38.0909 6.67513 38.157 6.16243 38.2891 5.70215C38.4258 5.2373 38.6195 4.83854 38.8702 4.50586C39.1254 4.17318 39.433 3.91797 39.793 3.74023C40.1531 3.55794 40.5587 3.4668 41.0098 3.4668C41.4747 3.4668 41.8803 3.54883 42.2266 3.71289C42.5775 3.8724 42.8738 4.1071 43.1153 4.41699C43.3614 4.72233 43.5551 5.09147 43.6964 5.52441C43.8376 5.95736 43.9356 6.44727 43.9903 6.99414V7.62305C43.9402 8.16536 43.8422 8.65299 43.6964 9.08594C43.5551 9.51888 43.3614 9.88802 43.1153 10.1934C42.8738 10.4987 42.5775 10.7334 42.2266 10.8975C41.8757 11.057 41.4656 11.1367 40.9962 11.1367C40.5541 11.1367 40.1531 11.0433 39.793 10.8564C39.4376 10.6696 39.1322 10.4076 38.877 10.0703C38.6218 9.73307 38.4258 9.33659 38.2891 8.88086C38.157 8.42057 38.0909 7.92155 38.0909 7.38379ZM39.3555 7.24023V7.38379C39.3555 7.75293 39.392 8.09928 39.4649 8.42285C39.5424 8.74642 39.6586 9.03125 39.8135 9.27734C39.973 9.52344 40.1758 9.71712 40.4219 9.8584C40.668 9.99512 40.962 10.0635 41.3038 10.0635C41.723 10.0635 42.0694 9.97461 42.3428 9.79688C42.6163 9.61914 42.8327 9.38444 42.9922 9.09277C43.1563 8.80111 43.2839 8.48438 43.3751 8.14258V6.49512C43.3249 6.24447 43.2475 6.00293 43.1426 5.77051C43.0424 5.53353 42.9102 5.32389 42.7462 5.1416C42.5866 4.95475 42.3884 4.80664 42.1514 4.69727C41.9144 4.58789 41.6365 4.5332 41.3174 4.5332C40.9711 4.5332 40.6726 4.60612 40.4219 4.75195C40.1758 4.89323 39.973 5.08919 39.8135 5.33984C39.6586 5.58594 39.5424 5.87305 39.4649 6.20117C39.392 6.52474 39.3555 6.87109 39.3555 7.24023ZM52.1124 11H50.8477V2.82422C50.8477 2.29102 50.9434 1.84212 51.1348 1.47754C51.3308 1.1084 51.6111 0.830404 51.9756 0.643555C52.3402 0.452148 52.7732 0.356445 53.2745 0.356445C53.4203 0.356445 53.5661 0.36556 53.712 0.383789C53.8624 0.402018 54.0082 0.429362 54.1495 0.46582L54.0811 1.49805C53.9854 1.47526 53.876 1.45931 53.753 1.4502C53.6345 1.44108 53.516 1.43652 53.3975 1.43652C53.1286 1.43652 52.8962 1.49121 52.7003 1.60059C52.5089 1.7054 52.363 1.86035 52.2628 2.06543C52.1625 2.27051 52.1124 2.52344 52.1124 2.82422V11ZM53.6846 3.60352V4.57422H49.6788V3.60352H53.6846ZM59.8682 9.29102V3.60352H61.1397V11H59.9297L59.8682 9.29102ZM60.1075 7.73242L60.6339 7.71875C60.6339 8.21094 60.5814 8.66667 60.4766 9.08594C60.3764 9.50065 60.2123 9.86068 59.9844 10.166C59.7566 10.4714 59.4581 10.7106 59.0889 10.8838C58.7198 11.0524 58.2709 11.1367 57.7422 11.1367C57.3822 11.1367 57.0518 11.0843 56.751 10.9795C56.4548 10.8747 56.1996 10.7129 55.9854 10.4941C55.7712 10.2754 55.6049 9.99056 55.4864 9.63965C55.3725 9.28874 55.3155 8.86719 55.3155 8.375V3.60352H56.5801V8.38867C56.5801 8.72135 56.6166 8.99707 56.6895 9.21582C56.767 9.43001 56.8695 9.60091 56.9971 9.72852C57.1293 9.85156 57.2751 9.93815 57.4346 9.98828C57.5987 10.0384 57.7673 10.0635 57.9405 10.0635C58.4783 10.0635 58.9044 9.96094 59.2188 9.75586C59.5333 9.54622 59.7589 9.26595 59.8956 8.91504C60.0368 8.55957 60.1075 8.16536 60.1075 7.73242ZM66.4141 3.60352V4.57422H62.4151V3.60352H66.4141ZM63.7686 1.80566H65.0333V9.16797C65.0333 9.41862 65.072 9.60775 65.1495 9.73535C65.2269 9.86296 65.3272 9.94727 65.4503 9.98828C65.5733 10.0293 65.7055 10.0498 65.8467 10.0498C65.9516 10.0498 66.0609 10.0407 66.1749 10.0225C66.2934 9.99967 66.3822 9.98145 66.4415 9.96777L66.4483 11C66.348 11.0319 66.2159 11.0615 66.0518 11.0889C65.8923 11.1208 65.6986 11.1367 65.4708 11.1367C65.1609 11.1367 64.876 11.0752 64.6163 10.9521C64.3565 10.8291 64.1491 10.624 63.9942 10.3369C63.8438 10.0452 63.7686 9.65332 63.7686 9.16113V1.80566ZM72.6729 9.29102V3.60352H73.9444V11H72.7344L72.6729 9.29102ZM72.9122 7.73242L73.4385 7.71875C73.4385 8.21094 73.3861 8.66667 73.2813 9.08594C73.1811 9.50065 73.017 9.86068 72.7891 10.166C72.5613 10.4714 72.2628 10.7106 71.8936 10.8838C71.5245 11.0524 71.0756 11.1367 70.5469 11.1367C70.1869 11.1367 69.8565 11.0843 69.5557 10.9795C69.2595 10.8747 69.0043 10.7129 68.7901 10.4941C68.5759 10.2754 68.4096 9.99056 68.2911 9.63965C68.1771 9.28874 68.1202 8.86719 68.1202 8.375V3.60352H69.3848V8.38867C69.3848 8.72135 69.4213 8.99707 69.4942 9.21582C69.5717 9.43001 69.6742 9.60091 69.8018 9.72852C69.934 9.85156 70.0798 9.93815 70.2393 9.98828C70.4034 10.0384 70.572 10.0635 70.7452 10.0635C71.2829 10.0635 71.709 9.96094 72.0235 9.75586C72.338 9.54622 72.5635 9.26595 72.7003 8.91504C72.8415 8.55957 72.9122 8.16536 72.9122 7.73242ZM77.3868 4.76562V11H76.1221V3.60352H77.3526L77.3868 4.76562ZM79.6973 3.5625L79.6905 4.73828C79.5857 4.71549 79.4854 4.70182 79.3897 4.69727C79.2986 4.68815 79.1937 4.68359 79.0753 4.68359C78.7836 4.68359 78.5261 4.72917 78.3028 4.82031C78.0795 4.91146 77.8904 5.03906 77.7354 5.20312C77.5805 5.36719 77.4574 5.56315 77.3663 5.79102C77.2797 6.01432 77.2227 6.26042 77.1954 6.5293L76.8399 6.73438C76.8399 6.28776 76.8832 5.86849 76.9698 5.47656C77.0609 5.08464 77.1999 4.73828 77.3868 4.4375C77.5736 4.13216 77.8106 3.89518 78.0977 3.72656C78.3894 3.55339 78.7357 3.4668 79.1368 3.4668C79.2279 3.4668 79.3327 3.47819 79.4512 3.50098C79.5697 3.51921 79.6518 3.53971 79.6973 3.5625ZM84.0489 11.1367C83.5339 11.1367 83.0668 11.0501 82.6475 10.877C82.2328 10.6992 81.8751 10.4508 81.5743 10.1318C81.2781 9.81283 81.0502 9.43457 80.8907 8.99707C80.7312 8.55957 80.6514 8.08105 80.6514 7.56152V7.27441C80.6514 6.67285 80.7403 6.13737 80.918 5.66797C81.0958 5.19401 81.3373 4.79297 81.6426 4.46484C81.948 4.13672 82.2943 3.88835 82.6817 3.71973C83.0691 3.55111 83.4701 3.4668 83.8848 3.4668C84.4135 3.4668 84.8692 3.55794 85.252 3.74023C85.6394 3.92253 85.9561 4.17773 86.2022 4.50586C86.4483 4.82943 86.6306 5.21224 86.7491 5.6543C86.8676 6.0918 86.9268 6.57031 86.9268 7.08984V7.65723H81.4034V6.625H85.6622V6.5293C85.6439 6.20117 85.5756 5.88216 85.4571 5.57227C85.3432 5.26237 85.1609 5.00716 84.9102 4.80664C84.6596 4.60612 84.3178 4.50586 83.8848 4.50586C83.5977 4.50586 83.3334 4.56738 83.0919 4.69043C82.8503 4.80892 82.643 4.98665 82.4698 5.22363C82.2966 5.46061 82.1622 5.75 82.0665 6.0918C81.9708 6.43359 81.9229 6.8278 81.9229 7.27441V7.56152C81.9229 7.91243 81.9708 8.24284 82.0665 8.55273C82.1667 8.85807 82.3103 9.12695 82.4971 9.35938C82.6885 9.5918 82.9187 9.77409 83.1876 9.90625C83.461 10.0384 83.7709 10.1045 84.1172 10.1045C84.5639 10.1045 84.9421 10.0133 85.252 9.83105C85.5619 9.64876 85.8331 9.40495 86.0655 9.09961L86.8311 9.70801C86.6716 9.94954 86.4688 10.1797 86.2227 10.3984C85.9766 10.6172 85.6736 10.7949 85.3135 10.9316C84.9581 11.0684 84.5365 11.1367 84.0489 11.1367ZM92.96 9.03809C92.96 8.85579 92.919 8.68717 92.837 8.53223C92.7595 8.37272 92.5977 8.22917 92.3516 8.10156C92.1101 7.9694 91.7455 7.85547 91.2579 7.75977C90.8477 7.67318 90.4763 7.57064 90.1436 7.45215C89.8155 7.33366 89.5352 7.1901 89.3028 7.02148C89.0749 6.85286 88.8995 6.65462 88.7764 6.42676C88.6534 6.19889 88.5919 5.93229 88.5919 5.62695C88.5919 5.33529 88.6557 5.05957 88.7833 4.7998C88.9154 4.54004 89.1 4.3099 89.337 4.10938C89.5785 3.90885 89.8679 3.75163 90.2051 3.6377C90.5424 3.52376 90.9184 3.4668 91.3331 3.4668C91.9255 3.4668 92.4314 3.57161 92.8506 3.78125C93.2699 3.99089 93.5912 4.27116 93.8145 4.62207C94.0378 4.96842 94.1495 5.35352 94.1495 5.77734H92.8848C92.8848 5.57227 92.8233 5.37402 92.7003 5.18262C92.5818 4.98665 92.4063 4.82487 92.1739 4.69727C91.946 4.56966 91.6658 4.50586 91.3331 4.50586C90.9822 4.50586 90.6973 4.56055 90.4786 4.66992C90.2644 4.77474 90.1072 4.90918 90.0069 5.07324C89.9112 5.2373 89.8633 5.41048 89.8633 5.59277C89.8633 5.72949 89.8861 5.85254 89.9317 5.96191C89.9818 6.06673 90.0684 6.16471 90.1915 6.25586C90.3145 6.34245 90.4877 6.42448 90.711 6.50195C90.9343 6.57943 91.2191 6.6569 91.5655 6.73438C92.1716 6.87109 92.6706 7.03516 93.0626 7.22656C93.4545 7.41797 93.7462 7.65267 93.9376 7.93066C94.129 8.20866 94.2247 8.5459 94.2247 8.94238C94.2247 9.26595 94.1563 9.56217 94.0196 9.83105C93.8874 10.0999 93.6937 10.3324 93.4385 10.5283C93.1879 10.7197 92.8871 10.8701 92.5362 10.9795C92.1898 11.0843 91.8002 11.1367 91.3672 11.1367C90.7156 11.1367 90.1641 11.0205 89.713 10.7881C89.2618 10.5557 88.92 10.2549 88.6876 9.88574C88.4551 9.5166 88.3389 9.12695 88.3389 8.7168H89.6104C89.6286 9.06315 89.7289 9.33887 89.9112 9.54395C90.0935 9.74447 90.3168 9.88802 90.5811 9.97461C90.8454 10.0566 91.1075 10.0977 91.3672 10.0977C91.7136 10.0977 92.003 10.0521 92.2354 9.96094C92.4724 9.86979 92.6524 9.74447 92.7755 9.58496C92.8985 9.42546 92.96 9.24316 92.96 9.03809ZM97.2842 9.49609V10.5146C97.2842 10.9294 97.1794 11.3669 96.9698 11.8271C96.7602 12.292 96.4662 12.6794 96.088 12.9893L95.3702 12.4902C95.516 12.2897 95.6391 12.0846 95.7393 11.875C95.8396 11.6699 95.9148 11.4557 95.9649 11.2324C96.0196 11.0137 96.0469 10.7812 96.0469 10.5352V9.49609H97.2842ZM106.732 7.09668H104.073V6.02344H106.732C107.247 6.02344 107.664 5.94141 107.983 5.77734C108.302 5.61328 108.535 5.38542 108.681 5.09375C108.831 4.80208 108.906 4.4694 108.906 4.0957C108.906 3.75391 108.831 3.43262 108.681 3.13184C108.535 2.83105 108.302 2.58952 107.983 2.40723C107.664 2.22038 107.247 2.12695 106.732 2.12695H104.381V11H103.062V1.04688H106.732C107.484 1.04688 108.12 1.17676 108.64 1.43652C109.159 1.69629 109.553 2.05632 109.822 2.5166C110.091 2.97233 110.226 3.49414 110.226 4.08203C110.226 4.72005 110.091 5.26465 109.822 5.71582C109.553 6.16699 109.159 6.51107 108.64 6.74805C108.12 6.98047 107.484 7.09668 106.732 7.09668ZM113.326 3.60352V11H112.055V3.60352H113.326ZM111.959 1.6416C111.959 1.43652 112.021 1.26335 112.144 1.12207C112.271 0.980794 112.458 0.910156 112.704 0.910156C112.946 0.910156 113.13 0.980794 113.258 1.12207C113.39 1.26335 113.456 1.43652 113.456 1.6416C113.456 1.83757 113.39 2.00618 113.258 2.14746C113.13 2.28418 112.946 2.35254 112.704 2.35254C112.458 2.35254 112.271 2.28418 112.144 2.14746C112.021 2.00618 111.959 1.83757 111.959 1.6416ZM116.871 5.18262V11H115.607V3.60352H116.803L116.871 5.18262ZM116.57 7.02148L116.044 7.00098C116.049 6.49512 116.124 6.02799 116.27 5.59961C116.415 5.16667 116.621 4.79069 116.885 4.47168C117.149 4.15267 117.464 3.90658 117.828 3.7334C118.197 3.55566 118.605 3.4668 119.052 3.4668C119.416 3.4668 119.745 3.51693 120.036 3.61719C120.328 3.71289 120.576 3.86784 120.781 4.08203C120.991 4.29622 121.15 4.57422 121.26 4.91602C121.369 5.25326 121.424 5.66569 121.424 6.15332V11H120.152V6.13965C120.152 5.75228 120.095 5.44238 119.982 5.20996C119.868 4.97298 119.701 4.80208 119.482 4.69727C119.264 4.58789 118.995 4.5332 118.676 4.5332C118.361 4.5332 118.074 4.59928 117.815 4.73145C117.559 4.86361 117.338 5.0459 117.151 5.27832C116.969 5.51074 116.826 5.77734 116.721 6.07812C116.621 6.37435 116.57 6.6888 116.57 7.02148ZM124.859 5.18262V11H123.595V3.60352H124.791L124.859 5.18262ZM124.559 7.02148L124.032 7.00098C124.037 6.49512 124.112 6.02799 124.258 5.59961C124.404 5.16667 124.609 4.79069 124.873 4.47168C125.137 4.15267 125.452 3.90658 125.816 3.7334C126.186 3.55566 126.593 3.4668 127.04 3.4668C127.405 3.4668 127.733 3.51693 128.024 3.61719C128.316 3.71289 128.565 3.86784 128.77 4.08203C128.979 4.29622 129.139 4.57422 129.248 4.91602C129.357 5.25326 129.412 5.66569 129.412 6.15332V11H128.141V6.13965C128.141 5.75228 128.084 5.44238 127.97 5.20996C127.856 4.97298 127.69 4.80208 127.471 4.69727C127.252 4.58789 126.983 4.5332 126.664 4.5332C126.35 4.5332 126.063 4.59928 125.803 4.73145C125.548 4.86361 125.327 5.0459 125.14 5.27832C124.957 5.51074 124.814 5.77734 124.709 6.07812C124.609 6.37435 124.559 6.6888 124.559 7.02148ZM132.957 3.60352V11H131.686V3.60352H132.957ZM131.59 1.6416C131.59 1.43652 131.651 1.26335 131.774 1.12207C131.902 0.980794 132.089 0.910156 132.335 0.910156C132.577 0.910156 132.761 0.980794 132.889 1.12207C133.021 1.26335 133.087 1.43652 133.087 1.6416C133.087 1.83757 133.021 2.00618 132.889 2.14746C132.761 2.28418 132.577 2.35254 132.335 2.35254C132.089 2.35254 131.902 2.28418 131.774 2.14746C131.651 2.00618 131.59 1.83757 131.59 1.6416ZM136.502 5.18262V11H135.237V3.60352H136.434L136.502 5.18262ZM136.201 7.02148L135.675 7.00098C135.679 6.49512 135.755 6.02799 135.9 5.59961C136.046 5.16667 136.251 4.79069 136.516 4.47168C136.78 4.15267 137.094 3.90658 137.459 3.7334C137.828 3.55566 138.236 3.4668 138.683 3.4668C139.047 3.4668 139.375 3.51693 139.667 3.61719C139.959 3.71289 140.207 3.86784 140.412 4.08203C140.622 4.29622 140.781 4.57422 140.891 4.91602C141 5.25326 141.055 5.66569 141.055 6.15332V11H139.783V6.13965C139.783 5.75228 139.726 5.44238 139.612 5.20996C139.498 4.97298 139.332 4.80208 139.113 4.69727C138.895 4.58789 138.626 4.5332 138.307 4.5332C137.992 4.5332 137.705 4.59928 137.445 4.73145C137.19 4.86361 136.969 5.0459 136.782 5.27832C136.6 5.51074 136.456 5.77734 136.352 6.07812C136.251 6.37435 136.201 6.6888 136.201 7.02148ZM148.018 3.60352H149.166V10.8428C149.166 11.4945 149.034 12.0505 148.77 12.5107C148.505 12.971 148.136 13.3197 147.662 13.5566C147.193 13.7982 146.65 13.9189 146.035 13.9189C145.78 13.9189 145.479 13.8779 145.133 13.7959C144.791 13.7184 144.454 13.584 144.121 13.3926C143.793 13.2057 143.517 12.9528 143.294 12.6338L143.957 11.8818C144.267 12.2555 144.591 12.5153 144.928 12.6611C145.27 12.807 145.607 12.8799 145.94 12.8799C146.341 12.8799 146.687 12.8047 146.979 12.6543C147.27 12.5039 147.496 12.2806 147.655 11.9844C147.819 11.6927 147.901 11.3327 147.901 10.9043V5.23047L148.018 3.60352ZM142.925 7.38379V7.24023C142.925 6.67513 142.991 6.16243 143.123 5.70215C143.26 5.2373 143.454 4.83854 143.704 4.50586C143.959 4.17318 144.267 3.91797 144.627 3.74023C144.987 3.55794 145.393 3.4668 145.844 3.4668C146.309 3.4668 146.714 3.54883 147.061 3.71289C147.412 3.8724 147.708 4.1071 147.949 4.41699C148.195 4.72233 148.389 5.09147 148.53 5.52441C148.672 5.95736 148.77 6.44727 148.824 6.99414V7.62305C148.774 8.16536 148.676 8.65299 148.53 9.08594C148.389 9.51888 148.195 9.88802 147.949 10.1934C147.708 10.4987 147.412 10.7334 147.061 10.8975C146.71 11.057 146.3 11.1367 145.83 11.1367C145.388 11.1367 144.987 11.0433 144.627 10.8564C144.272 10.6696 143.966 10.4076 143.711 10.0703C143.456 9.73307 143.26 9.33659 143.123 8.88086C142.991 8.42057 142.925 7.92155 142.925 7.38379ZM144.19 7.24023V7.38379C144.19 7.75293 144.226 8.09928 144.299 8.42285C144.376 8.74642 144.493 9.03125 144.648 9.27734C144.807 9.52344 145.01 9.71712 145.256 9.8584C145.502 9.99512 145.796 10.0635 146.138 10.0635C146.557 10.0635 146.903 9.97461 147.177 9.79688C147.45 9.61914 147.667 9.38444 147.826 9.09277C147.99 8.80111 148.118 8.48438 148.209 8.14258V6.49512C148.159 6.24447 148.081 6.00293 147.977 5.77051C147.876 5.53353 147.744 5.32389 147.58 5.1416C147.421 4.95475 147.222 4.80664 146.985 4.69727C146.748 4.58789 146.47 4.5332 146.151 4.5332C145.805 4.5332 145.507 4.60612 145.256 4.75195C145.01 4.89323 144.807 5.08919 144.648 5.33984C144.493 5.58594 144.376 5.87305 144.299 6.20117C144.226 6.52474 144.19 6.87109 144.19 7.24023ZM159.366 9.03809C159.366 8.85579 159.325 8.68717 159.243 8.53223C159.166 8.37272 159.004 8.22917 158.758 8.10156C158.516 7.9694 158.152 7.85547 157.664 7.75977C157.254 7.67318 156.883 7.57064 156.55 7.45215C156.222 7.33366 155.941 7.1901 155.709 7.02148C155.481 6.85286 155.306 6.65462 155.183 6.42676C155.06 6.19889 154.998 5.93229 154.998 5.62695C154.998 5.33529 155.062 5.05957 155.19 4.7998C155.322 4.54004 155.506 4.3099 155.743 4.10938C155.985 3.90885 156.274 3.75163 156.611 3.6377C156.949 3.52376 157.325 3.4668 157.739 3.4668C158.332 3.4668 158.838 3.57161 159.257 3.78125C159.676 3.99089 159.997 4.27116 160.221 4.62207C160.444 4.96842 160.556 5.35352 160.556 5.77734H159.291C159.291 5.57227 159.23 5.37402 159.107 5.18262C158.988 4.98665 158.813 4.82487 158.58 4.69727C158.352 4.56966 158.072 4.50586 157.739 4.50586C157.388 4.50586 157.104 4.56055 156.885 4.66992C156.671 4.77474 156.513 4.90918 156.413 5.07324C156.317 5.2373 156.27 5.41048 156.27 5.59277C156.27 5.72949 156.292 5.85254 156.338 5.96191C156.388 6.06673 156.475 6.16471 156.598 6.25586C156.721 6.34245 156.894 6.42448 157.117 6.50195C157.341 6.57943 157.625 6.6569 157.972 6.73438C158.578 6.87109 159.077 7.03516 159.469 7.22656C159.861 7.41797 160.152 7.65267 160.344 7.93066C160.535 8.20866 160.631 8.5459 160.631 8.94238C160.631 9.26595 160.563 9.56217 160.426 9.83105C160.294 10.0999 160.1 10.3324 159.845 10.5283C159.594 10.7197 159.293 10.8701 158.942 10.9795C158.596 11.0843 158.206 11.1367 157.773 11.1367C157.122 11.1367 156.57 11.0205 156.119 10.7881C155.668 10.5557 155.326 10.2549 155.094 9.88574C154.861 9.5166 154.745 9.12695 154.745 8.7168H156.017C156.035 9.06315 156.135 9.33887 156.317 9.54395C156.5 9.74447 156.723 9.88802 156.987 9.97461C157.252 10.0566 157.514 10.0977 157.773 10.0977C158.12 10.0977 158.409 10.0521 158.642 9.96094C158.879 9.86979 159.059 9.74447 159.182 9.58496C159.305 9.42546 159.366 9.24316 159.366 9.03809ZM167.067 9.29102V3.60352H168.339V11H167.129L167.067 9.29102ZM167.307 7.73242L167.833 7.71875C167.833 8.21094 167.781 8.66667 167.676 9.08594C167.576 9.50065 167.412 9.86068 167.184 10.166C166.956 10.4714 166.657 10.7106 166.288 10.8838C165.919 11.0524 165.47 11.1367 164.941 11.1367C164.581 11.1367 164.251 11.0843 163.95 10.9795C163.654 10.8747 163.399 10.7129 163.185 10.4941C162.97 10.2754 162.804 9.99056 162.686 9.63965C162.572 9.28874 162.515 8.86719 162.515 8.375V3.60352H163.779V8.38867C163.779 8.72135 163.816 8.99707 163.889 9.21582C163.966 9.43001 164.069 9.60091 164.196 9.72852C164.329 9.85156 164.474 9.93815 164.634 9.98828C164.798 10.0384 164.967 10.0635 165.14 10.0635C165.677 10.0635 166.104 9.96094 166.418 9.75586C166.732 9.54622 166.958 9.26595 167.095 8.91504C167.236 8.55957 167.307 8.16536 167.307 7.73242ZM173.477 10.0977C173.777 10.0977 174.055 10.0361 174.311 9.91309C174.566 9.79004 174.775 9.62142 174.94 9.40723C175.104 9.18848 175.197 8.9401 175.22 8.66211H176.423C176.4 9.09961 176.252 9.50749 175.979 9.88574C175.71 10.2594 175.357 10.5625 174.919 10.7949C174.482 11.0228 174.001 11.1367 173.477 11.1367C172.921 11.1367 172.435 11.0387 172.021 10.8428C171.61 10.6468 171.269 10.3779 170.995 10.0361C170.726 9.69434 170.523 9.30241 170.387 8.86035C170.255 8.41374 170.189 7.94206 170.189 7.44531V7.1582C170.189 6.66146 170.255 6.19206 170.387 5.75C170.523 5.30339 170.726 4.90918 170.995 4.56738C171.269 4.22559 171.61 3.95671 172.021 3.76074C172.435 3.56478 172.921 3.4668 173.477 3.4668C174.055 3.4668 174.561 3.58529 174.994 3.82227C175.427 4.05469 175.767 4.3737 176.013 4.7793C176.263 5.18034 176.4 5.63607 176.423 6.14648H175.22C175.197 5.84115 175.11 5.56543 174.96 5.31934C174.814 5.07324 174.614 4.87728 174.358 4.73145C174.108 4.58105 173.814 4.50586 173.477 4.50586C173.089 4.50586 172.763 4.58333 172.499 4.73828C172.239 4.88867 172.032 5.09375 171.877 5.35352C171.727 5.60872 171.617 5.89355 171.549 6.20801C171.485 6.5179 171.453 6.83464 171.453 7.1582V7.44531C171.453 7.76888 171.485 8.08789 171.549 8.40234C171.613 8.7168 171.72 9.00163 171.87 9.25684C172.025 9.51204 172.232 9.71712 172.492 9.87207C172.757 10.0225 173.085 10.0977 173.477 10.0977ZM181.055 10.0977C181.356 10.0977 181.634 10.0361 181.889 9.91309C182.144 9.79004 182.354 9.62142 182.518 9.40723C182.682 9.18848 182.775 8.9401 182.798 8.66211H184.001C183.978 9.09961 183.83 9.50749 183.557 9.88574C183.288 10.2594 182.935 10.5625 182.497 10.7949C182.06 11.0228 181.579 11.1367 181.055 11.1367C180.499 11.1367 180.013 11.0387 179.599 10.8428C179.189 10.6468 178.847 10.3779 178.573 10.0361C178.304 9.69434 178.102 9.30241 177.965 8.86035C177.833 8.41374 177.767 7.94206 177.767 7.44531V7.1582C177.767 6.66146 177.833 6.19206 177.965 5.75C178.102 5.30339 178.304 4.90918 178.573 4.56738C178.847 4.22559 179.189 3.95671 179.599 3.76074C180.013 3.56478 180.499 3.4668 181.055 3.4668C181.634 3.4668 182.139 3.58529 182.572 3.82227C183.005 4.05469 183.345 4.3737 183.591 4.7793C183.842 5.18034 183.978 5.63607 184.001 6.14648H182.798C182.775 5.84115 182.689 5.56543 182.538 5.31934C182.392 5.07324 182.192 4.87728 181.937 4.73145C181.686 4.58105 181.392 4.50586 181.055 4.50586C180.667 4.50586 180.342 4.58333 180.077 4.73828C179.817 4.88867 179.61 5.09375 179.455 5.35352C179.305 5.60872 179.195 5.89355 179.127 6.20801C179.063 6.5179 179.031 6.83464 179.031 7.1582V7.44531C179.031 7.76888 179.063 8.08789 179.127 8.40234C179.191 8.7168 179.298 9.00163 179.448 9.25684C179.603 9.51204 179.811 9.71712 180.07 9.87207C180.335 10.0225 180.663 10.0977 181.055 10.0977ZM188.742 11.1367C188.227 11.1367 187.76 11.0501 187.341 10.877C186.926 10.6992 186.568 10.4508 186.268 10.1318C185.971 9.81283 185.744 9.43457 185.584 8.99707C185.425 8.55957 185.345 8.08105 185.345 7.56152V7.27441C185.345 6.67285 185.434 6.13737 185.611 5.66797C185.789 5.19401 186.031 4.79297 186.336 4.46484C186.641 4.13672 186.988 3.88835 187.375 3.71973C187.762 3.55111 188.163 3.4668 188.578 3.4668C189.107 3.4668 189.563 3.55794 189.945 3.74023C190.333 3.92253 190.649 4.17773 190.896 4.50586C191.142 4.82943 191.324 5.21224 191.442 5.6543C191.561 6.0918 191.62 6.57031 191.62 7.08984V7.65723H186.097V6.625H190.356V6.5293C190.337 6.20117 190.269 5.88216 190.15 5.57227C190.037 5.26237 189.854 5.00716 189.604 4.80664C189.353 4.60612 189.011 4.50586 188.578 4.50586C188.291 4.50586 188.027 4.56738 187.785 4.69043C187.544 4.80892 187.336 4.98665 187.163 5.22363C186.99 5.46061 186.856 5.75 186.76 6.0918C186.664 6.43359 186.616 6.8278 186.616 7.27441V7.56152C186.616 7.91243 186.664 8.24284 186.76 8.55273C186.86 8.85807 187.004 9.12695 187.19 9.35938C187.382 9.5918 187.612 9.77409 187.881 9.90625C188.154 10.0384 188.464 10.1045 188.811 10.1045C189.257 10.1045 189.635 10.0133 189.945 9.83105C190.255 9.64876 190.526 9.40495 190.759 9.09961L191.524 9.70801C191.365 9.94954 191.162 10.1797 190.916 10.3984C190.67 10.6172 190.367 10.7949 190.007 10.9316C189.651 11.0684 189.23 11.1367 188.742 11.1367ZM197.653 9.03809C197.653 8.85579 197.612 8.68717 197.53 8.53223C197.453 8.37272 197.291 8.22917 197.045 8.10156C196.803 7.9694 196.439 7.85547 195.951 7.75977C195.541 7.67318 195.17 7.57064 194.837 7.45215C194.509 7.33366 194.229 7.1901 193.996 7.02148C193.768 6.85286 193.593 6.65462 193.47 6.42676C193.347 6.19889 193.285 5.93229 193.285 5.62695C193.285 5.33529 193.349 5.05957 193.477 4.7998C193.609 4.54004 193.793 4.3099 194.03 4.10938C194.272 3.90885 194.561 3.75163 194.898 3.6377C195.236 3.52376 195.612 3.4668 196.026 3.4668C196.619 3.4668 197.125 3.57161 197.544 3.78125C197.963 3.99089 198.285 4.27116 198.508 4.62207C198.731 4.96842 198.843 5.35352 198.843 5.77734H197.578C197.578 5.57227 197.517 5.37402 197.394 5.18262C197.275 4.98665 197.1 4.82487 196.867 4.69727C196.639 4.56966 196.359 4.50586 196.026 4.50586C195.676 4.50586 195.391 4.56055 195.172 4.66992C194.958 4.77474 194.801 4.90918 194.7 5.07324C194.605 5.2373 194.557 5.41048 194.557 5.59277C194.557 5.72949 194.579 5.85254 194.625 5.96191C194.675 6.06673 194.762 6.16471 194.885 6.25586C195.008 6.34245 195.181 6.42448 195.404 6.50195C195.628 6.57943 195.912 6.6569 196.259 6.73438C196.865 6.87109 197.364 7.03516 197.756 7.22656C198.148 7.41797 198.44 7.65267 198.631 7.93066C198.822 8.20866 198.918 8.5459 198.918 8.94238C198.918 9.26595 198.85 9.56217 198.713 9.83105C198.581 10.0999 198.387 10.3324 198.132 10.5283C197.881 10.7197 197.58 10.8701 197.23 10.9795C196.883 11.0843 196.494 11.1367 196.061 11.1367C195.409 11.1367 194.857 11.0205 194.406 10.7881C193.955 10.5557 193.613 10.2549 193.381 9.88574C193.148 9.5166 193.032 9.12695 193.032 8.7168H194.304C194.322 9.06315 194.422 9.33887 194.605 9.54395C194.787 9.74447 195.01 9.88802 195.274 9.97461C195.539 10.0566 195.801 10.0977 196.061 10.0977C196.407 10.0977 196.696 10.0521 196.929 9.96094C197.166 9.86979 197.346 9.74447 197.469 9.58496C197.592 9.42546 197.653 9.24316 197.653 9.03809ZM205.136 9.03809C205.136 8.85579 205.095 8.68717 205.013 8.53223C204.935 8.37272 204.773 8.22917 204.527 8.10156C204.286 7.9694 203.921 7.85547 203.434 7.75977C203.023 7.67318 202.652 7.57064 202.319 7.45215C201.991 7.33366 201.711 7.1901 201.479 7.02148C201.251 6.85286 201.075 6.65462 200.952 6.42676C200.829 6.19889 200.768 5.93229 200.768 5.62695C200.768 5.33529 200.831 5.05957 200.959 4.7998C201.091 4.54004 201.276 4.3099 201.513 4.10938C201.754 3.90885 202.044 3.75163 202.381 3.6377C202.718 3.52376 203.094 3.4668 203.509 3.4668C204.101 3.4668 204.607 3.57161 205.026 3.78125C205.446 3.99089 205.767 4.27116 205.99 4.62207C206.214 4.96842 206.325 5.35352 206.325 5.77734H205.061C205.061 5.57227 204.999 5.37402 204.876 5.18262C204.758 4.98665 204.582 4.82487 204.35 4.69727C204.122 4.56966 203.842 4.50586 203.509 4.50586C203.158 4.50586 202.873 4.56055 202.654 4.66992C202.44 4.77474 202.283 4.90918 202.183 5.07324C202.087 5.2373 202.039 5.41048 202.039 5.59277C202.039 5.72949 202.062 5.85254 202.107 5.96191C202.158 6.06673 202.244 6.16471 202.367 6.25586C202.49 6.34245 202.663 6.42448 202.887 6.50195C203.11 6.57943 203.395 6.6569 203.741 6.73438C204.347 6.87109 204.846 7.03516 205.238 7.22656C205.63 7.41797 205.922 7.65267 206.113 7.93066C206.305 8.20866 206.4 8.5459 206.4 8.94238C206.4 9.26595 206.332 9.56217 206.195 9.83105C206.063 10.0999 205.87 10.3324 205.614 10.5283C205.364 10.7197 205.063 10.8701 204.712 10.9795C204.366 11.0843 203.976 11.1367 203.543 11.1367C202.891 11.1367 202.34 11.0205 201.889 10.7881C201.438 10.5557 201.096 10.2549 200.863 9.88574C200.631 9.5166 200.515 9.12695 200.515 8.7168H201.786C201.804 9.06315 201.905 9.33887 202.087 9.54395C202.269 9.74447 202.493 9.88802 202.757 9.97461C203.021 10.0566 203.283 10.0977 203.543 10.0977C203.889 10.0977 204.179 10.0521 204.411 9.96094C204.648 9.86979 204.828 9.74447 204.951 9.58496C205.074 9.42546 205.136 9.24316 205.136 9.03809ZM208.1 4.29395C208.1 4.07975 208.166 3.89974 208.298 3.75391C208.435 3.60352 208.631 3.52832 208.886 3.52832C209.141 3.52832 209.335 3.60352 209.467 3.75391C209.604 3.89974 209.672 4.07975 209.672 4.29395C209.672 4.50358 209.604 4.68132 209.467 4.82715C209.335 4.97298 209.141 5.0459 208.886 5.0459C208.631 5.0459 208.435 4.97298 208.298 4.82715C208.166 4.68132 208.1 4.50358 208.1 4.29395ZM209.542 9.49609V10.5146C209.542 10.9294 209.437 11.3669 209.228 11.8271C209.018 12.292 208.724 12.6794 208.346 12.9893L207.628 12.4902C207.774 12.2897 207.897 12.0846 207.997 11.875C208.097 11.6699 208.173 11.4557 208.223 11.2324C208.277 11.0137 208.305 10.7812 208.305 10.5352V9.49609H209.542ZM218.99 6.34473H216.468L216.454 5.28516H218.744C219.122 5.28516 219.453 5.22135 219.735 5.09375C220.018 4.96615 220.237 4.78385 220.392 4.54688C220.551 4.30534 220.631 4.01823 220.631 3.68555C220.631 3.32096 220.56 3.02474 220.419 2.79688C220.282 2.56445 220.07 2.39583 219.783 2.29102C219.501 2.18164 219.141 2.12695 218.703 2.12695H216.762V11H215.442V1.04688H218.703C219.214 1.04688 219.669 1.09928 220.07 1.2041C220.471 1.30436 220.811 1.46387 221.089 1.68262C221.371 1.89681 221.586 2.17025 221.732 2.50293C221.877 2.83561 221.95 3.23438 221.95 3.69922C221.95 4.10938 221.845 4.48079 221.636 4.81348C221.426 5.1416 221.135 5.41048 220.761 5.62012C220.392 5.82975 219.959 5.96419 219.462 6.02344L218.99 6.34473ZM218.929 11H215.948L216.693 9.92676H218.929C219.348 9.92676 219.704 9.85384 219.995 9.70801C220.291 9.56217 220.517 9.3571 220.672 9.09277C220.827 8.82389 220.904 8.50716 220.904 8.14258C220.904 7.77344 220.838 7.45443 220.706 7.18555C220.574 6.91667 220.367 6.70931 220.084 6.56348C219.801 6.41764 219.437 6.34473 218.99 6.34473H217.11L217.124 5.28516H219.694L219.975 5.66797C220.453 5.70898 220.859 5.8457 221.191 6.07812C221.524 6.30599 221.777 6.59766 221.95 6.95312C222.128 7.30859 222.217 7.70052 222.217 8.12891C222.217 8.7487 222.08 9.27279 221.807 9.70117C221.538 10.125 221.157 10.4486 220.665 10.6719C220.173 10.8906 219.594 11 218.929 11ZM227.293 11.1367C226.778 11.1367 226.311 11.0501 225.892 10.877C225.477 10.6992 225.119 10.4508 224.818 10.1318C224.522 9.81283 224.294 9.43457 224.135 8.99707C223.975 8.55957 223.896 8.08105 223.896 7.56152V7.27441C223.896 6.67285 223.984 6.13737 224.162 5.66797C224.34 5.19401 224.581 4.79297 224.887 4.46484C225.192 4.13672 225.538 3.88835 225.926 3.71973C226.313 3.55111 226.714 3.4668 227.129 3.4668C227.658 3.4668 228.113 3.55794 228.496 3.74023C228.884 3.92253 229.2 4.17773 229.446 4.50586C229.692 4.82943 229.875 5.21224 229.993 5.6543C230.112 6.0918 230.171 6.57031 230.171 7.08984V7.65723H224.648V6.625H228.906V6.5293C228.888 6.20117 228.82 5.88216 228.701 5.57227C228.587 5.26237 228.405 5.00716 228.154 4.80664C227.904 4.60612 227.562 4.50586 227.129 4.50586C226.842 4.50586 226.578 4.56738 226.336 4.69043C226.094 4.80892 225.887 4.98665 225.714 5.22363C225.541 5.46061 225.406 5.75 225.311 6.0918C225.215 6.43359 225.167 6.8278 225.167 7.27441V7.56152C225.167 7.91243 225.215 8.24284 225.311 8.55273C225.411 8.85807 225.554 9.12695 225.741 9.35938C225.933 9.5918 226.163 9.77409 226.432 9.90625C226.705 10.0384 227.015 10.1045 227.361 10.1045C227.808 10.1045 228.186 10.0133 228.496 9.83105C228.806 9.64876 229.077 9.40495 229.31 9.09961L230.075 9.70801C229.916 9.94954 229.713 10.1797 229.467 10.3984C229.221 10.6172 228.918 10.7949 228.558 10.9316C228.202 11.0684 227.781 11.1367 227.293 11.1367ZM239.982 9.73535V5.92773C239.982 5.63607 239.922 5.38314 239.804 5.16895C239.69 4.9502 239.517 4.78158 239.284 4.66309C239.052 4.5446 238.765 4.48535 238.423 4.48535C238.104 4.48535 237.824 4.54004 237.582 4.64941C237.345 4.75879 237.158 4.90234 237.022 5.08008C236.889 5.25781 236.823 5.44922 236.823 5.6543H235.559C235.559 5.38997 235.627 5.12793 235.764 4.86816C235.9 4.6084 236.096 4.3737 236.352 4.16406C236.611 3.94987 236.921 3.78125 237.281 3.6582C237.646 3.5306 238.051 3.4668 238.498 3.4668C239.036 3.4668 239.51 3.55794 239.92 3.74023C240.335 3.92253 240.658 4.19824 240.891 4.56738C241.128 4.93197 241.246 5.38997 241.246 5.94141V9.38672C241.246 9.63281 241.267 9.89486 241.308 10.1729C241.353 10.4508 241.419 10.6901 241.506 10.8906V11H240.187C240.123 10.8542 240.073 10.6605 240.036 10.4189C240 10.1729 239.982 9.94499 239.982 9.73535ZM240.2 6.51562L240.214 7.4043H238.936C238.576 7.4043 238.254 7.43392 237.972 7.49316C237.689 7.54785 237.452 7.63216 237.261 7.74609C237.069 7.86003 236.924 8.00358 236.823 8.17676C236.723 8.34538 236.673 8.54362 236.673 8.77148C236.673 9.00391 236.725 9.21582 236.83 9.40723C236.935 9.59863 237.092 9.7513 237.302 9.86523C237.516 9.97461 237.778 10.0293 238.088 10.0293C238.475 10.0293 238.817 9.94727 239.113 9.7832C239.41 9.61914 239.644 9.41862 239.817 9.18164C239.995 8.94466 240.091 8.71452 240.105 8.49121L240.645 9.09961C240.613 9.29102 240.526 9.50293 240.385 9.73535C240.244 9.96777 240.054 10.1911 239.817 10.4053C239.585 10.6149 239.307 10.7904 238.983 10.9316C238.664 11.0684 238.304 11.1367 237.903 11.1367C237.402 11.1367 236.962 11.0387 236.584 10.8428C236.21 10.6468 235.919 10.3848 235.709 10.0566C235.504 9.72396 235.401 9.35254 235.401 8.94238C235.401 8.5459 235.479 8.19727 235.634 7.89648C235.789 7.59115 236.012 7.33822 236.304 7.1377C236.595 6.93262 236.946 6.77767 237.357 6.67285C237.767 6.56803 238.225 6.51562 238.731 6.51562H240.2ZM253.436 9.92676V11H248.459V9.92676H253.436ZM248.719 1.04688V11H247.399V1.04688H248.719ZM256.379 3.60352V11H255.107V3.60352H256.379ZM255.012 1.6416C255.012 1.43652 255.073 1.26335 255.196 1.12207C255.324 0.980794 255.511 0.910156 255.757 0.910156C255.998 0.910156 256.183 0.980794 256.311 1.12207C256.443 1.26335 256.509 1.43652 256.509 1.6416C256.509 1.83757 256.443 2.00618 256.311 2.14746C256.183 2.28418 255.998 2.35254 255.757 2.35254C255.511 2.35254 255.324 2.28418 255.196 2.14746C255.073 2.00618 255.012 1.83757 255.012 1.6416ZM259.924 5.18262V11H258.659V3.60352H259.856L259.924 5.18262ZM259.623 7.02148L259.097 7.00098C259.101 6.49512 259.176 6.02799 259.322 5.59961C259.468 5.16667 259.673 4.79069 259.938 4.47168C260.202 4.15267 260.516 3.90658 260.881 3.7334C261.25 3.55566 261.658 3.4668 262.105 3.4668C262.469 3.4668 262.797 3.51693 263.089 3.61719C263.381 3.71289 263.629 3.86784 263.834 4.08203C264.044 4.29622 264.203 4.57422 264.313 4.91602C264.422 5.25326 264.477 5.66569 264.477 6.15332V11H263.205V6.13965C263.205 5.75228 263.148 5.44238 263.034 5.20996C262.92 4.97298 262.754 4.80208 262.535 4.69727C262.316 4.58789 262.048 4.5332 261.729 4.5332C261.414 4.5332 261.127 4.59928 260.867 4.73145C260.612 4.86361 260.391 5.0459 260.204 5.27832C260.022 5.51074 259.878 5.77734 259.773 6.07812C259.673 6.37435 259.623 6.6888 259.623 7.02148ZM269.607 10.0977C269.908 10.0977 270.186 10.0361 270.441 9.91309C270.697 9.79004 270.906 9.62142 271.07 9.40723C271.234 9.18848 271.328 8.9401 271.351 8.66211H272.554C272.531 9.09961 272.383 9.50749 272.109 9.88574C271.841 10.2594 271.487 10.5625 271.05 10.7949C270.612 11.0228 270.132 11.1367 269.607 11.1367C269.051 11.1367 268.566 11.0387 268.151 10.8428C267.741 10.6468 267.399 10.3779 267.126 10.0361C266.857 9.69434 266.654 9.30241 266.518 8.86035C266.385 8.41374 266.319 7.94206 266.319 7.44531V7.1582C266.319 6.66146 266.385 6.19206 266.518 5.75C266.654 5.30339 266.857 4.90918 267.126 4.56738C267.399 4.22559 267.741 3.95671 268.151 3.76074C268.566 3.56478 269.051 3.4668 269.607 3.4668C270.186 3.4668 270.692 3.58529 271.125 3.82227C271.558 4.05469 271.898 4.3737 272.144 4.7793C272.394 5.18034 272.531 5.63607 272.554 6.14648H271.351C271.328 5.84115 271.241 5.56543 271.091 5.31934C270.945 5.07324 270.745 4.87728 270.489 4.73145C270.239 4.58105 269.945 4.50586 269.607 4.50586C269.22 4.50586 268.894 4.58333 268.63 4.73828C268.37 4.88867 268.163 5.09375 268.008 5.35352C267.857 5.60872 267.748 5.89355 267.68 6.20801C267.616 6.5179 267.584 6.83464 267.584 7.1582V7.44531C267.584 7.76888 267.616 8.08789 267.68 8.40234C267.744 8.7168 267.851 9.00163 268.001 9.25684C268.156 9.51204 268.363 9.71712 268.623 9.87207C268.887 10.0225 269.216 10.0977 269.607 10.0977ZM275.49 0.5V11H274.226V0.5H275.49ZM275.19 7.02148L274.663 7.00098C274.668 6.49512 274.743 6.02799 274.889 5.59961C275.035 5.16667 275.24 4.79069 275.504 4.47168C275.768 4.15267 276.083 3.90658 276.447 3.7334C276.816 3.55566 277.224 3.4668 277.671 3.4668C278.036 3.4668 278.364 3.51693 278.655 3.61719C278.947 3.71289 279.195 3.86784 279.4 4.08203C279.61 4.29622 279.77 4.57422 279.879 4.91602C279.988 5.25326 280.043 5.66569 280.043 6.15332V11H278.772V6.13965C278.772 5.75228 278.715 5.44238 278.601 5.20996C278.487 4.97298 278.32 4.80208 278.102 4.69727C277.883 4.58789 277.614 4.5332 277.295 4.5332C276.981 4.5332 276.693 4.59928 276.434 4.73145C276.178 4.86361 275.957 5.0459 275.771 5.27832C275.588 5.51074 275.445 5.77734 275.34 6.07812C275.24 6.37435 275.19 6.6888 275.19 7.02148ZM283.451 5.02539V13.8438H282.18V3.60352H283.342L283.451 5.02539ZM288.435 7.24023V7.38379C288.435 7.92155 288.371 8.42057 288.243 8.88086C288.116 9.33659 287.929 9.73307 287.683 10.0703C287.441 10.4076 287.143 10.6696 286.787 10.8564C286.432 11.0433 286.024 11.1367 285.564 11.1367C285.094 11.1367 284.679 11.0592 284.319 10.9043C283.959 10.7493 283.654 10.5238 283.403 10.2275C283.153 9.93132 282.952 9.57585 282.802 9.16113C282.656 8.74642 282.556 8.2793 282.501 7.75977V6.99414C282.556 6.44727 282.658 5.95736 282.809 5.52441C282.959 5.09147 283.157 4.72233 283.403 4.41699C283.654 4.1071 283.957 3.8724 284.313 3.71289C284.668 3.54883 285.078 3.4668 285.543 3.4668C286.008 3.4668 286.42 3.55794 286.78 3.74023C287.14 3.91797 287.443 4.17318 287.69 4.50586C287.936 4.83854 288.12 5.2373 288.243 5.70215C288.371 6.16243 288.435 6.67513 288.435 7.24023ZM287.163 7.38379V7.24023C287.163 6.87109 287.124 6.52474 287.047 6.20117C286.969 5.87305 286.849 5.58594 286.685 5.33984C286.525 5.08919 286.32 4.89323 286.069 4.75195C285.819 4.60612 285.52 4.5332 285.174 4.5332C284.855 4.5332 284.577 4.58789 284.34 4.69727C284.107 4.80664 283.909 4.95475 283.745 5.1416C283.581 5.32389 283.447 5.53353 283.342 5.77051C283.242 6.00293 283.166 6.24447 283.116 6.49512V8.26562C283.207 8.58464 283.335 8.88542 283.499 9.16797C283.663 9.44596 283.882 9.67155 284.155 9.84473C284.429 10.0133 284.773 10.0977 285.188 10.0977C285.529 10.0977 285.823 10.027 286.069 9.88574C286.32 9.73991 286.525 9.54167 286.685 9.29102C286.849 9.04036 286.969 8.75326 287.047 8.42969C287.124 8.10156 287.163 7.75293 287.163 7.38379ZM291.672 3.60352V11H290.4V3.60352H291.672ZM290.305 1.6416C290.305 1.43652 290.366 1.26335 290.489 1.12207C290.617 0.980794 290.804 0.910156 291.05 0.910156C291.291 0.910156 291.476 0.980794 291.604 1.12207C291.736 1.26335 291.802 1.43652 291.802 1.6416C291.802 1.83757 291.736 2.00618 291.604 2.14746C291.476 2.28418 291.291 2.35254 291.05 2.35254C290.804 2.35254 290.617 2.28418 290.489 2.14746C290.366 2.00618 290.305 1.83757 290.305 1.6416ZM295.217 5.18262V11H293.952V3.60352H295.148L295.217 5.18262ZM294.916 7.02148L294.39 7.00098C294.394 6.49512 294.469 6.02799 294.615 5.59961C294.761 5.16667 294.966 4.79069 295.231 4.47168C295.495 4.15267 295.809 3.90658 296.174 3.7334C296.543 3.55566 296.951 3.4668 297.398 3.4668C297.762 3.4668 298.09 3.51693 298.382 3.61719C298.674 3.71289 298.922 3.86784 299.127 4.08203C299.337 4.29622 299.496 4.57422 299.606 4.91602C299.715 5.25326 299.77 5.66569 299.77 6.15332V11H298.498V6.13965C298.498 5.75228 298.441 5.44238 298.327 5.20996C298.213 4.97298 298.047 4.80208 297.828 4.69727C297.609 4.58789 297.341 4.5332 297.022 4.5332C296.707 4.5332 296.42 4.59928 296.16 4.73145C295.905 4.86361 295.684 5.0459 295.497 5.27832C295.315 5.51074 295.171 5.77734 295.066 6.07812C294.966 6.37435 294.916 6.6888 294.916 7.02148ZM303.444 1.04688L303.356 8.19043H302.214L302.118 1.04688H303.444ZM302.077 10.3643C302.077 10.1592 302.139 9.986 302.262 9.84473C302.389 9.70345 302.576 9.63281 302.822 9.63281C303.064 9.63281 303.248 9.70345 303.376 9.84473C303.508 9.986 303.574 10.1592 303.574 10.3643C303.574 10.5602 303.508 10.7288 303.376 10.8701C303.248 11.0114 303.064 11.082 302.822 11.082C302.576 11.082 302.389 11.0114 302.262 10.8701C302.139 10.7288 302.077 10.5602 302.077 10.3643Z" fill="#5F5791"/>
</svg>
