<svg width="306" height="62" viewBox="0 0 306 62" fill="none" xmlns="http://www.w3.org/2000/svg">
<path d="M10.3561 0.0679991C12.8041 0.0679991 15.3201 0.135998 17.7681 0.0679991C18.7881 0.0679991 19.4681 0.475998 19.7401 1.496C20.0801 2.652 19.3321 2.992 18.5161 3.332C16.4081 4.284 16.1361 5.032 16.2721 7.412C16.4081 9.316 16.2041 11.22 16.2041 13.192C16.2721 21.556 16.2721 30.056 16.3401 38.42C16.3401 39.984 16.4081 41.684 16.4081 43.248C16.4081 45.288 17.4281 46.308 19.4001 46.24C20.6921 46.24 21.9841 46.24 23.2761 46.172C27.0161 45.968 29.8721 44.404 31.4361 40.868C32.3201 38.624 33.2721 36.448 34.1561 34.34C34.9721 32.436 36.1281 31.552 37.6921 32.096C39.0521 32.504 40.5481 34.204 40.0721 36.108C39.5281 38.488 38.9841 40.936 38.5081 43.316C38.1001 44.676 37.8281 46.036 37.5561 47.396C37.3521 48.96 36.4001 50.184 34.7001 50.456C33.7481 50.728 32.7281 50.728 31.7761 50.728C25.6561 50.796 19.6041 50.796 13.5521 50.796C10.5601 50.796 7.56806 50.796 4.57606 50.796C3.35206 50.728 2.19606 50.388 1.99206 49.096C1.72006 47.872 2.40006 46.852 3.55606 46.24C5.25606 45.492 4.84806 43.928 4.84806 42.636C4.91606 34.544 4.78006 26.384 4.71206 18.36C4.64406 14.552 4.57606 10.744 4.44006 6.936C4.44006 6.732 4.57606 6.528 4.57606 6.324C4.78006 4.76 4.44006 4.216 2.80806 3.876C1.58406 3.604 0.700061 2.924 0.768061 1.632C0.904061 0.407999 1.92406 0.0679991 3.14806 0.135998C5.52806 0.135998 7.97606 0.135998 10.3561 0.135998V0.0679991ZM10.4921 40.052C10.8321 40.256 11.1041 40.46 11.3081 40.664C12.5321 42.024 13.6881 43.384 15.1161 45.016C14.9801 43.384 14.7081 42.16 14.7761 40.936C14.8441 38.964 13.8241 37.74 12.5321 36.584C12.1921 36.244 11.8521 35.972 11.5121 35.632C9.67606 34.136 7.90806 32.572 6.00406 31.008C5.46006 32.912 6.48006 34.204 7.43206 35.496C8.52006 37.06 9.54006 38.556 10.5601 40.052C10.2881 39.916 10.0161 39.848 9.88006 39.644C8.65606 38.08 7.43206 36.38 6.07206 34.748C5.66406 36.856 9.26806 41.412 12.1921 42.84C11.7161 41.956 11.1041 41.004 10.4921 40.052ZM6.14006 38.556C5.39206 41.072 6.75206 42.772 8.24806 44.336C9.33606 45.424 10.6281 46.308 11.5121 47.532C13.2801 49.98 15.7281 49.844 18.5841 49.504C14.3001 45.764 10.2201 42.16 6.14006 38.556ZM5.66406 5.576C6.88806 10.948 12.0561 13.668 14.7761 18.224C14.8441 17.272 14.9801 16.252 14.5721 15.504C12.0561 11.832 9.26806 8.364 5.66406 5.576ZM14.5721 12.92C14.7761 12.784 14.9801 12.716 15.1841 12.58C14.8441 11.356 14.8441 9.656 13.9601 8.772C12.2601 6.936 10.0161 5.44 8.04406 3.876C7.02406 3.196 6.00406 2.72 5.05206 2.108C4.91606 2.244 4.84806 2.448 4.71206 2.584C8.04406 5.984 11.3081 9.452 14.5721 12.92ZM15.0481 31.484C15.3881 29.988 15.1841 28.492 13.6881 27.404C12.4641 26.316 11.3761 25.16 10.0841 24.208C8.79206 23.12 7.43206 22.168 6.00406 21.148C5.86806 21.284 5.73206 21.352 5.59606 21.42C5.93606 22.1 6.07206 22.848 6.54806 23.392C9.33606 26.044 12.1921 28.764 15.0481 31.484ZM6.14006 27.064C6.00406 27.268 5.86806 27.404 5.73206 27.54C8.65606 30.668 11.5801 33.728 14.7761 37.06C14.6401 35.632 15.1161 33.796 14.4361 33.116C11.8521 30.94 8.92806 29.036 6.14006 27.064ZM14.9801 26.792C15.1161 26.792 15.1841 26.792 15.2521 26.792C14.9801 25.84 14.9801 24.616 14.3681 24.072C11.8521 21.624 9.13206 19.38 6.48006 17.136C6.34406 17 6.00406 17.068 5.59606 17C8.86006 20.4 11.9201 23.596 14.9801 26.792ZM12.2601 49.3C10.2201 47.736 8.31606 46.172 6.00406 44.472C6.07206 47.6 9.06406 49.776 12.2601 49.3ZM6.07206 9.384C5.93606 9.452 5.80006 9.52 5.66406 9.588C5.73206 10.268 5.46006 11.356 5.86806 11.696C7.90806 13.464 10.0161 15.028 12.1241 16.728C12.1921 16.66 12.2601 16.592 12.3281 16.524C10.2201 14.144 8.18006 11.764 6.07206 9.384ZM7.56806 14.28C7.50006 14.348 7.50006 14.348 7.50006 14.348C9.88006 17.068 12.3961 19.788 15.1161 22.712C14.9121 21.488 15.0481 20.264 14.5721 19.788C12.3281 17.816 9.88006 16.048 7.56806 14.28ZM12.6681 30.736C12.7361 30.6 12.8041 30.532 12.9401 30.396C10.6281 28.22 8.31606 25.976 5.93606 23.732C5.52806 25.024 5.66406 25.772 6.68406 26.384C8.11206 27.336 9.33606 28.424 10.6961 29.376C11.3761 29.784 12.0561 30.26 12.6681 30.736ZM31.5721 42.364C33.2041 44.336 34.6321 45.968 36.1281 47.668C37.2161 45.628 34.5641 42.432 31.5721 42.364ZM12.7361 6.324C9.20006 1.292 9.13206 0.475998 6.20806 1.36C8.45206 3.06 10.5601 4.692 12.7361 6.324ZM11.5801 1.972C11.4441 2.108 11.3761 2.244 11.2401 2.448C12.3281 3.876 13.3481 5.372 14.7081 7.208C14.9121 6.052 15.4561 4.828 15.1841 4.488C14.0961 3.536 12.7361 2.856 11.5801 1.972ZM23.1401 49.436C21.5761 47.872 19.7401 47.192 17.4281 47.328C19.1281 48.688 20.4881 50.252 23.1401 49.436ZM34.6321 47.872C34.7681 47.736 34.9041 47.668 35.0401 47.532C33.8161 46.172 32.6601 44.812 31.5721 43.452C31.0281 44.132 30.6881 44.54 30.2801 45.016C31.7761 45.968 33.2041 46.852 34.6321 47.872ZM37.8281 40.664C38.6441 38.148 37.2161 36.584 34.4281 36.856C35.6521 38.148 36.6721 39.304 37.8281 40.664ZM26.9481 46.92C28.5801 47.94 29.9401 48.688 31.3001 49.504C31.5041 49.368 31.6401 49.232 31.7081 49.028C30.6881 48.008 29.7361 46.92 28.7841 45.968C28.1721 46.308 27.6961 46.512 26.9481 46.92ZM37.0801 44.2C37.7601 42.228 36.1281 40.256 33.8161 39.984C34.9041 41.412 35.9921 42.704 37.0801 44.2ZM10.9001 23.664C9.26806 21.896 7.70406 20.196 6.00406 18.428C5.86806 18.564 5.73206 18.7 5.59606 18.904C6.61606 21.216 9.26806 21.828 10.9001 23.664ZM10.2881 19.108C10.4241 19.04 10.4921 18.904 10.6281 18.768C9.13206 17.34 7.56806 15.844 6.00406 14.416C5.80006 14.62 5.66406 14.824 5.46006 15.028C7.02406 16.456 8.72406 17.816 10.2881 19.108ZM30.7561 46.308C30.6881 46.444 30.6201 46.512 30.5521 46.648C31.9121 47.6 32.3881 49.98 35.1081 49.028C33.4761 48.076 32.1841 47.26 30.7561 46.308ZM3.69206 47.26C3.48806 47.94 3.14806 48.824 3.21606 48.824C4.23606 49.232 5.25606 49.572 6.20806 49.844C6.27606 49.708 6.34406 49.572 6.34406 49.436C5.59606 48.824 4.84806 48.212 3.69206 47.26ZM12.4641 1.224C13.7561 2.04 14.8441 2.856 16.0001 3.672C15.7281 1.564 14.9121 1.02 12.4641 1.224ZM6.68406 29.988C7.63606 30.804 9.20006 32.436 10.8321 34.136C10.9001 34.136 10.9681 34.068 10.9681 34.068C9.26806 32.368 7.63606 30.804 6.68406 29.988ZM25.3161 49.64C25.3841 49.504 25.5201 49.368 25.5881 49.232C25.0441 48.008 24.4321 46.784 22.5281 47.736C23.4801 48.416 24.3641 49.028 25.3161 49.64ZM26.2001 47.668C26.1321 47.804 26.0641 47.872 25.9961 48.008C27.1521 49.708 27.4921 49.844 29.0561 49.096C28.0361 48.552 27.0841 48.144 26.2001 47.668ZM36.1961 34C37.2161 34.816 37.9641 35.428 38.9841 36.108C38.7121 35.292 38.5081 34.544 38.1681 33.864C37.5561 33.864 37.1481 33.932 36.1961 34ZM56.1089 44.744C56.1089 46.104 56.3809 47.26 57.6049 48.144C59.1009 49.232 58.3529 50.932 56.6529 50.932C53.2529 50.932 49.8529 51 46.5209 50.864C45.6369 50.796 44.6169 50.184 44.1409 49.572C43.4609 48.552 44.3449 47.804 45.1609 47.192C45.7049 46.512 46.3169 45.492 46.3849 44.676C46.5889 37.468 46.6569 30.328 46.5889 23.12C46.5889 22.372 45.7049 21.42 45.0249 20.944C44.0049 20.196 44.0049 19.176 44.3449 18.496C44.5489 17.952 45.5689 17.408 46.3169 17.408C48.6289 17.34 50.8729 17.544 53.1169 17.612C54.9529 17.748 56.1089 18.904 56.1089 20.74C56.1089 36.924 56.1089 40.868 56.1089 44.744ZM48.0849 39.576C47.7449 42.84 47.7449 42.84 49.3089 43.928C50.2609 44.676 51.1449 45.424 52.2329 46.172C53.0489 46.852 53.7289 47.532 54.6129 48.212C54.6809 48.144 54.7489 48.008 54.8849 47.94C52.5729 45.22 50.3969 42.432 48.0849 39.576ZM54.2729 43.316C54.4089 43.316 54.6129 43.248 54.8169 43.18C54.6129 42.16 54.8849 40.868 54.2729 40.324C52.8449 39.1 51.0769 38.08 49.4449 36.992C49.3769 37.196 49.3089 37.264 49.1729 37.468C50.8729 39.44 52.5049 41.412 54.2729 43.316ZM53.9329 37.604C54.1369 37.4 54.3409 37.196 54.6129 36.992C54.9529 35.768 54.4769 34.952 53.4569 34.272C52.5049 33.796 51.8249 33.252 51.0089 32.64C50.0569 31.96 49.1729 31.212 48.1529 30.6C48.1529 30.736 48.0849 30.872 47.9489 31.008C49.9209 33.184 51.8929 35.36 53.9329 37.604ZM54.8849 49.64C52.3689 47.736 50.3969 46.104 48.2209 44.472C48.3569 46.512 52.4369 49.708 54.8849 49.64ZM54.4769 29.172C54.6129 29.172 54.7489 29.104 54.8849 29.036C54.6129 28.356 54.5449 27.472 54.1369 27.064C52.1649 25.228 49.9209 23.46 47.9489 21.624C47.8129 21.692 47.6769 21.76 47.6089 21.896C49.9209 24.276 52.2329 26.792 54.4769 29.172ZM48.2889 26.928C48.0169 28.832 50.6009 31.62 53.0489 32.368C51.4849 30.532 49.9889 28.832 48.2889 26.928ZM54.5449 22.168C55.1569 19.652 53.1849 18.632 50.5329 19.04C51.8929 20.06 53.1849 21.148 54.5449 22.168ZM49.3769 49.708C49.3769 49.64 49.3769 49.572 49.4449 49.436C48.6969 48.892 48.0849 48.28 47.2009 47.872C46.8609 47.736 46.2489 48.212 45.7729 48.416C46.0449 48.824 46.2489 49.504 46.5889 49.572C47.4729 49.776 48.3569 49.708 49.3769 49.708ZM54.4089 32.3C54.5449 32.3 54.6809 32.164 54.8169 32.028C53.6609 29.58 51.0769 28.424 49.5129 26.384C49.4449 26.52 49.3769 26.588 49.3089 26.656C50.9409 28.492 52.6409 30.396 54.4089 32.3ZM50.8729 21.08C52.0289 22.508 53.2529 23.936 54.4089 25.364C54.6129 22.712 52.3009 22.304 50.8729 21.08ZM53.0489 37.4C51.3489 36.244 49.7169 35.088 48.0849 33.728C48.1529 34.952 50.8729 36.924 53.0489 37.4ZM46.8609 18.632C46.7929 18.768 46.7249 18.972 46.5209 19.176C47.7449 20.128 48.9009 21.08 50.0569 22.1C50.1249 21.964 50.1929 21.896 50.3289 21.76C49.2409 20.74 48.0849 19.72 46.8609 18.632ZM51.8249 12.444C47.8809 12.444 45.7049 9.792 45.5009 6.528C45.2969 3.74 48.4249 0.203997 50.8049 0.339996C55.4969 0.475998 57.4689 3.4 57.6049 7.14C57.7409 10.268 55.1569 12.444 51.8249 12.444ZM53.3209 7.412C53.3889 7.344 53.4569 7.276 53.5249 7.14C52.4369 5.916 51.5529 4.692 50.5329 3.536C50.1249 3.06 49.4449 2.516 49.1049 2.72C48.4929 2.924 48.0849 3.604 47.4729 4.216C49.6489 5.372 51.4849 6.392 53.3209 7.412ZM55.9729 8.296C56.1769 5.644 54.2049 2.516 51.5529 2.176C52.9809 3.876 54.2729 6.46 55.9729 8.296ZM52.5049 11.084C52.6409 10.948 52.7769 10.744 52.9129 10.54C51.2129 9.248 49.5809 7.888 48.0169 6.46C47.8809 6.664 47.7449 6.732 47.6089 6.868C49.3089 8.296 50.8729 9.724 52.5049 11.084ZM49.9889 11.152C50.1929 11.016 50.3289 10.88 50.4649 10.676C49.5129 9.86 48.4929 9.112 47.4729 8.16C47.4049 8.296 47.2689 8.5 47.1329 8.636C48.1529 9.384 49.1049 10.336 49.9889 11.152ZM96.6651 33.184C96.7331 37.128 96.8691 41.072 96.8691 45.084C96.8691 46.512 96.9371 47.94 98.2971 48.96C99.5891 49.844 98.9091 50.932 97.4811 50.932C93.6731 51 89.9331 51 86.0571 51C83.8811 50.932 83.0651 49.572 84.2891 47.804C84.8331 46.92 84.7651 45.628 84.8331 44.472C85.7171 39.916 86.7371 28.696 84.3571 24.956C83.4731 23.324 81.6371 22.78 80.1411 23.936C78.5771 25.16 77.8291 26.724 77.7611 28.832C77.6251 32.98 77.2851 37.196 77.1491 41.344C77.0131 43.316 77.0811 45.288 77.2171 47.124C77.2851 47.804 77.7611 48.416 77.9651 49.096C78.7131 50.184 78.5091 50.796 77.2171 50.864C73.0011 50.932 68.9211 50.932 64.7731 50.796C63.1411 50.728 62.3251 49.164 63.3451 48.28C65.4531 46.444 65.3851 44.132 65.3851 41.752C65.4531 37.196 65.5891 32.504 65.5891 27.88C65.5891 26.112 65.4531 24.276 65.5211 22.44C65.5211 21.148 65.1131 20.196 64.0251 19.38C63.4811 18.904 63.0731 17.748 63.1411 16.932C63.2771 15.98 64.2971 16.184 65.1131 16.184C66.6091 16.32 68.0371 16.388 69.4651 16.252C71.5051 16.184 73.3411 16.592 75.0411 17.748C76.0611 18.496 77.1491 18.36 78.4411 17.816C82.7931 15.912 90.4771 15.844 93.8091 19.244C95.4411 20.944 96.6651 22.848 96.9371 25.024C97.3451 27.404 96.8691 29.92 96.9371 32.3C96.8691 32.64 96.9371 32.912 96.9371 33.184C96.8011 33.184 96.7331 33.184 96.6651 33.184ZM76.1291 30.26C76.1971 29.512 76.4011 28.968 76.4011 28.288C76.4011 27.744 76.2651 26.996 75.8571 26.656C72.6611 24.072 69.3291 21.488 65.7251 18.632C66.1331 19.856 66.3371 20.604 66.5411 21.284C66.8131 21.964 66.9491 22.848 67.4251 23.256C70.2131 25.568 73.2051 27.88 76.1291 30.26ZM66.8131 33.66C66.3371 35.02 66.8131 35.972 67.7651 36.584C69.1251 37.672 70.4851 38.624 71.9131 39.78C73.2051 40.8 74.3611 41.82 75.6531 42.908C76.3331 40.868 76.0611 39.236 74.0211 38.216C73.0691 37.808 72.2531 36.992 71.3691 36.38C69.8051 35.428 68.3771 34.612 66.8131 33.66ZM96.5971 49.504C95.2371 47.872 88.7091 43.928 86.0571 43.52C86.5331 44.064 86.6691 44.54 87.0771 44.88C88.1651 45.832 89.4571 46.716 90.4091 47.872C92.1771 49.572 94.1491 50.048 96.5971 49.504ZM87.8931 39.44C87.7571 39.508 87.6891 39.576 87.4851 39.644C87.6891 40.12 87.7571 40.936 88.0971 41.208C90.4771 43.18 92.9931 44.88 95.5091 46.716C95.6451 43.724 95.6451 43.656 94.1491 42.772C92.1771 41.616 90.0691 40.596 87.8931 39.44ZM85.5131 19.244C85.3771 19.312 85.3091 19.448 85.2411 19.516C88.6411 21.896 92.0411 24.344 95.7131 26.928C95.3051 25.568 95.9171 24.004 94.4211 23.256C91.4291 21.896 88.3691 20.536 85.5131 19.244ZM87.4171 29.988C87.2811 30.124 87.1451 30.192 87.0771 30.26C87.2811 30.804 87.4171 31.62 87.8251 31.96C90.2051 33.796 92.7211 35.36 95.3051 37.06C95.4411 36.992 95.5771 36.924 95.7131 36.924C95.4411 36.04 95.3051 34.816 94.6931 34.34C92.3811 32.708 89.9331 31.416 87.4171 29.988ZM87.8931 35.02C88.0291 36.312 93.9451 41.208 95.6451 41.752C95.5771 41.14 95.5771 40.528 95.4411 39.916C95.3731 39.508 95.2371 38.964 94.8971 38.76C92.7211 37.468 90.3411 36.312 87.8931 35.02ZM75.9251 46.852C76.1971 45.424 76.0611 44.948 74.8371 44.064C73.9531 43.52 73.1371 42.84 72.2531 42.364C70.4851 41.344 68.7171 40.392 66.8811 39.372C66.7451 39.576 66.6771 39.712 66.6091 39.848C69.6691 42.16 72.7291 44.54 75.9251 46.852ZM67.0171 29.648C66.8131 29.852 66.6091 30.124 66.4731 30.396C69.6011 32.708 72.7291 35.088 76.1291 37.604C75.9251 36.72 75.9251 35.768 75.4491 35.36C72.7291 33.456 69.8731 31.552 67.0171 29.648ZM95.4411 33.116C95.5771 32.096 95.7131 31.28 94.5571 30.6C93.3331 29.92 92.1771 29.036 90.9531 28.356C89.4571 27.472 87.9611 26.656 86.3291 25.84C86.2611 26.044 86.1251 26.18 85.9211 26.384C89.1171 28.628 92.1771 30.736 95.4411 33.116ZM75.8571 33.388C76.1971 32.232 75.9251 31.62 74.8371 31.008C73.4771 30.26 72.1851 29.104 70.8251 28.152C69.6011 27.268 68.2411 26.588 67.0171 25.84C66.8811 26.044 66.7451 26.18 66.6091 26.384C69.6691 28.628 72.6611 31.008 75.8571 33.388ZM76.6731 25.704C76.8771 25.636 77.0131 25.568 77.2171 25.568C77.1491 25.16 77.2171 24.48 76.9451 24.344C74.1571 22.372 71.3011 20.604 68.3771 18.768C68.3091 18.904 68.1731 19.04 68.1051 19.244C70.9611 21.284 73.8171 23.46 76.6731 25.704ZM76.3331 49.504C73.4091 47.872 70.8251 46.512 68.2411 45.084C68.8531 46.036 69.8051 46.716 70.4851 47.532C71.9131 49.3 73.6811 50.184 76.3331 49.504ZM87.6891 22.44C86.1931 21.488 84.9691 20.536 83.7451 19.584C81.9091 18.36 81.1611 18.292 79.2571 19.448C81.9091 20.468 84.6291 21.42 87.6891 22.44ZM66.7451 41.208C66.3371 42.228 66.2691 42.84 67.2211 43.316C68.9211 44.2 70.6211 45.152 72.3211 46.036C72.7971 46.376 73.3411 46.648 73.8171 46.92C73.8851 46.784 74.0211 46.648 74.0891 46.512C71.6411 44.744 69.2611 42.976 66.7451 41.208ZM94.0811 21.964C93.0611 19.244 88.3011 17.612 86.1931 18.428C88.7771 19.516 91.3611 20.808 94.0811 21.964ZM69.0571 17.952C71.5731 19.516 73.8851 21.012 76.3331 22.508C75.3131 21.284 74.1571 20.4 73.2731 19.244C72.1851 17.612 70.8251 17.544 69.0571 17.952ZM74.9731 19.38C77.5571 22.712 78.8491 23.12 81.2971 21.76C79.1891 20.944 77.2851 20.264 74.9731 19.38ZM95.5091 29.648C95.4411 28.356 88.3691 23.8 86.0571 23.46C89.1171 25.432 92.3131 27.472 95.5091 29.648ZM70.4851 49.368C70.5531 49.232 70.6891 49.096 70.8251 49.028C69.4651 47.668 68.1051 46.308 66.6091 44.812C66.2691 45.764 65.9971 46.376 65.7251 46.92C67.3571 47.736 68.8531 48.552 70.4851 49.368ZM90.3411 49.504C90.4091 49.368 90.4771 49.368 90.6131 49.3C89.1851 48.008 87.8251 46.784 86.5331 45.696C86.3291 45.832 86.1251 46.036 85.9891 46.24C86.8051 48.008 88.8451 48.348 90.3411 49.504ZM68.5131 49.708C68.5811 49.64 68.5811 49.504 68.5811 49.368C67.4251 49.028 66.3371 48.552 65.2491 48.28C64.9771 48.28 64.6371 48.688 64.2971 48.892C64.5691 49.164 64.8411 49.436 65.1131 49.504C66.2011 49.64 67.3571 49.708 68.5131 49.708ZM85.3091 47.804C85.3771 48.552 85.3091 49.3 85.4451 49.368C86.3291 49.504 87.2811 49.64 88.1651 49.708C88.1651 49.572 88.2331 49.368 88.2331 49.3C87.3491 48.892 86.4651 48.416 85.3091 47.804ZM118.547 50.864C112.223 50.932 106.307 46.716 104.199 40.528C102.091 34.272 102.499 27.948 105.967 22.372C109.503 16.728 114.943 13.94 122.287 16.116C125.415 17 127.727 18.904 129.631 21.488C131.399 23.868 130.651 27.2 127.727 29.104C125.687 30.396 122.287 29.308 121.063 26.928C120.655 26.112 120.247 25.228 120.655 23.936C120.995 22.78 120.927 21.284 119.431 20.536C118.411 19.924 116.371 20.468 115.079 21.42C113.243 22.984 113.379 25.228 113.175 27.268C112.631 31.348 113.243 35.428 114.195 39.372C114.943 42.092 116.507 43.996 119.091 45.084C120.655 45.764 124.463 44.948 125.891 43.588C126.911 42.636 128.611 42.5 129.359 43.316C130.447 44.608 130.175 46.172 128.815 47.26C125.075 50.184 122.151 50.796 118.547 50.864ZM123.783 48.824C122.423 47.124 120.179 47.26 118.547 46.172C116.847 45.152 115.079 44.268 114.263 42.364C113.243 40.256 111.475 38.692 109.503 37.4C107.871 36.176 106.171 34.952 104.471 33.796C104.267 34.068 103.995 34.272 103.859 34.544C104.471 34.884 105.151 35.224 105.627 35.7C109.843 39.576 114.059 43.384 118.207 47.328C120.315 49.368 121.675 49.844 123.783 48.824ZM119.839 49.64C114.331 47.192 110.659 42.364 105.423 39.508C108.143 42.5 110.999 45.288 113.855 48.144C115.555 49.844 117.595 50.048 119.839 49.64ZM112.291 38.012L112.767 37.808C112.427 36.788 112.291 35.496 111.611 34.884C109.503 33.184 107.123 31.756 104.879 30.124C104.743 30.26 104.539 30.328 104.471 30.464C104.539 30.872 104.471 31.484 104.743 31.756C107.191 33.796 109.775 35.972 112.291 38.012ZM111.611 33.456L112.087 33.252C111.951 32.3 112.019 30.736 111.407 30.464C109.503 29.24 107.463 28.356 105.423 27.404C105.355 27.472 105.219 27.676 105.219 27.812C107.259 29.716 109.503 31.62 111.611 33.456ZM120.655 17.544C120.519 17.748 120.383 18.02 120.179 18.156L128.747 25.772L129.223 25.228C128.067 21.828 124.055 19.584 120.655 17.544ZM128.203 27.2L121.947 21.488C121.335 26.248 125.755 29.784 128.203 27.2ZM111.951 25.568L107.871 23.936L107.667 24.208L111.951 28.696V25.568ZM110.795 42.228C110.863 42.024 110.931 41.888 111.067 41.752L104.811 36.176C104.607 36.312 104.539 36.516 104.335 36.72C106.035 38.964 108.755 40.256 110.795 42.228ZM105.491 26.112L109.435 27.948C109.503 27.948 109.503 27.812 109.503 27.676C108.415 26.588 107.327 25.364 106.035 24.072C105.763 24.956 105.695 25.5 105.491 26.112ZM109.571 21.08L112.359 23.936C112.563 23.12 112.699 22.576 112.903 22.032L109.775 20.74L109.571 21.08ZM110.319 23.732L110.523 23.392C109.707 22.508 108.959 21.828 108.007 20.74C107.735 21.692 107.667 22.372 107.531 22.78C108.551 23.12 109.503 23.392 110.319 23.732ZM116.371 19.312L112.427 17.748C114.059 20.332 114.059 20.332 116.371 19.312ZM116.235 16.252C117.119 18.836 117.459 18.972 119.431 17.816C118.207 17.204 117.187 16.796 116.235 16.252ZM125.483 45.016V45.832L128.135 46.24C128.135 45.764 128.067 45.288 128.067 44.812C127.183 44.812 126.299 44.88 125.483 45.016ZM113.107 21.08C113.175 21.012 113.243 20.944 113.243 20.876C112.495 20.128 111.747 19.38 110.863 18.632C110.727 18.836 110.319 19.176 109.979 19.448C111.067 19.992 112.087 20.604 113.107 21.08ZM156.942 29.036C157.146 20.808 149.734 21.964 148.986 28.9C148.714 31.892 148.782 34.884 148.782 37.808C148.714 39.916 148.782 41.888 148.714 43.928C148.714 45.288 148.85 46.512 149.87 47.668C150.346 48.348 150.414 49.3 150.414 50.048C150.346 50.456 149.462 51 148.918 51.068C145.246 51.272 141.574 51.34 137.902 51.34C135.998 51.272 134.298 49.368 136.338 47.736C137.766 46.716 138.106 45.424 138.038 43.52C137.97 36.924 138.242 30.328 138.242 23.664C138.31 17.952 138.31 12.24 138.174 6.528C138.174 5.984 137.698 5.032 137.154 4.76C135.454 3.944 135.386 0.815998 137.562 0.815998C140.554 0.747998 143.546 0.883997 146.538 1.088C147.082 1.088 147.898 2.04 147.966 2.516C148.238 6.732 148.238 10.948 148.51 15.096C148.714 17.476 149.394 18.496 151.638 17.748C152.862 17.272 153.814 16.524 154.97 16.116C160.138 14.552 164.694 17.952 166.666 22.508C168.026 25.432 167.55 28.492 167.686 31.552C167.822 36.244 167.822 40.868 168.026 45.628C168.026 46.036 168.638 46.512 168.978 47.124C169.386 47.668 169.998 48.212 170.27 48.824C170.746 49.98 170.134 50.796 168.91 50.796C165.17 50.796 161.294 50.864 157.486 50.796C155.718 50.796 154.426 48.892 155.65 47.6C157.282 45.764 156.942 43.452 157.078 41.412C157.35 37.06 157.078 33.048 156.942 29.036ZM150.822 22.576C147.354 19.856 143.682 17.204 140.078 14.348C139.466 15.912 139.602 16.864 140.622 17.68C141.234 18.156 141.778 18.7 142.322 19.244C144.498 21.216 146.606 23.188 148.714 25.16C149.462 24.208 150.074 23.528 150.822 22.576ZM139.67 35.224C141.098 39.372 144.77 41.82 147.286 45.22C147.354 43.724 147.626 42.024 147.014 41.072C145.178 38.488 142.798 36.448 139.67 35.224ZM166.462 43.18C166.19 41.344 166.87 39.576 165.17 38.488C163.198 37.4 161.226 36.312 159.05 35.088C158.982 35.904 158.642 36.652 158.982 37.06C160.818 39.644 163.47 41.344 166.462 43.18ZM139.67 19.448C139.602 21.556 139.602 21.556 141.03 22.848C143.138 24.956 145.246 26.928 147.422 29.036C148.034 26.18 148.102 26.112 146.47 24.684C144.294 22.916 142.05 21.284 139.67 19.448ZM163.062 27.336C163.13 27.268 163.266 27.2 163.334 27.132C162.926 26.656 162.722 26.044 162.314 25.636C160.138 23.392 157.894 21.148 155.65 18.972C154.29 17.68 153.882 17.816 152.318 19.38C155.922 22.1 159.526 24.684 163.062 27.336ZM140.146 8.296C139.874 8.364 139.738 8.5 139.534 8.568C139.806 9.248 139.942 10.268 140.486 10.812C142.458 12.988 144.702 15.232 146.742 17.34C147.014 17.544 147.354 17.68 147.422 17.748C147.422 12.716 143.41 10.812 140.146 8.296ZM166.19 28.696C166.122 27.608 166.122 26.724 165.918 25.84C165.85 24.956 165.714 23.732 165.17 23.392C162.926 21.896 160.546 20.74 158.234 19.448C158.166 19.516 158.166 19.584 158.166 19.72C160.75 22.576 163.402 25.5 166.19 28.696ZM139.874 25.16C139.738 25.296 139.534 25.5 139.33 25.704C141.982 28.56 144.634 31.416 147.286 34.34C147.49 30.668 147.898 31.212 145.314 29.24C143.478 27.88 141.71 26.52 139.874 25.16ZM140.078 30.804C139.874 30.872 139.738 31.008 139.534 31.144C141.642 34.204 144.498 36.516 147.354 38.896C147.354 37.808 147.354 36.72 146.742 36.244C144.702 34.272 142.322 32.572 140.078 30.804ZM166.19 33.524C166.394 31.552 165.85 29.988 163.946 29.104C163.13 28.696 162.45 28.084 161.702 27.676C160.614 26.86 159.458 26.112 158.37 25.296C158.234 25.5 158.03 25.704 157.894 25.84C160.614 28.424 163.402 30.872 166.19 33.524ZM166.122 47.328C166.258 47.26 166.394 47.124 166.53 46.988C164.014 44.472 162.518 41.004 158.37 39.78C158.642 40.596 158.778 41.276 159.118 41.616C161.43 43.52 163.878 45.492 166.122 47.328ZM146.266 49.708C144.09 47.804 142.05 46.104 139.806 44.336C139.738 47.464 142.934 49.98 146.266 49.708ZM141.302 4.76C141.234 4.828 141.166 4.896 141.098 4.964C143.002 7.412 144.838 9.792 146.674 12.104C146.878 11.968 147.15 11.9 147.354 11.764C147.014 10.676 147.082 9.112 146.334 8.432C144.838 7.004 143.002 6.052 141.302 4.76ZM145.586 6.46C143.478 1.972 143.818 1.972 140.01 2.516C141.914 3.876 143.75 5.168 145.586 6.46ZM164.082 21.216C162.246 18.428 159.186 16.864 157.078 17.68C159.458 18.904 161.77 20.06 164.082 21.216ZM159.254 31.348C159.118 31.484 159.05 31.62 158.914 31.756C161.226 33.592 163.606 35.496 165.918 37.4C166.054 37.196 166.258 37.06 166.462 36.788C164.694 34.204 161.294 33.524 159.254 31.348ZM163.674 33.32C163.81 33.184 163.946 32.98 164.014 32.844C162.246 31.212 160.342 29.648 158.506 28.016C159.118 31.076 161.974 31.552 163.674 33.32ZM164.49 47.396L164.558 47.328C162.586 45.832 160.682 44.336 158.71 42.704C158.37 44.472 158.37 44.54 159.39 45.016C161.09 45.832 162.79 46.648 164.49 47.396ZM159.798 46.24C159.73 46.376 159.73 46.444 159.662 46.58C161.566 47.464 162.722 49.912 165.782 49.572C163.538 48.348 161.634 47.26 159.798 46.24ZM149.462 19.108C151.298 22.304 151.638 22.508 153.134 21.284C151.842 20.536 150.686 19.788 149.462 19.108ZM143.682 42.772C142.39 41.344 141.098 39.916 139.67 38.216C139.874 40.052 141.574 41.888 143.682 42.772ZM158.098 46.784C157.622 48.144 159.662 49.708 161.702 49.504C160.41 48.552 159.254 47.668 158.098 46.784ZM148.306 49.776C148.578 49.572 148.85 49.3 149.054 49.028C147.83 47.94 146.674 46.852 145.45 45.764C146.402 47.124 147.354 48.416 148.306 49.776ZM146.81 5.644C147.286 3.4 146.674 2.584 144.906 2.448C145.518 3.536 146.13 4.488 146.81 5.644ZM139.67 11.628C139.534 13.26 140.078 13.804 142.526 14.212C141.642 13.396 140.622 12.512 139.67 11.628ZM142.05 30.872C142.118 30.804 142.254 30.736 142.39 30.6C141.574 29.648 140.622 28.696 139.806 27.812C139.602 28.016 139.398 28.152 139.262 28.356C140.214 29.24 141.098 30.056 142.05 30.872ZM141.302 7.888C141.506 7.752 141.642 7.548 141.778 7.48C140.962 6.596 140.214 5.78 139.398 4.828C139.262 5.032 139.194 5.168 138.99 5.304C139.806 6.188 140.554 7.004 141.302 7.888ZM180.131 13.532C181.423 13.532 182.647 13.396 183.871 13.6C184.823 13.736 185.911 14.076 186.523 14.62C188.427 16.184 188.767 16.388 190.807 15.028C193.051 13.532 195.431 13.464 197.947 14.076C201.619 15.096 203.727 17.748 204.883 21.216C206.515 25.84 206.855 30.736 205.971 35.428C205.359 38.488 204.407 41.616 202.843 44.268C200.599 48.008 196.927 48.484 193.391 47.872C193.051 47.804 192.643 47.124 192.575 46.648C192.507 45.492 192.439 44.2 192.575 42.976C192.643 42.024 192.575 41.14 193.731 40.188C197.267 37.4 196.179 30.6 196.043 26.384C196.043 25.228 195.907 24.14 195.635 23.12C194.343 19.04 187.543 20.06 187.339 24.14C187.067 28.356 186.931 32.436 186.727 36.584C186.659 36.992 186.659 37.604 186.931 37.944C187.203 38.42 188.359 38.896 188.495 39.372C188.903 40.936 188.495 42.568 188.563 44.132C188.631 44.404 188.495 44.676 188.563 44.88C188.563 45.9 189.107 46.988 188.427 47.804C188.291 48.008 187.135 48.076 186.863 48.212C186.523 48.348 186.455 49.164 186.455 49.64C186.455 51.748 186.455 53.856 186.523 55.896C186.523 57.324 187.475 58.14 188.631 58.752C189.039 59.024 189.379 59.636 189.719 60.044C189.175 60.316 188.767 60.86 188.223 60.928C186.047 61.064 183.871 61.064 181.763 61.132C179.519 61.132 177.479 61.2 175.235 61.2C174.827 61.2 174.011 60.86 173.875 60.52C173.807 60.044 174.079 59.364 174.419 58.752C174.487 58.548 175.031 58.412 175.235 58.208C176.459 57.528 177.275 56.508 177.275 55.08C177.411 44.404 177.547 34.748 177.343 25.092C177.343 24.004 177.207 22.78 177.479 21.624C178.023 19.176 177.547 17.952 175.371 16.796C174.963 16.524 174.351 15.98 174.351 15.504C174.487 14.62 174.827 13.532 176.119 13.532C177.479 13.532 178.839 13.532 180.131 13.532ZM178.975 26.656C178.839 26.86 178.635 26.996 178.431 27.064C178.907 28.492 177.819 30.192 179.315 31.416C181.355 32.98 183.259 34.544 185.231 36.108C185.435 36.108 185.571 36.04 185.707 36.04C185.571 34.544 185.979 32.64 185.095 31.756C183.395 29.716 181.083 28.356 178.975 26.656ZM185.435 52.768C185.435 51.68 185.503 50.728 185.435 49.776C185.435 49.164 185.435 48.348 185.095 48.076C183.055 46.172 180.811 44.54 178.771 42.772C178.567 42.84 178.363 42.976 178.227 43.112C178.363 44.132 178.159 45.56 178.771 46.172C180.743 48.484 183.123 50.524 185.435 52.768ZM185.707 47.192C185.911 47.124 186.115 47.056 186.319 46.988C186.319 46.036 186.795 44.54 186.251 43.996C183.939 41.82 181.423 39.78 178.907 37.672C178.227 39.168 178.703 39.848 179.451 40.664C181.559 42.772 183.599 45.016 185.707 47.192ZM177.683 16.524C177.615 16.592 177.547 16.728 177.411 16.932C178.907 21.08 183.055 22.984 185.707 26.384C185.775 25.228 185.979 24.004 185.367 23.392C182.919 21.012 180.267 18.768 177.683 16.524ZM185.639 57.12C185.503 52.428 181.423 51.612 178.431 49.64C177.955 51.136 178.431 51.884 179.451 52.564C181.627 53.992 183.531 55.624 185.639 57.12ZM196.791 24.616C197.063 25.228 197.335 25.84 197.811 26.384C199.579 28.016 201.415 29.648 203.183 31.212C203.863 31.756 204.339 32.436 205.019 33.252C205.427 30.464 201.075 25.772 196.791 24.616ZM179.043 21.556C178.907 21.624 178.839 21.692 178.703 21.76C178.907 22.576 178.771 23.46 179.179 24.004C181.151 26.112 183.259 28.22 185.231 30.192C185.435 30.124 185.639 29.988 185.775 29.92C185.707 29.308 185.707 28.492 185.367 28.152C183.327 25.84 181.151 23.8 179.043 21.556ZM202.775 41.684C202.979 41.616 203.115 41.616 203.319 41.616C203.455 40.596 203.931 39.032 203.523 38.556C201.823 36.924 199.715 35.7 197.811 34.272C197.607 34.476 197.471 34.612 197.335 34.816C199.171 37.06 201.007 39.372 202.775 41.684ZM204.271 24.412C201.823 18.156 201.347 19.38 195.635 15.98C195.567 16.048 195.431 16.184 195.363 16.32C198.355 19.04 201.211 21.692 204.271 24.412ZM186.387 41.82C185.231 37.604 181.695 35.36 178.635 32.436C178.635 33.728 184.551 40.664 186.387 41.82ZM197.539 29.648C197.471 29.716 197.267 29.92 197.131 30.124C199.579 32.436 201.959 34.612 204.339 36.856C204.543 36.856 204.679 36.788 204.883 36.788C204.679 35.972 204.815 34.884 204.271 34.476C202.163 32.708 199.783 31.144 197.539 29.648ZM201.483 23.528C201.551 23.46 201.619 23.392 201.687 23.392C198.967 20.876 196.247 18.496 193.663 16.048C192.779 15.3 191.963 15.164 191.147 16.048C193.595 17.884 195.975 19.72 198.423 21.488C199.443 22.168 200.463 22.848 201.483 23.528ZM186.455 60.112C186.523 59.908 186.659 59.772 186.795 59.568C184.007 57.936 181.355 56.236 178.635 54.536C178.499 54.74 178.363 54.944 178.227 55.08C180.947 56.848 182.919 59.84 186.455 60.112ZM194.751 41.684C194.615 41.888 194.411 42.024 194.343 42.092C195.431 43.316 196.519 44.336 197.471 45.492C198.559 46.648 199.443 46.24 200.531 45.084C198.491 43.86 196.655 42.772 194.751 41.684ZM179.995 14.416C179.859 14.552 179.723 14.688 179.587 14.756C181.967 16.592 184.347 18.496 186.591 20.264C184.823 17.748 183.463 14.756 179.995 14.416ZM178.159 55.828C177.819 56.508 177.615 57.052 177.411 57.528C179.179 58.412 180.471 60.18 183.055 59.908C181.355 58.48 179.791 57.256 178.159 55.828ZM205.019 28.764C205.291 26.52 203.319 26.384 202.435 25.5C201.211 24.48 199.987 23.8 198.831 22.916C198.763 22.984 198.695 23.052 198.627 23.188C200.667 25.024 202.775 26.86 205.019 28.764ZM198.219 40.392C197.947 40.528 197.879 40.528 197.879 40.528C197.811 40.596 197.879 40.664 197.879 40.664C198.763 41.684 199.647 42.636 200.531 43.656C201.211 44.404 201.823 44.268 202.299 43.18C200.871 42.092 199.511 41.208 198.219 40.392ZM191.623 19.04C190.535 17.612 189.379 16.32 187.203 17.068C188.971 17.068 189.311 20.128 191.623 19.04ZM200.259 40.052C199.375 38.896 198.423 37.808 197.471 36.584C196.655 38.76 196.383 38.352 200.259 40.052ZM196.043 14.756C198.219 16.116 199.987 17.272 201.823 18.428C200.463 16.456 198.763 15.164 196.043 14.756ZM179.383 60.044C177.071 58.276 176.935 58.276 175.031 59.84C176.459 59.908 177.751 59.976 179.383 60.044ZM181.763 38.284C180.607 37.332 179.451 36.38 178.295 35.292C178.363 37.332 180.675 37.196 181.763 38.284ZM197.335 27.2C197.199 27.336 197.063 27.472 196.995 27.608C197.607 29.104 199.307 29.376 200.599 29.92C199.511 29.036 198.423 28.22 197.335 27.2ZM181.219 49.708C180.335 48.892 179.451 48.076 178.431 47.124C178.227 48.416 178.227 48.416 181.219 49.708ZM200.803 35.156C200.871 35.088 201.007 34.952 201.075 34.816C199.919 33.864 198.763 32.912 197.607 32.096C198.015 33.864 199.715 34.136 200.803 35.156ZM186.931 18.02C187.475 18.972 187.679 20.808 189.583 19.448C188.699 18.904 187.747 18.496 186.931 18.02ZM196.927 47.124C196.043 45.968 195.091 44.88 194.139 43.656C193.323 45.832 193.051 45.424 196.927 47.124ZM223.253 44.744C223.253 46.104 223.525 47.26 224.749 48.144C226.245 49.232 225.497 50.932 223.797 50.932C220.397 50.932 216.997 51 213.665 50.864C212.781 50.796 211.761 50.184 211.285 49.572C210.605 48.552 211.489 47.804 212.305 47.192C212.849 46.512 213.461 45.492 213.529 44.676C213.733 37.468 213.801 30.328 213.733 23.12C213.733 22.372 212.849 21.42 212.169 20.944C211.149 20.196 211.149 19.176 211.489 18.496C211.693 17.952 212.713 17.408 213.461 17.408C215.773 17.34 218.017 17.544 220.261 17.612C222.097 17.748 223.253 18.904 223.253 20.74C223.253 36.924 223.253 40.868 223.253 44.744ZM215.229 39.576C214.889 42.84 214.889 42.84 216.453 43.928C217.405 44.676 218.289 45.424 219.377 46.172C220.193 46.852 220.873 47.532 221.757 48.212C221.825 48.144 221.893 48.008 222.029 47.94C219.717 45.22 217.541 42.432 215.229 39.576ZM221.417 43.316C221.553 43.316 221.757 43.248 221.961 43.18C221.757 42.16 222.029 40.868 221.417 40.324C219.989 39.1 218.221 38.08 216.589 36.992C216.521 37.196 216.453 37.264 216.317 37.468C218.017 39.44 219.649 41.412 221.417 43.316ZM221.077 37.604C221.281 37.4 221.485 37.196 221.757 36.992C222.097 35.768 221.621 34.952 220.601 34.272C219.649 33.796 218.969 33.252 218.153 32.64C217.201 31.96 216.317 31.212 215.297 30.6C215.297 30.736 215.229 30.872 215.093 31.008C217.065 33.184 219.037 35.36 221.077 37.604ZM222.029 49.64C219.513 47.736 217.541 46.104 215.365 44.472C215.501 46.512 219.581 49.708 222.029 49.64ZM221.621 29.172C221.757 29.172 221.893 29.104 222.029 29.036C221.757 28.356 221.689 27.472 221.281 27.064C219.309 25.228 217.065 23.46 215.093 21.624C214.957 21.692 214.821 21.76 214.753 21.896C217.065 24.276 219.377 26.792 221.621 29.172ZM215.433 26.928C215.161 28.832 217.745 31.62 220.193 32.368C218.629 30.532 217.133 28.832 215.433 26.928ZM221.689 22.168C222.301 19.652 220.329 18.632 217.677 19.04C219.037 20.06 220.329 21.148 221.689 22.168ZM216.521 49.708C216.521 49.64 216.521 49.572 216.589 49.436C215.841 48.892 215.229 48.28 214.345 47.872C214.005 47.736 213.393 48.212 212.917 48.416C213.189 48.824 213.393 49.504 213.733 49.572C214.617 49.776 215.501 49.708 216.521 49.708ZM221.553 32.3C221.689 32.3 221.825 32.164 221.961 32.028C220.805 29.58 218.221 28.424 216.657 26.384C216.589 26.52 216.521 26.588 216.453 26.656C218.085 28.492 219.785 30.396 221.553 32.3ZM218.017 21.08C219.173 22.508 220.397 23.936 221.553 25.364C221.757 22.712 219.445 22.304 218.017 21.08ZM220.193 37.4C218.493 36.244 216.861 35.088 215.229 33.728C215.297 34.952 218.017 36.924 220.193 37.4ZM214.005 18.632C213.937 18.768 213.869 18.972 213.665 19.176C214.889 20.128 216.045 21.08 217.201 22.1C217.269 21.964 217.337 21.896 217.473 21.76C216.385 20.74 215.229 19.72 214.005 18.632ZM218.969 12.444C215.025 12.444 212.849 9.792 212.645 6.528C212.441 3.74 215.569 0.203997 217.949 0.339996C222.641 0.475998 224.613 3.4 224.749 7.14C224.885 10.268 222.301 12.444 218.969 12.444ZM220.465 7.412C220.533 7.344 220.601 7.276 220.669 7.14C219.581 5.916 218.697 4.692 217.677 3.536C217.269 3.06 216.589 2.516 216.249 2.72C215.637 2.924 215.229 3.604 214.617 4.216C216.793 5.372 218.629 6.392 220.465 7.412ZM223.117 8.296C223.321 5.644 221.349 2.516 218.697 2.176C220.125 3.876 221.417 6.46 223.117 8.296ZM219.649 11.084C219.785 10.948 219.921 10.744 220.057 10.54C218.357 9.248 216.725 7.888 215.161 6.46C215.025 6.664 214.889 6.732 214.753 6.868C216.453 8.296 218.017 9.724 219.649 11.084ZM217.133 11.152C217.337 11.016 217.473 10.88 217.609 10.676C216.657 9.86 215.637 9.112 214.617 8.16C214.549 8.296 214.413 8.5 214.277 8.636C215.297 9.384 216.249 10.336 217.133 11.152ZM263.81 33.184C263.878 37.128 264.014 41.072 264.014 45.084C264.014 46.512 264.082 47.94 265.442 48.96C266.734 49.844 266.054 50.932 264.626 50.932C260.818 51 257.078 51 253.202 51C251.026 50.932 250.21 49.572 251.434 47.804C251.978 46.92 251.91 45.628 251.978 44.472C252.862 39.916 253.882 28.696 251.502 24.956C250.618 23.324 248.782 22.78 247.286 23.936C245.722 25.16 244.974 26.724 244.906 28.832C244.77 32.98 244.43 37.196 244.294 41.344C244.158 43.316 244.226 45.288 244.362 47.124C244.43 47.804 244.906 48.416 245.11 49.096C245.858 50.184 245.654 50.796 244.362 50.864C240.146 50.932 236.066 50.932 231.918 50.796C230.286 50.728 229.47 49.164 230.49 48.28C232.598 46.444 232.53 44.132 232.53 41.752C232.598 37.196 232.734 32.504 232.734 27.88C232.734 26.112 232.598 24.276 232.666 22.44C232.666 21.148 232.258 20.196 231.17 19.38C230.626 18.904 230.218 17.748 230.286 16.932C230.422 15.98 231.442 16.184 232.258 16.184C233.754 16.32 235.182 16.388 236.61 16.252C238.65 16.184 240.486 16.592 242.186 17.748C243.206 18.496 244.294 18.36 245.586 17.816C249.938 15.912 257.622 15.844 260.954 19.244C262.586 20.944 263.81 22.848 264.082 25.024C264.49 27.404 264.014 29.92 264.082 32.3C264.014 32.64 264.082 32.912 264.082 33.184C263.946 33.184 263.878 33.184 263.81 33.184ZM243.274 30.26C243.342 29.512 243.546 28.968 243.546 28.288C243.546 27.744 243.41 26.996 243.002 26.656C239.806 24.072 236.474 21.488 232.87 18.632C233.278 19.856 233.482 20.604 233.686 21.284C233.958 21.964 234.094 22.848 234.57 23.256C237.358 25.568 240.35 27.88 243.274 30.26ZM233.958 33.66C233.482 35.02 233.958 35.972 234.91 36.584C236.27 37.672 237.63 38.624 239.058 39.78C240.35 40.8 241.506 41.82 242.798 42.908C243.478 40.868 243.206 39.236 241.166 38.216C240.214 37.808 239.398 36.992 238.514 36.38C236.95 35.428 235.522 34.612 233.958 33.66ZM263.742 49.504C262.382 47.872 255.854 43.928 253.202 43.52C253.678 44.064 253.814 44.54 254.222 44.88C255.31 45.832 256.602 46.716 257.554 47.872C259.322 49.572 261.294 50.048 263.742 49.504ZM255.038 39.44C254.902 39.508 254.834 39.576 254.63 39.644C254.834 40.12 254.902 40.936 255.242 41.208C257.622 43.18 260.138 44.88 262.654 46.716C262.79 43.724 262.79 43.656 261.294 42.772C259.322 41.616 257.214 40.596 255.038 39.44ZM252.658 19.244C252.522 19.312 252.454 19.448 252.386 19.516C255.786 21.896 259.186 24.344 262.858 26.928C262.45 25.568 263.062 24.004 261.566 23.256C258.574 21.896 255.514 20.536 252.658 19.244ZM254.562 29.988C254.426 30.124 254.29 30.192 254.222 30.26C254.426 30.804 254.562 31.62 254.97 31.96C257.35 33.796 259.866 35.36 262.45 37.06C262.586 36.992 262.722 36.924 262.858 36.924C262.586 36.04 262.45 34.816 261.838 34.34C259.526 32.708 257.078 31.416 254.562 29.988ZM255.038 35.02C255.174 36.312 261.09 41.208 262.79 41.752C262.722 41.14 262.722 40.528 262.586 39.916C262.518 39.508 262.382 38.964 262.042 38.76C259.866 37.468 257.486 36.312 255.038 35.02ZM243.07 46.852C243.342 45.424 243.206 44.948 241.982 44.064C241.098 43.52 240.282 42.84 239.398 42.364C237.63 41.344 235.862 40.392 234.026 39.372C233.89 39.576 233.822 39.712 233.754 39.848C236.814 42.16 239.874 44.54 243.07 46.852ZM234.162 29.648C233.958 29.852 233.754 30.124 233.618 30.396C236.746 32.708 239.874 35.088 243.274 37.604C243.07 36.72 243.07 35.768 242.594 35.36C239.874 33.456 237.018 31.552 234.162 29.648ZM262.586 33.116C262.722 32.096 262.858 31.28 261.702 30.6C260.478 29.92 259.322 29.036 258.098 28.356C256.602 27.472 255.106 26.656 253.474 25.84C253.406 26.044 253.27 26.18 253.066 26.384C256.262 28.628 259.322 30.736 262.586 33.116ZM243.002 33.388C243.342 32.232 243.07 31.62 241.982 31.008C240.622 30.26 239.33 29.104 237.97 28.152C236.746 27.268 235.386 26.588 234.162 25.84C234.026 26.044 233.89 26.18 233.754 26.384C236.814 28.628 239.806 31.008 243.002 33.388ZM243.818 25.704C244.022 25.636 244.158 25.568 244.362 25.568C244.294 25.16 244.362 24.48 244.09 24.344C241.302 22.372 238.446 20.604 235.522 18.768C235.454 18.904 235.318 19.04 235.25 19.244C238.106 21.284 240.962 23.46 243.818 25.704ZM243.478 49.504C240.554 47.872 237.97 46.512 235.386 45.084C235.998 46.036 236.95 46.716 237.63 47.532C239.058 49.3 240.826 50.184 243.478 49.504ZM254.834 22.44C253.338 21.488 252.114 20.536 250.89 19.584C249.054 18.36 248.306 18.292 246.402 19.448C249.054 20.468 251.774 21.42 254.834 22.44ZM233.89 41.208C233.482 42.228 233.414 42.84 234.366 43.316C236.066 44.2 237.766 45.152 239.466 46.036C239.942 46.376 240.486 46.648 240.962 46.92C241.03 46.784 241.166 46.648 241.234 46.512C238.786 44.744 236.406 42.976 233.89 41.208ZM261.226 21.964C260.206 19.244 255.446 17.612 253.338 18.428C255.922 19.516 258.506 20.808 261.226 21.964ZM236.202 17.952C238.718 19.516 241.03 21.012 243.478 22.508C242.458 21.284 241.302 20.4 240.418 19.244C239.33 17.612 237.97 17.544 236.202 17.952ZM242.118 19.38C244.702 22.712 245.994 23.12 248.442 21.76C246.334 20.944 244.43 20.264 242.118 19.38ZM262.654 29.648C262.586 28.356 255.514 23.8 253.202 23.46C256.262 25.432 259.458 27.472 262.654 29.648ZM237.63 49.368C237.698 49.232 237.834 49.096 237.97 49.028C236.61 47.668 235.25 46.308 233.754 44.812C233.414 45.764 233.142 46.376 232.87 46.92C234.502 47.736 235.998 48.552 237.63 49.368ZM257.486 49.504C257.554 49.368 257.622 49.368 257.758 49.3C256.33 48.008 254.97 46.784 253.678 45.696C253.474 45.832 253.27 46.036 253.134 46.24C253.95 48.008 255.99 48.348 257.486 49.504ZM235.658 49.708C235.726 49.64 235.726 49.504 235.726 49.368C234.57 49.028 233.482 48.552 232.394 48.28C232.122 48.28 231.782 48.688 231.442 48.892C231.714 49.164 231.986 49.436 232.258 49.504C233.346 49.64 234.502 49.708 235.658 49.708ZM252.454 47.804C252.522 48.552 252.454 49.3 252.59 49.368C253.474 49.504 254.426 49.64 255.31 49.708C255.31 49.572 255.378 49.368 255.378 49.3C254.494 48.892 253.61 48.416 252.454 47.804ZM284.128 50.116C279.504 48.484 275.832 45.764 273.112 41.48C268.488 34.272 270.188 24.48 276.308 19.244C279.572 16.388 284.06 14.484 287.8 14.688C293.036 14.892 297.388 17.204 300.312 20.876C304.324 25.84 305.344 33.184 303.304 38.964C301.332 43.928 298.204 47.94 292.9 49.572C292.56 49.64 292.22 49.844 291.948 49.912C289.976 50.388 289.364 50.592 289.16 48.62C289.024 47.056 289.228 46.036 289.16 44.472C289.16 43.384 289.908 43.384 290.384 42.704C293.172 38.692 293.308 30.872 292.696 26.18C291.54 17.204 283.652 16.388 282.768 27.064C282.36 32.368 282.088 39.644 285.692 43.52C286.032 43.86 286.304 44.268 286.372 44.472C286.576 45.084 286.576 49.436 286.168 49.844C285.76 50.252 285.08 50.456 284.128 50.116ZM283.788 45.968C283.584 45.22 283.516 44.88 283.448 44.54C282.564 42.296 281.136 40.46 278.96 39.304C276.716 38.216 274.744 36.788 272.568 35.428C272.432 35.632 272.364 35.768 272.296 35.904C275.56 39.644 279.164 43.18 283.788 45.968ZM294.464 28.968C294.26 29.24 294.124 29.512 293.852 29.716C296.232 32.64 299.564 34.544 302.216 37.128C303.168 35.496 303.032 34.204 301.536 33.252C299.156 31.824 296.844 30.396 294.464 28.968ZM272.704 29.376C272.5 29.648 272.364 29.852 272.16 30.124C273.18 31.756 275.152 32.708 276.512 34C278.076 35.564 279.776 36.924 281.408 38.352C281.544 38.284 281.68 38.216 281.748 38.148C281.476 37.128 281.544 35.768 280.864 35.224C278.28 33.048 275.424 31.28 272.704 29.376ZM273.724 25.704C273.724 25.84 273.724 25.908 273.724 26.044C276.24 28.356 278.688 30.668 281.272 32.98C281.612 29.512 281.68 29.512 278.96 27.812C278.008 27.268 277.192 26.792 276.24 26.384C275.424 26.044 274.608 25.908 273.724 25.704ZM293.036 20.944C293.172 21.624 293.24 22.236 293.444 22.848C293.512 23.392 293.716 24.004 294.124 24.14C296.572 25.432 299.156 26.656 301.808 28.016C299.768 24.344 296.572 22.644 293.036 20.944ZM294.056 25.432C293.988 25.636 293.852 25.84 293.716 25.976C296.776 28.152 299.768 30.26 302.828 32.572C303.032 30.192 303.032 30.124 301.196 28.968C299.36 27.948 297.456 26.996 295.552 25.976C295.076 25.772 294.532 25.636 294.056 25.432ZM294.26 35.292C294.124 35.564 293.988 35.768 293.784 35.972C296.028 37.808 298.408 39.712 300.72 41.48C302.012 39.168 302.012 39.168 299.972 38.012C299.904 37.944 299.768 37.876 299.768 37.808C297.864 37.06 296.028 36.108 294.26 35.292ZM283.516 48.552C283.652 48.416 283.788 48.28 283.924 48.076C280.932 45.764 277.872 43.588 274.88 41.276C274.812 41.412 274.744 41.48 274.608 41.616C276.648 45.152 279.64 47.6 283.516 48.552ZM282.428 22.168C280.66 21.556 278.688 21.692 276.988 21.012C276.92 21.216 276.308 22.1 276.24 22.236C277.94 23.732 279.708 25.296 281.612 26.928C281.612 25.908 282.428 23.256 282.428 22.168ZM299.768 22.984C298.544 19.992 291.744 15.708 287.732 16.592C290.656 18.292 296.912 21.352 299.768 22.984ZM279.164 38.352C279.232 38.284 279.3 38.08 279.436 37.944C277.124 35.972 274.744 34 272.092 31.824C272.092 32.708 271.888 33.32 272.16 33.388C274.404 35.156 276.716 36.72 279.164 38.352ZM292.56 42.568C294.26 43.452 295.892 44.268 297.456 45.152C297.524 45.016 297.66 44.88 297.728 44.744C296.368 43.384 295.076 42.092 293.512 40.46C293.104 41.344 292.9 41.888 292.56 42.568ZM279.504 18.768C280.796 19.312 281.952 19.72 283.176 20.264C283.516 19.72 283.992 19.312 284.468 18.768C282.768 17.952 281.204 16.932 279.504 18.768ZM296.98 45.968C295.28 45.22 293.716 44.472 292.22 43.724C292.152 43.928 292.016 43.928 291.948 44.064C292.968 45.22 294.056 46.376 295.212 47.532C295.824 46.988 296.3 46.58 296.98 45.968ZM294.328 31.892C294.26 32.844 294.26 33.456 294.26 34.068C295.62 34.612 296.98 35.224 298.272 35.836C298.34 35.768 298.408 35.632 298.408 35.496C297.184 34.34 295.824 33.184 294.328 31.892ZM278.076 25.908C278.144 25.908 278.212 25.772 278.28 25.636C277.328 24.752 276.24 23.936 275.152 22.848C274.812 23.392 274.54 23.936 274.268 24.412C275.696 24.956 276.852 25.432 278.076 25.908ZM273.044 27.132C272.704 28.288 275.084 30.26 277.192 30.6C275.696 29.376 274.404 28.288 273.044 27.132ZM297.048 39.848C296.028 39.168 295.076 38.42 294.124 37.672C293.58 38.76 294.6 39.576 297.048 39.848ZM299.564 43.316C298.408 42.636 297.456 42.092 296.164 41.208C297.864 43.928 298.408 44.2 299.564 43.316ZM286.44 17.952C286.508 17.816 286.576 17.612 286.644 17.408C285.76 16.932 284.944 15.844 283.516 17.068C284.672 17.408 285.488 17.748 286.44 17.952ZM293.648 47.668C292.492 46.988 291.54 46.444 290.248 45.56C291.948 48.28 292.492 48.552 293.648 47.668Z" fill="#3F3D56"/>
</svg>
