<svg width="104" height="130" viewBox="0 0 104 130" fill="none" xmlns="http://www.w3.org/2000/svg">
<g clip-path="url(#clip0_55195_38314)">
<path d="M16.4844 127.511C16.4844 127.511 18.8711 114.939 26.211 79.8577C33.551 44.7763 44.9311 48.3103 44.9311 48.3103" fill="#F9A826"/>
<path d="M46.8218 48.1895C46.8218 48.1895 44.4638 60.7704 37.2101 95.8777C29.9493 130.976 18.562 127.486 18.562 127.486" fill="#F9A826"/>
<path d="M15.7654 130C15.7654 130 26.2254 127.123 55.7073 119.847C85.1821 112.572 87.4826 126.423 87.4826 126.423" fill="#F9A826"/>
<path d="M42.5659 90.9525C44.5213 84.23 46.3904 77.6198 48.3818 71.1393C48.6981 70.1197 49.5464 69.2383 50.215 69.0482C61.7676 65.7302 72.8962 60.1742 83.0038 49.0794C86.9075 44.7936 90.4516 39.7906 92.6227 32.2991C94.6859 25.1791 93.6507 17.7135 90.0347 13.0907C85.75 7.61251 80.8543 5.1067 75.7214 4.4068C71.3793 3.81059 66.994 3.50816 62.6375 3.83651C47.2819 5.00301 32.8968 12.3044 19.7697 27.0369C16.9229 30.234 14.4067 34.3038 12.7101 39.5487C11.7899 42.3829 11.1933 45.8046 10.9848 49.0708C10.69 53.6677 11.8834 57.5215 14.0832 59.9754C16.0602 62.1875 18.1234 64.1489 20.1938 66.0585C21.0278 66.8275 21.4447 67.7089 21.1931 69.4025C20.3017 75.3473 19.439 81.3094 18.4829 87.2197C18.3894 87.79 17.6202 88.5331 17.2895 88.3775C12.2213 86.0186 7.33279 82.8907 3.5442 75.909C-0.258761 68.9186 -1.02079 60.2951 1.36595 51.4211C3.83176 42.2533 7.82883 35.6258 12.3507 29.897C22.5015 17.0568 33.896 9.68629 45.8585 4.82155C53.9676 1.52943 62.1774 -0.302409 70.4807 0.0432211C78.5683 0.38021 86.6343 1.58991 93.9598 8.73581C95.944 10.6713 97.8491 13.1167 99.4953 15.899C103.5 22.656 104.226 30.5623 102.011 39.6697C99.7469 48.9844 95.7427 55.4736 91.3215 61.2802C82.3281 73.1007 72.1485 80.0997 61.5088 85.215C55.3335 88.1875 49.0575 90.1057 42.5587 90.9525H42.5659Z" fill="#F9A826"/>
</g>
<defs>
<clipPath id="clip0_55195_38314">
<rect width="103.241" height="130" fill="white"/>
</clipPath>
</defs>
</svg>
