<svg version="1.2" xmlns="http://www.w3.org/2000/svg" viewBox="0 0 160 160" width="160" height="160">
	<title>logo-sm</title>
	<style>
		.s0 { fill: #f9a826 } 
	</style>
	<path class="s0" d="m44.5 142.5c0 0 2.4-12.6 9.7-47.6 7.4-35.1 18.7-31.6 18.7-31.6m1.9-0.1c0 0-2.3 12.6-9.6 47.7-7.3 35.1-18.6 31.6-18.6 31.6m-2.8 2.5c0 0 10.4-2.9 39.9-10.2 29.5-7.2 31.8 6.6 31.8 6.6m-44.9-35.4c1.9-6.8 3.8-13.4 5.8-19.9 0.3-1 1.1-1.9 1.8-2.1 11.6-3.3 22.7-8.8 32.8-19.9 3.9-4.3 7.5-9.3 9.6-16.8 2.1-7.1 1.1-14.6-2.6-19.2-4.2-5.5-9.1-8-14.3-8.7-4.3-0.6-8.7-0.9-13.1-0.6-15.3 1.2-29.7 8.5-42.8 23.2-2.9 3.2-5.4 7.3-7.1 12.5-0.9 2.9-1.5 6.3-1.7 9.6-0.3 4.6 0.9 8.4 3.1 10.9 2 2.2 4 4.1 6.1 6.1 0.8 0.7 1.2 1.6 1 3.3-0.9 5.9-1.8 11.9-2.7 17.8-0.1 0.6-0.9 1.3-1.2 1.2-5.1-2.4-10-5.5-13.8-12.5-3.8-7-4.5-15.6-2.1-24.5 2.4-9.1 6.4-15.8 11-21.5 10.1-12.8 21.5-20.2 33.5-25.1 8.1-3.3 16.3-5.1 24.6-4.8 8.1 0.4 16.1 1.6 23.5 8.7 1.9 2 3.8 4.4 5.5 7.2 4 6.8 4.7 14.7 2.5 23.8-2.3 9.3-6.3 15.8-10.7 21.6-9 11.8-19.2 18.8-29.8 23.9-6.2 3-12.4 4.9-18.9 5.8z"/>
</svg>