<svg width="480" height="364" viewBox="0 0 480 364" fill="none" xmlns="http://www.w3.org/2000/svg">
<g clip-path="url(#clip0_54964_45159)">
<path d="M444.112 330.856C428.385 342.809 409.225 354.917 390.387 360.626C384.957 362.321 379.353 363.403 373.681 363.852C368.378 364.277 363.041 363.864 357.868 362.627C344.272 359.252 331.662 353.342 319.461 346.437C315.474 344.177 311.534 341.814 307.616 339.4C301.222 335.456 294.891 331.373 288.542 327.389C287.592 326.785 286.647 326.193 285.697 325.607H285.691C284.158 324.647 282.622 323.7 281.082 322.767C280.811 322.6 280.541 322.439 280.264 322.272C277.355 320.513 274.396 318.794 271.387 317.115C271.018 316.914 270.649 316.707 270.281 316.506C264.459 313.283 258.475 310.36 252.353 307.749C248.332 306.059 244.259 304.535 240.146 303.236H240.14C238.568 302.742 236.989 302.276 235.405 301.85C230.655 300.55 225.814 299.604 220.923 299.022C214.182 298.207 207.365 298.261 200.639 299.183C200.184 299.246 199.734 299.309 199.279 299.384C181.075 302.293 164.461 312.102 146.177 314.413C145.583 314.488 144.996 314.557 144.402 314.608C144.149 314.631 143.895 314.66 143.642 314.677C138.328 315.131 132.981 315 127.696 314.286C112.931 312.343 98.5523 306.312 85.6079 298.711C55.3465 280.94 30.8057 253.624 15.8853 221.991C13.3231 216.57 11.0483 211.018 9.07031 205.358C3.53993 189.664 0.494326 173.205 0.0431626 156.575C-1.3567 98.8737 31.497 40.983 83.0789 14.8865C134.667 -11.21 202.528 -2.58014 244.133 37.5104C269.371 61.8303 283.974 94.7859 302.967 124.229C321.961 153.665 348.956 181.786 383.774 186.075C401.511 188.26 420.072 184.034 437.072 189.53C446.486 192.577 454.516 198.407 460.985 205.835C465.335 210.876 468.975 216.486 471.804 222.509C473.878 226.863 475.561 231.392 476.833 236.043C477.069 236.899 477.288 237.756 477.501 238.613C485.97 273.132 472.438 309.319 444.112 330.856Z" fill="#F2F2F2"/>
<path d="M160.82 268.366H106.669C98.5561 268.366 91.9792 274.93 91.9792 283.027V283.027C91.9792 291.124 98.5561 297.688 106.669 297.688H160.82C168.933 297.688 175.51 291.124 175.51 283.027C175.51 274.93 168.933 268.366 160.82 268.366Z" fill="#3F3D56"/>
<path d="M144.402 290.213V314.608C138.84 315.145 133.234 315.037 127.696 314.286V290.213H144.402Z" fill="#3F3D56"/>
<path d="M200.639 299.183C200.184 299.246 199.734 299.309 199.279 299.384C181.075 302.293 164.461 312.101 146.176 314.413C145.583 314.487 144.996 314.556 144.402 314.608C144.149 314.631 143.895 314.66 143.642 314.677C139.177 310.313 134.713 305.668 130.519 300.856C128.243 298.251 126.043 295.595 123.974 292.904C118.605 285.959 114.054 278.818 111.047 271.804C111.353 268.441 109.256 260.662 108.253 254.705L108.248 254.699C107.821 252.198 107.591 250.025 107.804 248.628C109.025 240.567 115.621 241.493 117.649 233.593C119.478 232.078 121.426 230.711 123.473 229.506C123.813 229.304 124.159 229.103 124.516 228.902L146.522 213.724L154.933 221.957L167.733 234.49L181.605 248.065L169.83 259.937C169.83 259.937 179.67 271.258 191.174 286.35C194.262 290.403 197.47 294.732 200.639 299.183Z" fill="#2F2E41"/>
<path d="M390.387 290.213V360.626C384.957 362.321 379.353 363.403 373.681 363.852V290.213H390.387Z" fill="#3F3D56"/>
<path d="M411.99 284.464H357.839C349.726 284.464 343.149 291.028 343.149 299.125V299.125C343.149 307.222 349.726 313.786 357.839 313.786H411.99C420.103 313.786 426.68 307.222 426.68 299.125C426.68 291.028 420.103 284.464 411.99 284.464Z" fill="#3F3D56"/>
<path d="M280.264 322.272C277.355 320.513 274.396 318.794 271.387 317.115C271.018 316.914 270.649 316.707 270.281 316.505L272.262 315.66L277.608 313.366L277.66 313.343L277.718 313.539L280.264 322.272Z" fill="#FFB6B6"/>
<path d="M288.542 327.389C287.592 326.785 286.647 326.193 285.697 325.607H285.691C284.158 324.647 282.622 323.7 281.082 322.767C280.811 322.6 280.541 322.439 280.264 322.272C277.355 320.513 274.396 318.794 271.387 317.115C271.018 316.914 270.649 316.707 270.281 316.505C264.459 313.282 258.475 310.36 252.353 307.749C248.332 306.059 244.259 304.535 240.146 303.236H240.14L236.909 297.837L222.363 273.523L219.165 268.182C219.165 268.182 208.26 271.401 192.827 274.489C187.21 275.616 181 276.72 174.485 277.651C167.52 278.64 160.215 279.428 152.957 279.807C149.495 279.991 146.044 280.083 142.645 280.054C133.86 279.997 125.42 279.175 118.029 277.22C115.564 274.909 108.132 271.764 102.809 268.883H102.804C100.568 267.676 98.7135 266.52 97.7399 265.491C92.129 259.569 96.9219 254.952 91.9331 248.49C91.8659 246.119 91.9873 243.747 92.296 241.395C92.3479 241.004 92.3997 240.608 92.4631 240.205L94.0358 213.551L105.719 212.01L123.496 209.664L142.755 207.123L144.875 223.693C144.875 223.693 159.87 222.934 178.869 223.187C209.384 223.601 250.216 226.637 255.746 239.665C256.265 240.889 256.783 242.126 257.302 243.362C258.535 246.317 259.756 249.287 260.966 252.273C265.35 263.082 269.532 273.994 273.351 284.309C275.725 290.725 277.96 296.911 280.016 302.701C281.67 307.358 283.202 311.762 284.602 315.816C285.881 319.518 287.039 322.928 288.07 325.986C288.231 326.463 288.387 326.935 288.542 327.389Z" fill="#2F2E41"/>
<path d="M181.072 165.896L144.171 134.618L168.179 110.369L184.929 137.749L247.015 150.034C248.882 148.632 251.117 147.802 253.448 147.646C255.779 147.49 258.106 148.014 260.144 149.154C262.182 150.295 263.843 152.003 264.925 154.069C266.008 156.136 266.464 158.472 266.239 160.793C266.014 163.114 265.117 165.32 263.658 167.141C262.198 168.962 260.239 170.32 258.02 171.049C255.801 171.778 253.417 171.847 251.159 171.248C248.901 170.648 246.867 169.406 245.304 167.672L181.072 165.896Z" fill="#A0616A"/>
<path d="M111.559 93.5121C107.295 107.358 147.909 140.381 147.909 140.381C148.361 137.057 171.388 165.721 172.955 163.125C177.407 155.747 182.306 137.51 187.447 135.179C190.386 133.846 173.523 115.319 173.523 115.319C173.523 115.319 164.92 103.96 153.562 89.565C150.427 85.4357 146.296 82.1652 141.553 80.0581C136.811 77.951 131.611 77.0756 126.438 77.5135C126.438 77.5135 115.824 79.6661 111.559 93.5121Z" fill="#3F3D56"/>
<path d="M129.517 62.8599C143.301 62.8599 154.475 51.7079 154.475 37.9512C154.475 24.1945 143.301 13.0425 129.517 13.0425C115.733 13.0425 104.559 24.1945 104.559 37.9512C104.559 51.7079 115.733 62.8599 129.517 62.8599Z" fill="#A0616A"/>
<path d="M141.996 79.3228C147.372 82.5131 150.589 88.3748 152.435 94.3395C155.854 105.383 157.911 116.8 158.563 128.34L160.513 162.887L184.666 236.449C163.733 254.127 85.051 240.467 85.051 240.467C85.051 240.467 82.6358 239.664 85.051 237.253C87.4663 234.842 89.8176 236.978 87.4024 234.567C84.9871 232.157 86.6521 234.842 87.4572 232.432C88.2623 230.021 87.4572 231.628 86.6521 230.825C85.847 230.021 92.8848 222.79 92.8848 222.79L86.444 180.565L78.3931 95.3929C88.0543 83.3403 107.484 76.2354 107.484 76.2354L112.505 67.2165L137.607 69.2207L141.996 79.3228Z" fill="#3F3D56"/>
<path d="M150.091 24.7176C152.03 26.1616 153.467 28.1763 154.2 30.4783C154.481 26.7164 154.499 22.9396 154.253 19.1753C153.959 16.5301 152.093 15.9351 149.932 15.2456C147.981 14.6228 145.774 13.9191 145.18 11.3513C137.335 3.7342 123.678 4.1183 114.331 6.77524C109.188 8.23731 106.229 10.1158 105.964 11.2162L105.909 11.4427L105.701 11.5469C101.736 13.5252 100.964 19.7722 101.015 24.6643C101.112 33.8814 104.301 44.3497 106.097 45.2001C106.192 45.2451 106.216 45.2274 106.257 45.1932C108.962 43.0358 112.262 45.3572 113.713 46.6191C114.568 40.8905 117.322 35.6132 121.535 31.6301C125.748 27.647 131.177 25.1878 136.955 24.6453C138.842 24.4633 140.714 24.15 142.557 23.7078C143.492 23.4664 144.453 23.3405 145.419 23.333C147.081 23.3078 148.711 23.791 150.091 24.7176Z" fill="#2F2E41"/>
<path d="M118.642 203.424L111.008 199.521C110.599 199.23 110.308 198.802 110.189 198.315C110.07 197.828 110.131 197.315 110.36 196.869C110.589 196.422 110.971 196.073 111.436 195.885C111.902 195.697 112.42 195.682 112.895 195.843L120.53 199.746C120.939 200.036 121.229 200.465 121.348 200.952C121.467 201.439 121.407 201.952 121.178 202.398C120.949 202.844 120.567 203.193 120.101 203.382C119.636 203.57 119.118 203.585 118.642 203.424Z" fill="#F9A826"/>
<path d="M92.9477 192.969L80.3886 146.305L113.95 139.965L112.145 171.994L156.242 217.31C158.577 217.215 160.889 217.799 162.896 218.993C164.903 220.186 166.519 221.937 167.547 224.031C168.575 226.125 168.97 228.472 168.684 230.787C168.398 233.101 167.443 235.282 165.937 237.065C164.43 238.847 162.436 240.153 160.199 240.824C157.961 241.495 155.576 241.502 153.335 240.844C151.093 240.185 149.092 238.89 147.575 237.116C146.059 235.343 145.092 233.167 144.793 230.854L92.9477 192.969Z" fill="#A0616A"/>
<path d="M76.9542 93.986C65.5623 102.962 80.1839 153.168 80.1839 153.168C82.4477 150.688 85.0783 187.333 87.8454 186.085C95.7096 182.539 110.124 170.31 115.681 171.307C118.859 171.877 115.529 147.068 115.529 147.068C115.529 147.068 114.917 132.843 113.766 114.556C113.537 109.38 111.999 104.346 109.296 99.9231C106.593 95.4998 102.812 91.831 98.3064 89.2581C98.3064 89.2581 88.3462 85.0104 76.9542 93.986Z" fill="#3F3D56"/>
<path d="M471.804 222.509L15.8852 221.991C13.323 216.57 11.0482 211.018 9.07019 205.358L460.985 205.835C465.335 210.876 468.974 216.486 471.804 222.509Z" fill="#3F3D56"/>
<path d="M326.592 343.142C324.236 344.281 321.859 345.379 319.46 346.437C315.474 344.177 311.534 341.814 307.616 339.4L322.145 333.029L326.592 343.142Z" fill="#FFB6B6"/>
<path d="M432.521 263.916C430.159 267.078 427.723 270.177 425.211 273.213C422.895 276.012 420.518 278.759 418.079 281.451C417.071 282.567 416.051 283.676 415.009 284.775C413.09 286.827 411.13 288.845 409.127 290.829C405.521 291.961 398.216 293.956 390.387 295.819C384.69 297.17 378.716 298.452 373.681 299.269C370.862 299.774 368.011 300.077 365.149 300.177C361.75 300.206 358.3 300.114 354.837 299.93C350.931 299.723 347.02 299.401 343.154 298.987C333.102 297.935 323.366 296.296 314.967 294.612C311.891 294.002 308.999 293.381 306.337 292.778C301.297 291.645 297.08 290.587 294.027 289.782C290.587 288.885 288.629 288.305 288.629 288.305L280.016 302.701L275.546 310.17L272.262 315.66L271.387 317.115C271.018 316.914 270.649 316.707 270.281 316.505C264.459 313.283 258.475 310.36 252.353 307.749C248.332 306.059 244.259 304.535 240.146 303.236H240.14C238.568 302.741 236.989 302.276 235.405 301.85C235.901 300.522 236.402 299.184 236.909 297.837C237.853 295.325 238.817 292.789 239.801 290.231C241.926 284.688 244.127 279.065 246.391 273.471C248.246 268.877 250.135 264.301 252.048 259.788C252.929 257.706 254.721 255.878 257.227 254.274C258.425 253.52 259.674 252.852 260.966 252.273C268.138 249.013 278.703 246.892 290.346 245.529C291.308 245.42 292.275 245.311 293.249 245.207C302.887 244.195 313.112 243.672 322.675 243.431C327.462 243.31 332.082 243.264 336.38 243.258C337.768 243.258 339.118 243.262 340.43 243.27H340.435C343.978 243.287 347.239 243.339 350.108 243.396C350.667 243.408 351.208 243.425 351.738 243.436H351.744C352.101 243.442 352.452 243.454 352.798 243.459C359.072 243.62 362.92 243.816 362.92 243.816L364.412 232.133L364.717 229.776L365.005 227.534V227.528L365.04 227.246L365.276 227.24L369.424 227.16L404.288 226.481L423.333 226.108L420.314 239.021L415.331 260.328C415.838 263.697 432.694 261.058 432.521 263.916Z" fill="#2F2E41"/>
<path d="M330.89 341.015C329.467 341.74 328.032 342.452 326.592 343.142C324.236 344.281 321.859 345.379 319.46 346.437C315.474 344.177 311.534 341.814 307.616 339.4C301.222 335.455 294.891 331.373 288.542 327.389C287.592 326.785 286.647 326.193 285.697 325.607H285.691C283.075 321.732 280.408 317.696 277.718 313.539C277.678 313.481 277.643 313.424 277.608 313.366C276.917 312.308 276.23 311.243 275.546 310.17C271.243 303.443 266.916 296.429 262.717 289.265L273.351 284.309L293.122 275.098L296.533 273.512L306.337 292.778L315.082 309.963L317.029 313.786L330.89 341.015Z" fill="#2F2E41"/>
<path d="M333.87 248.517L384.277 200.002L398.248 160.521L377.64 151.578C367.055 161.697 355.613 193.217 355.613 193.217L320.925 237.26C320.655 237.353 320.386 237.451 320.119 237.568C318.557 238.256 317.199 239.334 316.176 240.698C315.153 242.063 314.5 243.668 314.281 245.358C314.061 247.047 314.281 248.765 314.921 250.345C315.561 251.925 316.599 253.314 317.933 254.377C319.268 255.439 320.855 256.141 322.541 256.413C324.226 256.685 325.954 256.518 327.556 255.929C329.158 255.34 330.581 254.348 331.687 253.05C332.793 251.752 333.545 250.19 333.87 248.517Z" fill="#FFB8B8"/>
<path d="M371.841 155.986L397.981 164.268L398.079 164.252C407.809 162.625 415.882 146.766 420.941 133.749C422.605 129.455 422.574 124.691 420.854 120.419C419.133 116.147 415.852 112.687 411.673 110.737C408.581 109.32 405.153 108.794 401.776 109.219C398.4 109.644 395.21 111.003 392.567 113.143L379.145 124.089L371.841 155.986Z" fill="#F9A826"/>
<path d="M432.416 264.498L432.569 264.296C440.725 253.5 429.57 226.767 427.884 222.89L435.467 220.648L434.145 206.238L433.509 199.813L439.405 194.224L439.425 194.082L443.479 165.282L448.785 146.22C450.785 139.014 450.827 131.407 448.908 124.179C446.988 116.951 443.176 110.363 437.862 105.092L427.016 94.3447L414.022 74.0457L392.235 73.4843L384.401 87.3742C377.115 88.8582 370.582 92.8461 365.939 98.6431C361.297 104.44 358.839 111.679 358.994 119.099L359.732 156.076L351.914 201.891L351.695 210.214L344.022 218.295L345.44 226.464L339.701 228.746L336.892 240.355C335.82 241.694 328.737 250.629 328.673 253.12C328.663 253.494 328.93 253.862 329.514 254.279C334.098 257.552 359.722 264.645 371.254 260.381C383.538 255.842 431.681 264.366 432.166 264.453L432.416 264.498Z" fill="#F9A826"/>
<path d="M401.226 67.2616C417.167 67.2616 430.089 54.3645 430.089 38.4551C430.089 22.5456 417.167 9.64851 401.226 9.64851C385.285 9.64851 372.362 22.5456 372.362 38.4551C372.362 54.3645 385.285 67.2616 401.226 67.2616Z" fill="#FFB8B8"/>
<path d="M397.705 67.647C402.174 67.7166 406.642 67.405 411.058 66.7156C415.436 65.8272 425.23 58.6646 427.96 54.3545C429.988 51.1522 431.285 46.1515 432.016 42.5206C433.001 37.7157 432.963 32.758 431.906 27.9686C430.849 23.1791 428.795 18.6647 425.879 14.7176C424.758 13.0666 423.211 11.7487 421.401 10.9032C421.241 10.8406 421.075 10.7852 420.909 10.7377C418.271 10.0452 415.902 8.58188 414.104 6.53556C413.756 6.12167 413.377 5.73337 412.973 5.37368C410.941 3.66231 408.532 2.45515 405.943 1.85087C401.764 0.734677 395.717 1.84265 387.969 5.14719C384.076 6.80746 379.819 6.2066 376.544 5.49759C376.36 5.46218 376.17 5.47539 375.993 5.53591C375.816 5.59643 375.658 5.70215 375.535 5.84256C374.141 7.14808 372.305 7.87885 370.393 7.888C369.223 7.9393 367.995 9.55691 366.51 11.6663C366.173 12.1452 365.78 12.704 365.497 13.0439L365.459 12.3909L364.797 13.1194C363.756 14.2644 363.022 15.6537 362.664 17.1578C362.306 18.6619 362.335 20.232 362.749 21.7218C363.163 23.2117 363.947 24.5728 365.03 25.6785C366.113 26.7842 367.458 27.5984 368.941 28.0455C370.119 28.3581 371.325 28.55 372.542 28.6181C373.278 28.6843 374.041 28.7527 374.771 28.8792C377.116 29.3584 379.296 30.436 381.098 32.007C382.901 33.578 384.264 35.5886 385.056 37.8426C385.243 38.3636 385.548 38.8347 385.946 39.2196C386.345 39.6044 386.827 39.8927 387.354 40.0622C387.882 40.2317 388.442 40.2778 388.991 40.197C389.54 40.1163 390.062 39.9107 390.519 39.5963C391.28 39.005 392.173 38.6061 393.121 38.4336C394.07 38.2612 395.047 38.3203 395.968 38.6061C396.764 39.0477 397.383 39.7491 397.722 40.5925C398.135 41.5321 398.818 42.3279 399.686 42.8782C402.652 44.4047 402.857 51.1672 401.791 56.8045C400.764 62.2384 398.734 66.1693 396.854 66.3637C395.407 66.5131 395.242 66.6157 395.137 66.8711L395.043 67.0997L395.206 67.3136C396.005 67.6028 396.857 67.7165 397.705 67.647Z" fill="#2F2E41"/>
<path d="M379.009 147.277L367.88 125.132C351.726 126.234 319.665 144.874 319.665 144.874L259.005 157.71C257.208 157.021 255.261 156.816 253.359 157.116C251.458 157.417 249.669 158.212 248.173 159.422C246.678 160.631 245.527 162.213 244.839 164.007C244.15 165.801 243.947 167.745 244.251 169.642C244.554 171.54 245.353 173.324 246.567 174.815C247.78 176.307 249.367 177.453 251.165 178.138C252.964 178.823 254.912 179.023 256.812 178.718C258.713 178.413 260.5 177.614 261.993 176.4L339.156 170.88L379.009 147.277Z" fill="#FFB8B8"/>
<path d="M374.52 150.913L403.585 129.355L408.705 110.942C409.697 107.323 409.655 103.5 408.584 99.9039C407.513 96.3079 405.455 93.0825 402.644 90.5923C398.81 87.2422 393.845 85.47 388.752 85.634C383.659 85.798 378.818 87.886 375.209 91.4757C364.271 102.372 351.796 117.572 354.476 128.113L354.503 128.22L374.52 150.913Z" fill="#F9A826"/>
<path d="M338.54 208.572H260.77V218.921H338.54V208.572Z" fill="white"/>
<path d="M139.794 208.572H62.0232V218.921H139.794V208.572Z" fill="white"/>
<path d="M148.875 158.804V208.079C148.875 208.707 149.125 209.309 149.57 209.753C150.015 210.197 150.619 210.447 151.248 210.447H224.412C225.041 210.447 225.644 210.197 226.089 209.753C226.534 209.309 226.784 208.707 226.785 208.079V158.804C226.783 158.177 226.533 157.576 226.088 157.132C225.643 156.689 225.041 156.439 224.412 156.439H151.248C150.619 156.439 150.016 156.689 149.572 157.132C149.127 157.576 148.876 158.177 148.875 158.804Z" fill="#3F3D56"/>
<path d="M150.591 159.417V207.471C150.592 207.807 150.726 208.128 150.963 208.365C151.201 208.603 151.523 208.736 151.859 208.737H223.803C224.139 208.736 224.461 208.603 224.699 208.365C224.937 208.128 225.071 207.807 225.071 207.471V159.417C225.071 159.081 224.938 158.759 224.7 158.521C224.462 158.284 224.14 158.15 223.803 158.149H151.859C151.523 158.15 151.2 158.284 150.963 158.521C150.725 158.759 150.591 159.081 150.591 159.417Z" fill="#F9A826"/>
<path d="M147.345 217.689C147.479 217.856 147.649 217.992 147.843 218.084C148.037 218.177 148.249 218.224 148.464 218.223H226.806C227.02 218.223 227.232 218.175 227.425 218.083C227.619 217.991 227.789 217.857 227.924 217.691C228.059 217.525 228.155 217.331 228.205 217.123C228.256 216.915 228.259 216.699 228.215 216.489L226.999 210.724C226.949 210.489 226.84 210.271 226.683 210.088C226.527 209.905 226.327 209.765 226.102 209.679C225.939 209.615 225.765 209.583 225.59 209.583H149.676C149.5 209.583 149.327 209.615 149.164 209.679C148.939 209.765 148.739 209.905 148.582 210.088C148.425 210.271 148.317 210.489 148.266 210.724L147.05 216.489C147.007 216.699 147.011 216.915 147.062 217.122C147.113 217.33 147.209 217.523 147.345 217.689Z" fill="#2F2E41"/>
<path d="M222.902 212.066H224.752C224.908 212.066 225.034 211.94 225.034 211.785V210.902C225.034 210.747 224.908 210.621 224.752 210.621H222.902C222.747 210.621 222.621 210.747 222.621 210.902V211.785C222.621 211.94 222.747 212.066 222.902 212.066Z" fill="#3F3D56"/>
<path d="M218.076 212.066H219.927C220.082 212.066 220.208 211.94 220.208 211.785V210.902C220.208 210.747 220.082 210.621 219.927 210.621H218.076C217.921 210.621 217.795 210.747 217.795 210.902V211.785C217.795 211.94 217.921 212.066 218.076 212.066Z" fill="#3F3D56"/>
<path d="M213.25 212.066H215.101C215.256 212.066 215.382 211.94 215.382 211.785V210.902C215.382 210.747 215.256 210.621 215.101 210.621H213.25C213.095 210.621 212.969 210.747 212.969 210.902V211.785C212.969 211.94 213.095 212.066 213.25 212.066Z" fill="#3F3D56"/>
<path d="M208.424 212.066H210.275C210.43 212.066 210.556 211.94 210.556 211.785V210.902C210.556 210.747 210.43 210.621 210.275 210.621H208.424C208.269 210.621 208.143 210.747 208.143 210.902V211.785C208.143 211.94 208.269 212.066 208.424 212.066Z" fill="#3F3D56"/>
<path d="M203.599 212.066H205.449C205.604 212.066 205.73 211.94 205.73 211.785V210.902C205.73 210.747 205.604 210.621 205.449 210.621H203.599C203.443 210.621 203.317 210.747 203.317 210.902V211.785C203.317 211.94 203.443 212.066 203.599 212.066Z" fill="#3F3D56"/>
<path d="M198.773 212.066H200.623C200.779 212.066 200.905 211.94 200.905 211.785V210.902C200.905 210.747 200.779 210.621 200.623 210.621H198.773C198.618 210.621 198.492 210.747 198.492 210.902V211.785C198.492 211.94 198.618 212.066 198.773 212.066Z" fill="#3F3D56"/>
<path d="M193.947 212.066H195.798C195.953 212.066 196.079 211.94 196.079 211.785V210.902C196.079 210.747 195.953 210.621 195.798 210.621H193.947C193.792 210.621 193.666 210.747 193.666 210.902V211.785C193.666 211.94 193.792 212.066 193.947 212.066Z" fill="#3F3D56"/>
<path d="M189.121 212.066H190.972C191.127 212.066 191.253 211.94 191.253 211.785V210.902C191.253 210.747 191.127 210.621 190.972 210.621H189.121C188.966 210.621 188.84 210.747 188.84 210.902V211.785C188.84 211.94 188.966 212.066 189.121 212.066Z" fill="#3F3D56"/>
<path d="M184.296 212.066H186.146C186.301 212.066 186.427 211.94 186.427 211.785V210.902C186.427 210.747 186.301 210.621 186.146 210.621H184.296C184.14 210.621 184.014 210.747 184.014 210.902V211.785C184.014 211.94 184.14 212.066 184.296 212.066Z" fill="#3F3D56"/>
<path d="M179.47 212.066H181.32C181.476 212.066 181.601 211.94 181.601 211.785V210.902C181.601 210.747 181.476 210.621 181.32 210.621H179.47C179.314 210.621 179.189 210.747 179.189 210.902V211.785C179.189 211.94 179.314 212.066 179.47 212.066Z" fill="#3F3D56"/>
<path d="M174.644 212.066H176.494C176.65 212.066 176.776 211.94 176.776 211.785V210.902C176.776 210.747 176.65 210.621 176.494 210.621H174.644C174.489 210.621 174.363 210.747 174.363 210.902V211.785C174.363 211.94 174.489 212.066 174.644 212.066Z" fill="#3F3D56"/>
<path d="M169.818 212.066H171.669C171.824 212.066 171.95 211.94 171.95 211.785V210.902C171.95 210.747 171.824 210.621 171.669 210.621H169.818C169.663 210.621 169.537 210.747 169.537 210.902V211.785C169.537 211.94 169.663 212.066 169.818 212.066Z" fill="#3F3D56"/>
<path d="M164.992 212.066H166.843C166.998 212.066 167.124 211.94 167.124 211.785V210.902C167.124 210.747 166.998 210.621 166.843 210.621H164.992C164.837 210.621 164.711 210.747 164.711 210.902V211.785C164.711 211.94 164.837 212.066 164.992 212.066Z" fill="#3F3D56"/>
<path d="M160.167 212.066H162.017C162.172 212.066 162.298 211.94 162.298 211.785V210.902C162.298 210.747 162.172 210.621 162.017 210.621H160.167C160.011 210.621 159.885 210.747 159.885 210.902V211.785C159.885 211.94 160.011 212.066 160.167 212.066Z" fill="#3F3D56"/>
<path d="M155.341 212.066H157.191C157.347 212.066 157.473 211.94 157.473 211.785V210.902C157.473 210.747 157.347 210.621 157.191 210.621H155.341C155.186 210.621 155.06 210.747 155.06 210.902V211.785C155.06 211.94 155.186 212.066 155.341 212.066Z" fill="#3F3D56"/>
<path d="M150.515 212.066H152.365C152.521 212.066 152.647 211.94 152.647 211.785V210.902C152.647 210.747 152.521 210.621 152.365 210.621H150.515C150.36 210.621 150.234 210.747 150.234 210.902V211.785C150.234 211.94 150.36 212.066 150.515 212.066Z" fill="#3F3D56"/>
<path d="M222.959 214.474H224.809C224.965 214.474 225.091 214.349 225.091 214.194V213.31C225.091 213.155 224.965 213.029 224.809 213.029H222.959C222.804 213.029 222.678 213.155 222.678 213.31V214.194C222.678 214.349 222.804 214.474 222.959 214.474Z" fill="#3F3D56"/>
<path d="M218.133 214.474H219.984C220.139 214.474 220.265 214.349 220.265 214.194V213.31C220.265 213.155 220.139 213.029 219.984 213.029H218.133C217.978 213.029 217.852 213.155 217.852 213.31V214.194C217.852 214.349 217.978 214.474 218.133 214.474Z" fill="#3F3D56"/>
<path d="M213.307 214.474H215.158C215.313 214.474 215.439 214.349 215.439 214.194V213.31C215.439 213.155 215.313 213.029 215.158 213.029H213.307C213.152 213.029 213.026 213.155 213.026 213.31V214.194C213.026 214.349 213.152 214.474 213.307 214.474Z" fill="#3F3D56"/>
<path d="M208.482 214.474H210.332C210.487 214.474 210.613 214.349 210.613 214.194V213.31C210.613 213.155 210.487 213.029 210.332 213.029H208.482C208.326 213.029 208.2 213.155 208.2 213.31V214.194C208.2 214.349 208.326 214.474 208.482 214.474Z" fill="#3F3D56"/>
<path d="M203.656 214.474H205.506C205.661 214.474 205.787 214.349 205.787 214.194V213.31C205.787 213.155 205.661 213.029 205.506 213.029H203.656C203.5 213.029 203.374 213.155 203.374 213.31V214.194C203.374 214.349 203.5 214.474 203.656 214.474Z" fill="#3F3D56"/>
<path d="M198.83 214.474H200.68C200.836 214.474 200.962 214.349 200.962 214.194V213.31C200.962 213.155 200.836 213.029 200.68 213.029H198.83C198.675 213.029 198.549 213.155 198.549 213.31V214.194C198.549 214.349 198.675 214.474 198.83 214.474Z" fill="#3F3D56"/>
<path d="M194.004 214.474H195.855C196.01 214.474 196.136 214.349 196.136 214.194V213.31C196.136 213.155 196.01 213.029 195.855 213.029H194.004C193.849 213.029 193.723 213.155 193.723 213.31V214.194C193.723 214.349 193.849 214.474 194.004 214.474Z" fill="#3F3D56"/>
<path d="M189.178 214.474H191.029C191.184 214.474 191.31 214.349 191.31 214.194V213.31C191.31 213.155 191.184 213.029 191.029 213.029H189.178C189.023 213.029 188.897 213.155 188.897 213.31V214.194C188.897 214.349 189.023 214.474 189.178 214.474Z" fill="#3F3D56"/>
<path d="M184.353 214.474H186.203C186.358 214.474 186.484 214.349 186.484 214.194V213.31C186.484 213.155 186.358 213.029 186.203 213.029H184.353C184.197 213.029 184.071 213.155 184.071 213.31V214.194C184.071 214.349 184.197 214.474 184.353 214.474Z" fill="#3F3D56"/>
<path d="M179.527 214.474H181.377C181.533 214.474 181.658 214.349 181.658 214.194V213.31C181.658 213.155 181.533 213.029 181.377 213.029H179.527C179.372 213.029 179.246 213.155 179.246 213.31V214.194C179.246 214.349 179.372 214.474 179.527 214.474Z" fill="#3F3D56"/>
<path d="M174.701 214.474H176.551C176.707 214.474 176.833 214.349 176.833 214.194V213.31C176.833 213.155 176.707 213.029 176.551 213.029H174.701C174.546 213.029 174.42 213.155 174.42 213.31V214.194C174.42 214.349 174.546 214.474 174.701 214.474Z" fill="#3F3D56"/>
<path d="M169.875 214.474H171.726C171.881 214.474 172.007 214.349 172.007 214.194V213.31C172.007 213.155 171.881 213.029 171.726 213.029H169.875C169.72 213.029 169.594 213.155 169.594 213.31V214.194C169.594 214.349 169.72 214.474 169.875 214.474Z" fill="#3F3D56"/>
<path d="M165.049 214.474H166.9C167.055 214.474 167.181 214.349 167.181 214.194V213.31C167.181 213.155 167.055 213.029 166.9 213.029H165.049C164.894 213.029 164.768 213.155 164.768 213.31V214.194C164.768 214.349 164.894 214.474 165.049 214.474Z" fill="#3F3D56"/>
<path d="M160.224 214.474H162.074C162.229 214.474 162.355 214.349 162.355 214.194V213.31C162.355 213.155 162.229 213.029 162.074 213.029H160.224C160.068 213.029 159.942 213.155 159.942 213.31V214.194C159.942 214.349 160.068 214.474 160.224 214.474Z" fill="#3F3D56"/>
<path d="M155.398 214.474H157.248C157.404 214.474 157.53 214.349 157.53 214.194V213.31C157.53 213.155 157.404 213.029 157.248 213.029H155.398C155.243 213.029 155.117 213.155 155.117 213.31V214.194C155.117 214.349 155.243 214.474 155.398 214.474Z" fill="#3F3D56"/>
<path d="M150.572 214.474H152.423C152.578 214.474 152.704 214.349 152.704 214.194V213.31C152.704 213.155 152.578 213.029 152.423 213.029H150.572C150.417 213.029 150.291 213.155 150.291 213.31V214.194C150.291 214.349 150.417 214.474 150.572 214.474Z" fill="#3F3D56"/>
<path d="M182.905 217.364H201.646C201.801 217.364 201.927 217.238 201.927 217.083V216.2C201.927 216.045 201.801 215.919 201.646 215.919H182.905C182.75 215.919 182.624 216.045 182.624 216.2V217.083C182.624 217.238 182.75 217.364 182.905 217.364Z" fill="#3F3D56"/>
</g>
<defs>
<clipPath id="clip0_54964_45159">
<rect width="480" height="364" fill="white"/>
</clipPath>
</defs>
</svg>
