<svg width="480" height="301" viewBox="0 0 480 301" fill="none" xmlns="http://www.w3.org/2000/svg">
<g clip-path="url(#clip0_55247_3268)">
<path d="M0 299.07C0 299.532 0.371045 299.903 0.833096 299.903H479.167C479.629 299.903 480 299.532 480 299.07C480 298.608 479.629 298.237 479.167 298.237H0.833096C0.371045 298.237 0 298.608 0 299.07Z" fill="#3F3D56"/>
<path d="M198.46 299.693H48.9448C42.9739 299.693 38.1163 294.835 38.1163 288.864V10.889C38.1163 4.91786 42.9739 0.0600586 48.9448 0.0600586H198.46C204.431 0.0600586 209.289 4.91786 209.289 10.889V288.864C209.289 294.835 204.431 299.693 198.46 299.693ZM48.9448 1.46021C43.746 1.46021 39.5164 5.69007 39.5164 10.889V288.864C39.5164 294.063 43.746 298.293 48.9448 298.293H198.46C203.659 298.293 207.889 294.063 207.889 288.864V10.889C207.889 5.69007 203.659 1.46021 198.46 1.46021H48.9448Z" fill="#3F3D56"/>
<path d="M466.604 141.41C466.013 140.414 463.456 141.481 462.986 140.576C462.517 139.675 464.893 138.302 466.25 135.165C466.495 134.599 468.038 131.034 466.896 129.934C464.731 127.849 454.827 136.454 451.361 133.638C450.6 133.02 450.069 131.786 447.767 129.783C446.851 128.986 446.297 128.627 445.761 128.761C445.001 128.95 444.941 129.968 444.125 131.97C442.902 134.971 442.179 134.79 441.466 137.185C440.937 138.962 441.058 139.996 440.436 140.197C439.555 140.482 438.744 138.596 437.628 138.765C436.489 138.938 435.8 141.133 435.582 142.777C435.174 145.861 436.307 147.897 436.935 150.037C437.617 152.363 438.022 155.9 436.446 160.907L420.851 204.849C424.294 195.832 434.263 171.115 438.452 161.93C439.661 159.279 440.996 156.589 443.738 155.528C446.377 154.506 450.002 155.116 454.624 154.003C455.164 153.873 456.661 153.491 456.85 152.61C457.006 151.882 456.125 151.476 456.26 150.793C456.442 149.878 458.174 149.867 460.303 148.812C461.804 148.067 462.74 147.182 463.544 146.421C463.786 146.191 467.391 142.737 466.604 141.41Z" fill="#F2F2F2"/>
<path d="M405.248 164.543C404.589 164.545 404.375 166.108 403.795 166.078C403.218 166.048 403.229 164.485 402.081 162.914C401.874 162.631 400.57 160.845 399.7 161.088C398.052 161.549 399.418 168.893 397.036 169.782C396.513 169.977 395.754 169.881 394.107 170.434C393.452 170.653 393.115 170.821 393.026 171.123C392.9 171.551 393.382 171.874 394.129 172.852C395.249 174.318 394.952 174.621 395.921 175.662C396.641 176.434 397.183 176.673 397.103 177.037C396.988 177.551 395.829 177.405 395.59 178.002C395.346 178.611 396.224 179.582 396.968 180.163C398.364 181.253 399.69 181.285 400.922 181.594C402.26 181.93 404.113 182.752 406.116 184.97L423.182 205.303C419.75 201.012 410.496 188.987 407.197 184.281C406.244 182.922 405.309 181.491 405.58 179.839C405.84 178.249 407.185 176.646 407.972 174.056C408.064 173.754 408.309 172.908 407.931 172.562C407.619 172.275 407.165 172.59 406.869 172.327C406.472 171.974 406.967 171.12 407.063 169.771C407.131 168.819 406.966 168.105 406.824 167.49C406.782 167.305 406.126 164.539 405.248 164.543Z" fill="#F2F2F2"/>
<path d="M418.409 167.496L418.011 163.948L418.193 163.68C419.033 162.436 419.462 161.221 419.467 160.068C419.468 159.885 419.459 159.702 419.451 159.515C419.416 158.775 419.373 157.855 419.853 156.782C420.122 156.184 420.878 154.8 422.013 154.972C422.319 155.014 422.55 155.155 422.726 155.319C422.752 155.278 422.778 155.237 422.807 155.193C423.16 154.653 423.44 154.422 423.71 154.199C423.918 154.028 424.132 153.851 424.467 153.433C424.615 153.25 424.73 153.089 424.826 152.953C425.12 152.544 425.504 152.056 426.181 152.064C426.904 152.099 427.282 152.696 427.533 153.092C427.981 153.798 428.184 154.307 428.319 154.644C428.367 154.768 428.423 154.906 428.451 154.949C428.684 155.292 430.578 154.972 431.292 154.855C432.894 154.588 434.281 154.357 434.853 155.367C435.262 156.09 434.958 157.046 433.922 158.285C433.599 158.67 433.255 158.963 432.95 159.193C433.203 159.344 433.429 159.575 433.521 159.938C433.737 160.798 432.997 161.66 431.324 162.503C430.909 162.713 430.35 162.994 429.566 163.13C429.197 163.193 428.864 163.208 428.58 163.217C428.574 163.381 428.535 163.56 428.435 163.743C428.141 164.283 427.53 164.54 426.608 164.478C425.594 164.425 424.759 164.231 424.022 164.062C423.379 163.914 422.825 163.789 422.39 163.818C421.583 163.883 420.961 164.529 420.231 165.367L418.409 167.496Z" fill="#F2F2F2"/>
<path d="M420.253 146.371L416.921 147.655L416.615 147.548C415.199 147.051 413.915 146.944 412.799 147.232C412.621 147.277 412.446 147.332 412.268 147.388C411.561 147.609 410.682 147.884 409.523 147.692C408.876 147.583 407.345 147.203 407.223 146.061C407.187 145.755 407.264 145.495 407.379 145.284C407.332 145.269 407.286 145.254 407.236 145.238C406.624 145.033 406.329 144.82 406.045 144.616C405.827 144.459 405.602 144.296 405.112 144.078C404.898 143.982 404.713 143.911 404.557 143.852C404.087 143.672 403.517 143.424 403.354 142.768C403.204 142.06 403.686 141.542 404.005 141.199C404.574 140.586 405.015 140.261 405.307 140.045C405.414 139.967 405.534 139.878 405.568 139.839C405.841 139.527 405.05 137.776 404.757 137.116C404.092 135.633 403.516 134.351 404.349 133.542C404.945 132.962 405.946 133.014 407.407 133.702C407.862 133.917 408.233 134.175 408.532 134.411C408.614 134.129 408.78 133.851 409.108 133.671C409.885 133.244 410.906 133.74 412.146 135.145C412.455 135.493 412.869 135.963 413.199 136.687C413.353 137.028 413.453 137.345 413.533 137.618C413.694 137.582 413.876 137.574 414.079 137.625C414.675 137.772 415.079 138.298 415.253 139.206C415.459 140.2 415.483 141.057 415.506 141.813C415.527 142.472 415.546 143.04 415.685 143.454C415.953 144.218 416.735 144.655 417.731 145.149L420.253 146.371Z" fill="#F2F2F2"/>
<path d="M418.409 135.918L418.011 132.37L418.193 132.101C419.033 130.857 419.462 129.643 419.467 128.49C419.468 128.307 419.459 128.123 419.451 127.936C419.416 127.196 419.373 126.276 419.853 125.204C420.122 124.606 420.878 123.222 422.013 123.393C422.319 123.436 422.55 123.576 422.726 123.741C422.752 123.7 422.778 123.659 422.807 123.614C423.16 123.075 423.44 122.843 423.71 122.621C423.918 122.449 424.132 122.273 424.467 121.855C424.615 121.671 424.73 121.51 424.826 121.375C425.12 120.966 425.504 120.477 426.181 120.486C426.904 120.52 427.282 121.118 427.533 121.514C427.981 122.22 428.184 122.728 428.319 123.066C428.367 123.189 428.423 123.328 428.451 123.371C428.684 123.714 430.578 123.393 431.292 123.277C432.894 123.009 434.281 122.778 434.853 123.789C435.262 124.512 434.958 125.468 433.922 126.706C433.599 127.092 433.255 127.385 432.95 127.614C433.203 127.765 433.429 127.996 433.521 128.36C433.737 129.22 432.997 130.081 431.324 130.924C430.909 131.135 430.35 131.416 429.566 131.551C429.197 131.615 428.864 131.63 428.58 131.639C428.574 131.803 428.535 131.981 428.435 132.165C428.141 132.704 427.53 132.961 426.608 132.899C425.594 132.846 424.759 132.653 424.022 132.483C423.379 132.336 422.825 132.211 422.39 132.24C421.583 132.305 420.961 132.951 420.231 133.789L418.409 135.918Z" fill="#F2F2F2"/>
<path d="M422.039 204.791L421.296 204.325L420.429 204.424C420.415 204.344 420.368 204.159 420.297 203.869C419.909 202.283 418.726 197.455 417.739 189.851C417.05 184.544 416.661 179.087 416.58 173.63C416.5 168.165 416.758 164.028 416.966 160.702C417.122 158.194 417.312 155.806 417.499 153.479C417.996 147.264 418.465 141.393 418.116 134.893C418.039 133.441 417.877 130.421 416.112 127.207C415.089 125.343 413.679 123.688 411.921 122.29L413.014 120.916C414.954 122.461 416.514 124.295 417.651 126.364C419.607 129.928 419.784 133.219 419.869 134.8C420.223 141.415 419.75 147.343 419.248 153.618C419.063 155.936 418.872 158.314 418.716 160.812C418.511 164.107 418.255 168.208 418.334 173.603C418.413 178.995 418.799 184.384 419.478 189.625C420.453 197.133 421.619 201.889 422.001 203.451C422.205 204.285 422.248 204.46 422.039 204.791Z" fill="#F2F2F2"/>
<path d="M408.704 125.077C408.632 125.077 408.559 125.075 408.485 125.07C406.992 124.989 405.608 124.095 404.373 122.413C403.794 121.621 403.498 120.718 402.907 118.918C402.815 118.64 402.369 117.232 402.099 115.295C401.921 114.029 401.944 113.499 402.195 113.031C402.473 112.511 402.924 112.148 403.431 111.903C403.409 111.735 403.427 111.562 403.499 111.385C403.798 110.654 404.593 110.75 405.023 110.796C405.241 110.823 405.512 110.859 405.805 110.844C406.266 110.822 406.514 110.684 406.889 110.479C407.248 110.282 407.694 110.037 408.356 109.902C409.662 109.629 410.755 109.999 411.116 110.121C413.013 110.753 413.949 112.228 415.031 113.936C415.247 114.279 415.988 115.526 416.477 117.236C416.83 118.469 416.781 119.017 416.674 119.425C416.459 120.263 415.949 120.742 414.655 121.801C413.303 122.91 412.625 123.465 412.042 123.802C410.686 124.585 409.835 125.077 408.704 125.077Z" fill="#F2F2F2"/>
<path d="M209.706 123.627H37.6993V168.306H209.706V123.627Z" fill="#F9A826"/>
<path d="M147.158 0.760132H102.481V298.993H147.158V0.760132Z" fill="#F9A826"/>
<path opacity="0.2" d="M148.809 164.943C149.126 163.712 149.314 162.433 149.36 161.115L205.238 110.224L157.21 86.7673L136.043 143.216C134.596 142.838 133.086 142.616 131.521 142.616C130.69 142.616 129.879 142.693 129.078 142.802L108.066 86.7673L60.0378 110.224L113.72 159.115C113.685 159.569 113.65 160.024 113.65 160.488C113.65 162.029 113.866 163.516 114.233 164.943C81.3272 175.227 67.8563 206.284 67.8563 206.284L109.183 239.793C106.718 215.144 121.77 189.909 129.907 178.278C130.439 178.326 130.976 178.359 131.521 178.359C132.066 178.359 132.603 178.326 133.135 178.278C141.272 189.909 156.324 215.144 153.86 239.793L195.186 206.284C195.186 206.284 181.715 175.227 148.809 164.943Z" fill="black"/>
<path d="M154.877 227.718C154.395 227.718 153.91 227.614 153.451 227.399C152.291 226.858 151.558 225.729 151.538 224.453C151.199 202.844 138.878 181.635 131.563 170.916C131.075 170.201 130.231 169.773 129.306 169.773H129.302C128.343 169.773 127.5 170.201 127.011 170.916C119.697 181.635 107.376 202.844 107.037 224.453C107.016 225.728 106.284 226.858 105.123 227.399C103.952 227.948 102.6 227.782 101.597 226.969L67.2475 199.116C66.0214 198.122 65.6614 196.38 66.3919 194.973C69.8641 188.286 83.2316 165.748 109.466 156.481C110.637 156.067 111.348 154.901 111.194 153.646C111.109 152.944 111.066 152.24 111.066 151.552C111.068 150.732 110.755 149.987 110.206 149.487L60.8236 104.512C60.0046 103.766 59.6095 102.666 59.7661 101.569C59.9229 100.472 60.611 99.527 61.6064 99.0409L102.722 78.9609C103.565 78.5486 104.549 78.512 105.423 78.8587C106.295 79.206 106.985 79.9098 107.315 80.789L126.379 131.629C126.772 132.678 127.781 133.363 128.927 133.334C129.79 133.315 130.667 133.364 131.54 133.478C132.772 133.643 133.936 132.947 134.367 131.795L153.493 80.789C153.823 79.9098 154.513 79.206 155.385 78.8587C156.258 78.5124 157.243 78.549 158.086 78.9609L199.201 99.0409C200.197 99.527 200.885 100.472 201.042 101.57C201.199 102.666 200.803 103.766 199.984 104.512L148.247 151.632C147.765 152.071 147.465 152.671 147.402 153.319C147.388 153.46 147.374 153.6 147.357 153.739C147.215 154.919 147.948 156.071 149.1 156.478C175.34 165.744 188.71 188.286 192.183 194.973C192.913 196.38 192.553 198.122 191.327 199.116L156.977 226.969C156.367 227.464 155.627 227.718 154.877 227.718Z" fill="#F9A826"/>
<path d="M444.988 299.967H300.734C294.764 299.967 289.906 295.109 289.906 289.138V215.738C289.906 209.767 294.764 204.908 300.734 204.908H444.988C450.959 204.908 455.816 209.767 455.816 215.738V289.138C455.816 295.109 450.959 299.967 444.988 299.967ZM300.734 206.309C295.535 206.309 291.306 210.538 291.306 215.738V289.138C291.306 294.337 295.535 298.567 300.734 298.567H444.988C450.187 298.567 454.416 294.337 454.416 289.138V215.738C454.416 210.538 450.187 206.309 444.988 206.309H300.734Z" fill="#3F3D56"/>
<path d="M387.34 204.992H362.695V299.883H387.34V204.992Z" fill="#F9A826"/>
<path d="M455.116 240.73H290.606V265.377H455.116V240.73Z" fill="#F9A826"/>
<path opacity="0.2" d="M368.05 268.388C368.729 268.563 369.435 268.667 370.162 268.692L398.234 299.518L411.173 273.023L380.035 261.346C380.244 260.548 380.366 259.715 380.366 258.851C380.366 258.393 380.324 257.945 380.263 257.503L411.173 245.911L398.234 219.416L371.265 249.031C371.014 249.011 370.764 248.992 370.508 248.992C369.658 248.992 368.837 249.111 368.05 249.314C362.377 231.161 345.246 223.729 345.246 223.729L326.762 246.528C340.358 245.168 354.278 253.472 360.694 257.961C360.668 258.254 360.65 258.55 360.65 258.851C360.65 259.152 360.668 259.448 360.694 259.741C354.278 264.23 340.358 272.534 326.762 271.174L345.246 293.973C345.246 293.973 362.377 286.541 368.05 268.388Z" fill="black"/>
<path d="M399.247 295.28C398.688 295.28 398.152 295.046 397.77 294.627L371.776 266.083C371.562 265.848 371.25 265.699 370.897 265.663L370.785 265.652C370.15 265.581 369.571 265.924 369.372 266.488C364.241 281.035 351.75 288.439 348.044 290.361C347.209 290.796 346.172 290.577 345.578 289.842L330.212 270.89C329.725 270.29 329.627 269.481 329.955 268.778C330.278 268.085 330.952 267.649 331.712 267.637C343.591 267.454 355.262 260.673 361.163 256.648C361.517 256.405 361.729 255.987 361.729 255.528C361.729 255.05 361.518 254.631 361.163 254.389C355.263 250.364 343.593 243.583 331.711 243.4C330.951 243.389 330.278 242.951 329.955 242.258C329.627 241.556 329.725 240.746 330.212 240.146L345.578 221.194C346.173 220.461 347.21 220.242 348.044 220.674C351.75 222.598 364.238 230 369.37 244.543C369.569 245.106 370.137 245.457 370.708 245.388C371.331 245.31 371.951 245.292 372.55 245.336L397.77 217.642C398.216 217.152 398.875 216.915 399.531 217.01C400.187 217.104 400.752 217.516 401.043 218.111L412.121 240.795C412.368 241.301 412.39 241.89 412.182 242.412C411.974 242.934 411.553 243.346 411.027 243.543L382.982 254.061C382.466 254.254 382.129 254.759 382.143 255.315L382.145 255.518C382.145 255.954 382.115 256.398 382.055 256.837C381.978 257.402 382.33 257.964 382.892 258.175L411.027 268.726C411.553 268.924 411.974 269.336 412.182 269.858C412.39 270.38 412.367 270.969 412.121 271.474L401.043 294.158C400.752 294.754 400.187 295.166 399.531 295.259C399.436 295.273 399.341 295.28 399.247 295.28Z" fill="#F9A826"/>
<path d="M268.6 120.255H246.04V112.826C246.04 100.375 256.149 90.2654 268.6 90.2654L268.6 120.255Z" fill="#2F2E41"/>
<path d="M263.6 106.387L267.479 123.834L244.749 120.06L254.011 103.56L263.6 106.387Z" fill="#FFB6B6"/>
<path opacity="0.1" d="M263.6 106.387L267.479 123.834L244.749 120.06L254.011 103.56L263.6 106.387Z" fill="black"/>
<path d="M263.6 143.659H241.808V175.912H263.6V143.659Z" fill="#FFB6B6"/>
<path d="M277.765 202.282L272.97 227.998C272.97 227.998 276.021 245.868 266.869 264.174L260.767 282.916L251.614 281.609C251.614 281.609 257.28 267.661 257.28 261.559C257.28 255.457 258.588 231.921 258.588 231.921L257.934 205.064L277.765 202.282Z" fill="#FFB6B6"/>
<path d="M250.307 281.173C250.307 281.173 260.767 277.25 261.639 282.916L261.203 285.531C261.203 285.531 265.125 297.299 259.459 298.171C253.793 299.042 248.563 300.35 248.127 297.735C247.692 295.12 247.698 291.855 248.785 289.565C249.871 287.275 250.307 281.173 250.307 281.173Z" fill="#2F2E41"/>
<path d="M244.771 198.293L242.225 224.328C242.225 224.328 234.325 240.644 238.025 260.774L238.674 280.474L247.83 281.763C247.83 281.763 246.266 266.79 247.963 260.929C249.66 255.067 254.949 232.096 254.949 232.096L263.046 206.48L244.771 198.293Z" fill="#FFB6B6"/>
<path d="M249.207 281.708C249.207 281.708 240.25 275.031 237.837 280.231L237.528 282.864C237.528 282.864 230.612 295.879 235.812 298.292C241.012 300.705 245.548 300.613 246.694 298.223C247.84 295.832 248.741 292.695 248.335 290.192C247.928 287.69 249.207 281.708 249.207 281.708Z" fill="#2F2E41"/>
<path d="M272.099 160.875L290.84 200.539C290.84 200.539 253.14 219.499 230.912 219.499L241.948 160.875L272.099 160.875Z" fill="#2F2E41"/>
<path d="M255.319 114.456L266.215 116.199L265.343 143.659L277.547 168.067L261.856 175.912C261.856 175.912 249.653 152.812 247.474 138.428C245.295 124.045 246.602 113.584 246.602 113.584L255.319 114.456Z" fill="#E6E6E6"/>
<path d="M247.038 115.328L236.142 117.071L237.014 144.53L234.398 169.81L240.5 176.784C240.5 176.784 252.704 153.684 254.883 139.3C257.062 124.917 255.755 114.456 255.755 114.456L247.038 115.328Z" fill="#E6E6E6"/>
<path d="M263.818 116.853L266.215 116.2C266.215 116.2 274.714 115.11 276.021 118.597C277.329 122.084 276.893 142.569 276.893 142.569C276.893 142.569 279.142 167.712 270.39 167.998C261.639 168.285 263.382 147.364 263.382 147.364L263.818 116.853Z" fill="#E6E6E6"/>
<path d="M259.796 111.176C266.026 111.176 271.076 106.125 271.076 99.895C271.076 93.665 266.026 88.6145 259.796 88.6145C253.567 88.6145 248.516 93.665 248.516 99.895C248.516 106.125 253.567 111.176 259.796 111.176Z" fill="#FFB6B6"/>
<path d="M256.268 115.42C258.688 114.806 261.431 117.391 262.396 121.195C262.803 122.709 262.84 124.299 262.507 125.83L263.546 130.154L263.623 130.15L271.825 149.48C273.732 153.975 273.53 159.134 271.098 163.368C269.651 165.886 267.752 167.579 265.521 165.851C261.821 162.983 259.404 146.564 258.3 137.133L255.748 127.545C254.724 126.358 253.999 124.942 253.634 123.417C252.669 119.615 253.848 116.034 256.268 115.42Z" fill="#FFB6B6"/>
<path d="M245.73 116.853L243.333 116.2C243.333 116.2 234.834 115.11 233.527 118.597C232.219 122.084 232.655 142.569 232.655 142.569C232.655 142.569 230.406 167.712 239.158 167.998C247.91 168.285 246.166 147.364 246.166 147.364L245.73 116.853Z" fill="#E6E6E6"/>
<path d="M253.28 115.42C250.86 114.806 248.117 117.391 247.152 121.195C246.745 122.709 246.708 124.299 247.041 125.83L246.002 130.154L245.925 130.15L237.723 149.48C235.816 153.975 236.018 159.134 238.45 163.368C239.897 165.886 241.797 167.579 244.027 165.851C247.727 162.983 250.145 146.564 251.248 137.133L253.8 127.545C254.824 126.358 255.549 124.942 255.914 123.417C256.879 119.615 255.7 116.034 253.28 115.42Z" fill="#FFB6B6"/>
<path d="M238.201 109.021C238.775 107.277 239.907 105.749 240.414 103.984C241.087 101.64 242.52 106.84 242.659 104.405C242.925 99.7779 249.987 87.8747 254.019 85.5882C258.051 83.3018 260.366 83.9912 264.473 86.1385C264.473 86.1385 266.467 86.2653 268.95 87.4908C271.432 88.7164 273.666 90.6791 274.631 93.2736C275.397 95.3301 275.312 97.5886 275.568 99.7679C276.28 105.839 279.683 111.614 278.953 117.683C278.725 119.577 278.005 121.535 276.457 122.649C274.909 123.762 272.408 123.641 271.389 122.029C271.041 121.479 270.894 120.826 270.596 120.248C270.298 119.669 269.759 119.13 269.109 119.148C268.131 119.175 267.633 120.487 268.019 121.386C268.404 122.285 269.31 122.828 270.161 123.311C268.135 124.222 265.621 123.938 263.849 122.598C262.077 121.257 261.121 118.916 261.447 116.718C261.906 113.62 266.418 114.261 266.95 111.176C267.336 108.929 268.695 105.171 268.325 102.922C267.955 100.673 266.178 103.396 268.05 102.096C265.99 103.089 261.583 96.2951 259.427 95.534C257.27 94.773 255.441 93.1252 254.461 91.059C252.173 94.3751 250.161 93.4746 249.342 97.419C248.523 101.363 249.28 110.325 252.653 112.527C251.303 113.448 250.227 114.765 249.594 116.272C249.235 117.125 249.002 118.059 248.407 118.768C247.269 120.122 245.169 120.204 243.495 119.635C241.419 118.929 239.644 117.379 238.665 115.417C237.687 113.455 237.516 111.104 238.201 109.021Z" fill="#2F2E41"/>
</g>
<defs>
<clipPath id="clip0_55247_3268">
<rect width="480" height="300" fill="white" transform="translate(0 0.0600586)"/>
</clipPath>
</defs>
</svg>
