<svg width="264" height="108" viewBox="0 0 264 108" fill="none" xmlns="http://www.w3.org/2000/svg">
<path fill-rule="evenodd" clip-rule="evenodd" d="M189.623 10.1378C194.157 4.17306 201.846 0.247681 210.557 0.247681C222.864 0.247681 233.123 8.07889 235.344 18.4258C246.782 20.4216 255.397 29.0733 255.397 39.4293C255.397 40.597 255.287 41.7436 255.076 42.8602C260.382 47.2846 263.723 53.7151 263.723 60.8671C263.723 71.2591 256.669 80.1288 246.783 83.5327C246.822 84.0241 246.84 84.52 246.84 85.0205C246.84 97.3932 235.338 107.441 221.168 107.441C214.837 107.441 209.038 105.435 204.56 102.114C201.707 103.021 198.659 103.513 195.495 103.513C190.451 103.513 185.707 102.265 181.577 100.073C175.935 104.638 168.307 107.443 159.911 107.443C149.815 107.443 140.826 103.388 135.076 97.0956C130.27 101.001 122.807 103.513 114.432 103.513C108.026 103.513 102.152 102.043 97.5941 99.6039C93.8933 102.023 88.8631 103.513 83.3232 103.513C72.2839 103.513 63.2627 97.5946 62.7619 90.1782C35.557 89.7889 9.60314 89.5289 0.699231 89.0691C0.605996 89.0646 49.0444 81.9637 53.6189 78.1375C53.7362 78.0398 53.8489 77.9346 53.9572 77.8234C53.2083 76.3206 52.7949 74.6735 52.7949 72.9453C52.7949 65.897 59.6852 60.1758 68.1741 60.1758C72.2087 60.1758 75.884 61.4682 78.6269 63.5827C81.6946 59.8872 87.3382 57.4076 93.788 57.4076C97.558 57.4076 101.05 58.2537 103.914 59.6949C104.214 50.1489 113.391 42.48 124.649 42.48C126.019 42.48 127.357 42.5927 128.653 42.8092C128.542 42.0848 128.486 41.3424 128.486 40.591C128.486 31.311 137.133 23.7759 147.784 23.7759C150.054 23.7759 152.23 24.1185 154.252 24.7452C154.839 21.4014 156.358 18.3221 158.571 15.7147C160.112 13.5507 162.201 11.621 165.025 10.4939C168.683 8.48766 173.016 7.32598 177.66 7.32598C182.021 7.32598 186.11 8.35091 189.623 10.1378Z" fill="#EFF2FF"/>
<path d="M189.623 10.1378C194.157 4.17306 201.846 0.247681 210.557 0.247681C222.864 0.247681 233.123 8.07889 235.344 18.4258C246.782 20.4216 255.397 29.0733 255.397 39.4293C255.397 40.597 255.287 41.7436 255.076 42.8602C260.382 47.2846 263.723 53.7151 263.723 60.8671C263.723 71.2591 256.669 80.1288 246.783 83.5327C246.822 84.0241 246.84 84.52 246.84 85.0205C246.84 97.3932 235.338 107.441 221.168 107.441C214.837 107.441 209.038 105.435 204.56 102.114C201.707 103.021 198.659 103.513 195.495 103.513C190.451 103.513 185.707 102.265 181.577 100.073C175.935 104.638 168.307 107.443 159.911 107.443C149.815 107.443 140.826 103.388 135.076 97.0956C130.27 101.001 122.807 103.513 114.432 103.513C108.026 103.513 102.152 102.043 97.5941 99.6039C93.8933 102.023 88.8631 103.513 83.3232 103.513C72.2839 103.513 63.2627 97.5946 62.7619 90.1782C35.557 89.7889 9.60314 89.5289 0.699231 89.0691C0.605996 89.0646 49.0444 81.9637 53.6189 78.1375C53.7362 78.0398 53.8489 77.9346 53.9572 77.8234C53.2083 76.3206 52.7949 74.6735 52.7949 72.9453C52.7949 65.897 59.6852 60.1758 68.1741 60.1758C72.2087 60.1758 75.884 61.4682 78.6269 63.5827C81.6946 59.8872 87.3382 57.4076 93.788 57.4076C97.558 57.4076 101.05 58.2537 103.914 59.6949C104.214 50.1489 113.391 42.48 124.649 42.48C126.019 42.48 127.357 42.5927 128.653 42.8092C128.542 42.0848 128.486 41.3424 128.486 40.591C128.486 31.311 137.133 23.7759 147.784 23.7759C150.054 23.7759 152.23 24.1185 154.252 24.7452C154.839 21.4014 156.358 18.3221 158.571 15.7147C160.112 13.5507 162.201 11.621 165.025 10.4939C168.683 8.48766 173.016 7.32598 177.66 7.32598C182.021 7.32598 186.11 8.35091 189.623 10.1378Z" fill="#EFF2FF"/>
<mask id="mask0_55274_562" style="mask-type:luminance" maskUnits="userSpaceOnUse" x="0" y="0" width="264" height="108">
<path d="M189.623 10.1378C194.157 4.17306 201.846 0.247681 210.557 0.247681C222.864 0.247681 233.123 8.07889 235.344 18.4258C246.782 20.4216 255.397 29.0733 255.397 39.4293C255.397 40.597 255.287 41.7436 255.076 42.8602C260.382 47.2846 263.723 53.7151 263.723 60.8671C263.723 71.2591 256.669 80.1288 246.783 83.5327C246.822 84.0241 246.84 84.52 246.84 85.0205C246.84 97.3932 235.338 107.441 221.168 107.441C214.837 107.441 209.038 105.435 204.56 102.114C201.707 103.021 198.659 103.513 195.495 103.513C190.451 103.513 185.707 102.265 181.577 100.073C175.935 104.638 168.307 107.443 159.911 107.443C149.815 107.443 140.826 103.388 135.076 97.0956C130.27 101.001 122.807 103.513 114.432 103.513C108.026 103.513 102.152 102.043 97.5941 99.6039C93.8933 102.023 88.8631 103.513 83.3232 103.513C72.2839 103.513 63.2627 97.5946 62.7619 90.1782C35.557 89.7889 9.60314 89.5289 0.699231 89.0691C0.605996 89.0646 49.0444 81.9637 53.6189 78.1375C53.7362 78.0398 53.8489 77.9346 53.9572 77.8234C53.2083 76.3206 52.7949 74.6735 52.7949 72.9453C52.7949 65.897 59.6852 60.1758 68.1741 60.1758C72.2087 60.1758 75.884 61.4682 78.6269 63.5827C81.6946 59.8872 87.3382 57.4076 93.788 57.4076C97.558 57.4076 101.05 58.2537 103.914 59.6949C104.214 50.1489 113.391 42.48 124.649 42.48C126.019 42.48 127.357 42.5927 128.653 42.8092C128.542 42.0848 128.486 41.3424 128.486 40.591C128.486 31.311 137.133 23.7759 147.784 23.7759C150.054 23.7759 152.23 24.1185 154.252 24.7452C154.839 21.4014 156.358 18.3221 158.571 15.7147C160.112 13.5507 162.201 11.621 165.025 10.4939C168.683 8.48766 173.016 7.32598 177.66 7.32598C182.021 7.32598 186.11 8.35091 189.623 10.1378Z" fill="white"/>
</mask>
<g mask="url(#mask0_55274_562)">
<path fill-rule="evenodd" clip-rule="evenodd" d="M187.253 -0.117485C191.788 -6.0837 199.476 -10.0076 208.188 -10.0076C220.494 -10.0076 230.754 -2.17635 232.975 8.16908C244.413 10.1663 253.028 18.8166 253.028 29.1725C253.028 30.3402 252.919 31.4869 252.708 32.605C258.013 37.0293 261.355 43.4599 261.355 50.6118C261.355 61.0039 254.301 69.872 244.415 73.2759C244.452 73.7673 244.472 74.2648 244.472 74.7637C244.472 87.138 232.968 97.1828 218.799 97.1828C212.468 97.1828 206.67 95.1781 202.191 91.8553C199.339 92.763 196.292 93.2544 193.127 93.2544C188.083 93.2544 183.34 92.0071 179.208 89.816C173.568 94.3816 165.937 97.1843 157.542 97.1843C147.446 97.1843 138.458 93.1312 132.707 86.8389C127.9 90.7432 120.438 93.2544 112.063 93.2544C105.657 93.2544 99.7836 91.7862 95.2241 89.3456C91.5248 91.7667 86.4946 93.2544 80.9547 93.2544C69.9154 93.2544 66.4988 89.9227 65.998 82.5063C40.6623 85.85 5.22404 90.4742 -3.67987 90.0129C-3.77311 90.0084 46.6775 71.7055 51.252 67.8778C51.3693 67.7801 51.482 67.6764 51.5903 67.5652C50.8414 66.0624 50.4264 64.4138 50.4264 62.687C50.4264 55.6388 57.3182 49.916 65.807 49.916C69.8417 49.916 73.5155 51.2085 76.2599 53.3229C79.3277 49.629 84.9713 47.1493 91.4211 47.1493C95.1895 47.1493 98.6828 47.9939 101.548 49.4351C101.845 39.8907 111.023 32.2203 122.282 32.2203C123.65 32.2203 124.99 32.3345 126.286 32.5494C126.175 31.825 126.118 31.0856 126.118 30.3342C126.118 21.0528 134.765 13.5191 145.417 13.5191C147.685 13.5191 149.863 13.8603 151.884 14.4885C152.47 11.1447 153.991 8.06539 156.201 5.45649C157.744 3.29392 159.831 1.3628 162.657 0.237182C166.313 -1.76909 170.646 -2.93077 175.292 -2.93077C179.653 -2.92927 183.741 -1.90585 187.253 -0.117485Z" fill="#EFF2FF"/>
</g>
<path fill-rule="evenodd" clip-rule="evenodd" d="M224.091 81.4814C227.441 76.4604 225.978 68.8591 220.434 63.7826C215.076 58.8774 207.703 57.9727 202.961 61.321C203.244 60.8957 203.563 60.4899 203.915 60.1052C208.437 55.1729 216.99 55.6373 223.004 61.1451C229.017 66.65 230.229 75.1244 225.709 80.0582C225.216 80.5962 224.674 81.0711 224.091 81.4814Z" fill="#EFF2FF"/>
<path fill-rule="evenodd" clip-rule="evenodd" d="M102.895 81.2064C108.099 88.6258 118.322 91.134 126.789 86.7127C134.969 82.4387 138.766 73.1272 136.195 64.8301C136.635 65.4583 137.038 66.1195 137.404 66.8168C142.076 75.7481 138.414 86.8945 129.234 91.6915C120.052 96.4886 108.803 93.1313 104.131 84.2C103.621 83.2246 103.211 82.2238 102.895 81.2064Z" fill="#EFF2FF"/>
<path fill-rule="evenodd" clip-rule="evenodd" d="M73.3275 69.0861C67.7093 70.9766 64.1784 76.1719 65.3002 81.271C66.383 86.1987 71.4462 89.3877 77.102 89.0225C76.6268 89.1818 76.1365 89.3186 75.6343 89.4283C69.177 90.8454 62.9468 87.5062 61.7318 81.9758C60.5152 76.4439 64.7709 70.8023 71.2282 69.3851C71.9304 69.2288 72.6327 69.1311 73.3275 69.0861Z" fill="#EFF2FF"/>
<path fill-rule="evenodd" clip-rule="evenodd" d="M175.367 77.1036C174.431 83.402 179.003 89.8791 186.245 92.0703C193.242 94.1862 200.387 91.5909 203.312 86.2198C203.232 86.7518 203.115 87.2838 202.954 87.8113C200.906 94.574 192.866 98.1357 185.012 95.7582C177.158 93.3822 172.444 85.9628 174.492 79.2016C174.714 78.4637 175.009 77.7634 175.367 77.1036Z" fill="#EFF2FF"/>
<path fill-rule="evenodd" clip-rule="evenodd" d="M202.351 38.6403C204.915 31.2254 201.498 22.7945 194.113 19.1141C186.976 15.5599 178.526 17.6338 174.012 23.6511C174.23 23.0245 174.49 22.4053 174.792 21.7967C178.689 13.9835 188.355 10.8816 196.366 14.8716C204.376 18.8601 207.718 28.4406 203.823 36.2538C203.397 37.1074 202.903 37.9039 202.351 38.6403Z" fill="#EFF2FF"/>
</svg>
