<svg width="360" height="121" viewBox="0 0 360 121" fill="none" xmlns="http://www.w3.org/2000/svg">
<path fill-rule="evenodd" clip-rule="evenodd" d="M163.395 21.657C168.9 9.32037 180.738 0.77832 194.443 0.77832C209.728 0.77832 222.692 11.4018 227.136 26.0663C229.199 25.6185 231.352 25.3825 233.567 25.3825C245.986 25.3825 256.511 32.82 260.054 43.0618C262.529 42.3584 265.165 41.9797 267.897 41.9797C282.194 41.9797 293.8 52.3567 293.8 65.1413C293.8 69.1177 292.675 72.8613 290.699 76.1329C308.749 77.9784 355.401 80.7541 359.533 82.0781C364.568 83.6936 316.37 85.0176 300.659 86.2364C297.358 86.4919 293.8 88.5026 293.8 89.8251C293.8 103.448 278.048 114.509 258.648 114.509C250.865 114.509 243.671 112.73 237.844 109.718C233.125 116.251 224.844 120.586 215.427 120.586C206.747 120.586 199.033 116.903 194.182 111.212C188.864 115.134 181.406 117.572 173.154 117.572C163.565 117.572 155.046 114.276 149.712 109.191C143.907 112.456 135.512 114.511 126.181 114.511C108.798 114.511 94.6643 107.386 94.4718 98.5731C88.5273 97.8292 80.649 96.941 70.0428 96.7832C46.9868 96.4376 3.12888 95.9341 0.210034 94.2119C-2.69829 92.4956 24.9293 88.2306 62.4352 85.8892C61.3615 84.4751 60.7524 82.8656 60.7524 81.1553C60.7524 75.5528 67.2894 71.0053 75.3421 71.0053C78.6008 71.0053 81.6099 71.7492 84.0385 73.007C84.5092 63.5918 94.7891 56.0567 107.383 56.0567C108.764 56.0567 110.117 56.1454 111.433 56.3212C112.859 51.4295 116.065 47.19 120.384 44.2084C121.611 30.151 134.654 19.0737 150.54 19.0737C155.134 19.0737 159.492 19.9994 163.395 21.657Z" fill="#EFF2FF"/>
<path d="M163.395 21.657C168.9 9.32037 180.738 0.77832 194.443 0.77832C209.728 0.77832 222.692 11.4018 227.136 26.0663C229.199 25.6185 231.352 25.3825 233.567 25.3825C245.986 25.3825 256.511 32.82 260.054 43.0618C262.529 42.3584 265.165 41.9797 267.897 41.9797C282.194 41.9797 293.8 52.3567 293.8 65.1413C293.8 69.1177 292.675 72.8613 290.699 76.1329C308.749 77.9784 355.401 80.7541 359.533 82.0781C364.568 83.6936 316.37 85.0176 300.659 86.2364C297.358 86.4919 293.8 88.5026 293.8 89.8251C293.8 103.448 278.048 114.509 258.648 114.509C250.865 114.509 243.671 112.73 237.844 109.718C233.125 116.251 224.844 120.586 215.427 120.586C206.747 120.586 199.033 116.903 194.182 111.212C188.864 115.134 181.406 117.572 173.154 117.572C163.565 117.572 155.046 114.276 149.712 109.191C143.907 112.456 135.512 114.511 126.181 114.511C108.798 114.511 94.6643 107.386 94.4718 98.5731C88.5273 97.8292 80.649 96.941 70.0428 96.7832C46.9868 96.4376 3.12888 95.9341 0.210034 94.2119C-2.69829 92.4956 24.9293 88.2306 62.4352 85.8892C61.3615 84.4751 60.7524 82.8656 60.7524 81.1553C60.7524 75.5528 67.2894 71.0053 75.3421 71.0053C78.6008 71.0053 81.6099 71.7492 84.0385 73.007C84.5092 63.5918 94.7891 56.0567 107.383 56.0567C108.764 56.0567 110.117 56.1454 111.433 56.3212C112.859 51.4295 116.065 47.19 120.384 44.2084C121.611 30.151 134.654 19.0737 150.54 19.0737C155.134 19.0737 159.492 19.9994 163.395 21.657Z" fill="#EFF2FF"/>
<mask id="mask0_55274_524" style="mask-type:luminance" maskUnits="userSpaceOnUse" x="0" y="0" width="360" height="121">
<path d="M163.395 21.657C168.9 9.32037 180.738 0.77832 194.443 0.77832C209.728 0.77832 222.692 11.4018 227.136 26.0663C229.199 25.6185 231.352 25.3825 233.567 25.3825C245.986 25.3825 256.511 32.82 260.054 43.0618C262.529 42.3584 265.165 41.9797 267.897 41.9797C282.194 41.9797 293.8 52.3567 293.8 65.1413C293.8 69.1177 292.675 72.8613 290.699 76.1329C308.749 77.9784 355.401 80.7541 359.533 82.0781C364.568 83.6936 316.37 85.0176 300.659 86.2364C297.358 86.4919 293.8 88.5026 293.8 89.8251C293.8 103.448 278.048 114.509 258.648 114.509C250.865 114.509 243.671 112.73 237.844 109.718C233.125 116.251 224.844 120.586 215.427 120.586C206.747 120.586 199.033 116.903 194.182 111.212C188.864 115.134 181.406 117.572 173.154 117.572C163.565 117.572 155.046 114.276 149.712 109.191C143.907 112.456 135.512 114.511 126.181 114.511C108.798 114.511 94.6643 107.386 94.4718 98.5731C88.5273 97.8292 80.649 96.941 70.0428 96.7832C46.9868 96.4376 3.12888 95.9341 0.210034 94.2119C-2.69829 92.4956 24.9293 88.2306 62.4352 85.8892C61.3615 84.4751 60.7524 82.8656 60.7524 81.1553C60.7524 75.5528 67.2894 71.0053 75.3421 71.0053C78.6008 71.0053 81.6099 71.7492 84.0385 73.007C84.5092 63.5918 94.7891 56.0567 107.383 56.0567C108.764 56.0567 110.117 56.1454 111.433 56.3212C112.859 51.4295 116.065 47.19 120.384 44.2084C121.611 30.151 134.654 19.0737 150.54 19.0737C155.134 19.0737 159.492 19.9994 163.395 21.657Z" fill="white"/>
</mask>
<g mask="url(#mask0_55274_524)">
<path fill-rule="evenodd" clip-rule="evenodd" d="M160.153 10.3167C165.656 -2.01996 177.496 -10.562 191.201 -10.562C206.484 -10.562 219.448 0.0614481 223.892 14.726C225.955 14.2782 228.11 14.0422 230.325 14.0422C242.743 14.0422 253.268 21.4797 256.811 31.7214C259.287 31.0181 261.923 30.6394 264.655 30.6394C278.952 30.6394 294.409 38.3188 294.409 51.1003C294.409 55.0768 298.863 59.7942 296.886 63.0658C314.934 64.9113 362.517 80.694 366.651 82.0194C371.686 83.635 313.659 79.7817 297.949 81.0005C294.648 81.256 291.09 83.2668 291.09 84.5893C291.09 98.2124 274.809 103.169 255.407 103.169C247.625 103.169 240.431 101.389 234.604 98.3777C229.885 104.91 221.603 109.246 212.185 109.246C203.505 109.246 195.791 105.563 190.94 99.8715C185.621 103.792 178.163 106.233 169.912 106.233C160.323 106.233 151.804 102.937 146.47 97.8502C140.665 101.116 132.269 103.17 122.938 103.17C105.556 103.17 91.4221 96.0453 91.2296 87.2327C88.207 92.9916 83.216 92.6835 72.6113 92.4941C64.9119 92.3559 -4.05471 94.3411 -6.97507 92.6174C-9.88339 90.9011 21.6871 76.8903 59.1915 74.5489C58.1178 73.1363 57.5087 71.5252 57.5087 69.815C57.5087 64.2125 64.0457 59.6649 72.0985 59.6649C75.3557 59.6649 78.3662 60.4088 80.7949 61.6667C81.2655 52.2515 91.5454 44.7148 104.14 44.7148C105.52 44.7148 106.873 44.805 108.189 44.9809C109.615 40.0892 112.821 35.8497 117.14 32.8681C118.368 18.8107 131.411 7.73336 147.297 7.73336C151.894 7.73186 156.249 8.6576 160.153 10.3167Z" fill="#EFF2FF"/>
</g>
<path fill-rule="evenodd" clip-rule="evenodd" d="M139.026 80.1379C137.366 87.8084 141.767 95.7703 149.542 98.54C157.052 101.215 165.193 98.1463 168.954 91.633C168.813 92.2823 168.629 92.9285 168.401 93.5687C165.468 101.791 156.243 106.026 147.813 103.021C139.381 100.019 134.916 90.9057 137.848 82.6852C138.169 81.7865 138.564 80.9374 139.026 80.1379Z" fill="#EFF2FF"/>
<path fill-rule="evenodd" clip-rule="evenodd" d="M87.2566 75.1365C85.8686 81.7925 90.0056 88.8017 97.1305 91.3399C104.013 93.791 111.379 91.2498 114.699 85.6322C114.582 86.1958 114.426 86.7563 114.227 87.3108C111.689 94.4267 103.355 97.9704 95.6267 95.2172C87.9003 92.4655 83.6867 84.4525 86.225 77.3366C86.5032 76.5597 86.8506 75.8263 87.2566 75.1365Z" fill="#EFF2FF"/>
<path fill-rule="evenodd" clip-rule="evenodd" d="M168.954 45.0424C163.872 39.0612 154.87 37.7102 147.942 42.1916C141.249 46.5212 138.734 54.8469 141.62 61.7914C141.191 61.285 140.79 60.7469 140.418 60.1759C135.673 52.8496 137.919 42.955 145.435 38.0934C152.948 33.2333 162.902 35.2335 167.646 42.5598C168.165 43.3608 168.599 44.1903 168.954 45.0424Z" fill="#EFF2FF"/>
<path fill-rule="evenodd" clip-rule="evenodd" d="M188.89 84.2272C187.231 91.8961 191.631 99.858 199.406 102.628C206.916 105.303 215.056 102.234 218.817 95.7208C218.677 96.37 218.493 97.0162 218.263 97.6564C215.331 105.878 206.107 110.113 197.675 107.109C189.243 104.107 184.779 94.9934 187.711 86.773C188.033 85.8758 188.428 85.0252 188.89 84.2272Z" fill="#EFF2FF"/>
<path fill-rule="evenodd" clip-rule="evenodd" d="M205.976 55.3654C210.6 49.0235 209.8 39.9615 203.814 34.2838C198.03 28.8 189.343 28.3131 183.264 32.7464C183.655 32.2099 184.085 31.6929 184.555 31.2C190.565 24.8686 200.717 24.7288 207.209 30.8844C213.702 37.0415 214.092 47.181 208.081 53.5124C207.426 54.2037 206.72 54.8214 205.976 55.3654Z" fill="#EFF2FF"/>
<path fill-rule="evenodd" clip-rule="evenodd" d="M251.449 79.8689C256.657 72.451 255.536 61.9913 248.492 55.5442C241.686 49.312 231.632 48.9153 224.703 54.1556C225.142 53.5289 225.627 52.9233 226.16 52.3432C232.972 44.9117 244.706 44.5571 252.345 51.5512C259.984 58.5453 260.657 70.2568 253.844 77.6883C253.102 78.4998 252.299 79.2272 251.449 79.8689Z" fill="#EFF2FF"/>
</svg>
