<svg width="314" height="63" viewBox="0 0 314 63" fill="none" xmlns="http://www.w3.org/2000/svg">
<path fill-rule="evenodd" clip-rule="evenodd" d="M147.793 16.5579C149.261 7.56653 158.754 0.620483 170.233 0.620483C182.125 0.620483 191.889 8.079 192.799 17.5438C196.033 18.1119 198.597 20.2729 199.333 23.0291C200.331 22.697 201.405 22.5181 202.525 22.5181C204.471 22.5181 206.279 23.0622 207.785 23.9954C210.609 21.5007 214.352 19.9829 218.453 19.9829C225.607 19.9829 231.665 24.6026 233.673 30.9565C235.324 30.4215 237.1 30.1299 238.95 30.1299C247.055 30.1299 253.762 35.7249 254.804 42.967C260.64 43.472 265.165 47.0247 265.165 51.3273C265.165 52.1268 265.009 52.9007 264.717 53.6341C264.762 53.6326 264.806 53.6326 264.851 53.6326C267.256 53.6326 269.206 55.3233 269.206 57.4062C269.206 57.9893 269.053 58.5423 268.779 59.0352C287.587 60.6042 310.695 62.0018 313.16 62.3024C317.36 62.8134 0.225403 61.6366 0.225403 61.6366C0.225403 61.6366 19.9866 60.3758 31.4876 58.9857C39.7058 57.9923 37.5448 56.6788 38.196 55.0437C39.0877 52.8015 42.6261 51.1244 46.8518 51.1244C48.2548 51.1244 49.5811 51.3092 50.7601 51.6383C51.0804 46.7842 57.1331 42.9069 64.5408 42.9069C67.9243 42.9069 71.0251 43.7155 73.4267 45.056C73.98 41.057 77.8764 37.877 82.7832 37.4156C84.1276 30.6619 90.3894 25.5478 97.9023 25.5478C100.803 25.5478 103.516 26.3097 105.833 27.6352C108.057 22.6038 114.084 18.991 121.161 18.991C124.964 18.991 128.462 20.034 131.232 21.7787C133.497 18.0788 137.763 15.5826 142.649 15.5826C144.474 15.5796 146.213 15.9282 147.793 16.5579Z" fill="#EFF2FF"/>
<path d="M147.793 16.5579C149.261 7.56653 158.754 0.620483 170.233 0.620483C182.125 0.620483 191.889 8.079 192.799 17.5438C196.033 18.1119 198.597 20.2729 199.333 23.0291C200.331 22.697 201.405 22.5181 202.525 22.5181C204.471 22.5181 206.279 23.0622 207.785 23.9954C210.609 21.5007 214.352 19.9829 218.453 19.9829C225.607 19.9829 231.665 24.6026 233.673 30.9565C235.324 30.4215 237.1 30.1299 238.95 30.1299C247.055 30.1299 253.762 35.7249 254.804 42.967C260.64 43.472 265.165 47.0247 265.165 51.3273C265.165 52.1268 265.009 52.9007 264.717 53.6341C264.762 53.6326 264.806 53.6326 264.851 53.6326C267.256 53.6326 269.206 55.3233 269.206 57.4062C269.206 57.9893 269.053 58.5423 268.779 59.0352C287.587 60.6042 310.695 62.0018 313.16 62.3024C317.36 62.8134 0.225403 61.6366 0.225403 61.6366C0.225403 61.6366 19.9866 60.3758 31.4876 58.9857C39.7058 57.9923 37.5448 56.6788 38.196 55.0437C39.0877 52.8015 42.6261 51.1244 46.8518 51.1244C48.2548 51.1244 49.5811 51.3092 50.7601 51.6383C51.0804 46.7842 57.1331 42.9069 64.5408 42.9069C67.9243 42.9069 71.0251 43.7155 73.4267 45.056C73.98 41.057 77.8764 37.877 82.7832 37.4156C84.1276 30.6619 90.3894 25.5478 97.9023 25.5478C100.803 25.5478 103.516 26.3097 105.833 27.6352C108.057 22.6038 114.084 18.991 121.161 18.991C124.964 18.991 128.462 20.034 131.232 21.7787C133.497 18.0788 137.763 15.5826 142.649 15.5826C144.474 15.5796 146.213 15.9282 147.793 16.5579Z" fill="#EFF2FF"/>
<mask id="mask0_55274_538" style="mask-type:luminance" maskUnits="userSpaceOnUse" x="0" y="0" width="314" height="63">
<path d="M147.793 16.5579C149.261 7.56653 158.754 0.620483 170.233 0.620483C182.125 0.620483 191.889 8.079 192.799 17.5438C196.033 18.1119 198.597 20.2729 199.333 23.0291C200.331 22.697 201.405 22.5181 202.525 22.5181C204.471 22.5181 206.279 23.0622 207.785 23.9954C210.609 21.5007 214.352 19.9829 218.453 19.9829C225.607 19.9829 231.665 24.6026 233.673 30.9565C235.324 30.4215 237.1 30.1299 238.95 30.1299C247.055 30.1299 253.762 35.7249 254.804 42.967C260.64 43.472 265.165 47.0247 265.165 51.3273C265.165 52.1268 265.009 52.9007 264.717 53.6341C264.762 53.6326 264.806 53.6326 264.851 53.6326C267.256 53.6326 269.206 55.3233 269.206 57.4062C269.206 57.9893 269.053 58.5423 268.779 59.0352C287.587 60.6042 310.695 62.0018 313.16 62.3024C317.36 62.8134 0.225403 61.6366 0.225403 61.6366C0.225403 61.6366 19.9866 60.3758 31.4876 58.9857C39.7058 57.9923 37.5448 56.6788 38.196 55.0437C39.0877 52.8015 42.6261 51.1244 46.8518 51.1244C48.2548 51.1244 49.5811 51.3092 50.7601 51.6383C51.0804 46.7842 57.1331 42.9069 64.5408 42.9069C67.9243 42.9069 71.0251 43.7155 73.4267 45.056C73.98 41.057 77.8764 37.877 82.7832 37.4156C84.1276 30.6619 90.3894 25.5478 97.9023 25.5478C100.803 25.5478 103.516 26.3097 105.833 27.6352C108.057 22.6038 114.084 18.991 121.161 18.991C124.964 18.991 128.462 20.034 131.232 21.7787C133.497 18.0788 137.763 15.5826 142.649 15.5826C144.474 15.5796 146.213 15.9282 147.793 16.5579Z" fill="white"/>
</mask>
<g mask="url(#mask0_55274_538)">
<path fill-rule="evenodd" clip-rule="evenodd" d="M106.283 55.2135C105.857 56.7028 103.841 57.7969 102.52 58.2372C98.6075 59.5402 93.8315 59.0488 90.2555 56.9749C89.054 56.2775 87.054 53.7378 85.5276 53.9737C83.9968 54.2081 82.8388 56.1152 81.7321 57.0244C79.7546 58.6475 77.4628 59.6589 74.9004 59.8798C71.6281 60.1623 68.5424 59.1434 65.801 57.4031C64.6942 56.7013 62.9784 54.6154 61.5979 54.5854C60.7513 54.5658 59.9106 55.7786 59.4129 56.3136C58.3903 57.4137 57.061 58.4837 55.5677 58.8504C52.7511 59.5402 49.4172 58.8729 46.7074 58.0208C45.7134 57.7082 44.7299 57.1131 43.6983 56.9583C42.3329 56.7554 41.2562 58.5513 39.9298 58.8489C35.7734 59.7836 31.3162 57.1717 29.4966 53.5063C26.7612 47.994 32.6064 44.0415 36.4967 41.0975C42.2351 36.7529 48.6623 34.718 55.7091 33.6195C60.849 32.8185 66.1498 33.122 70.7785 30.4335C86.1291 23.6122 96.4586 10.6668 111.618 3.35109C132.819 -6.87863 156.046 -7.28591 179.033 -5.64482C194.048 -4.57331 208.898 -2.75037 222.494 4.16412C230.043 8.00233 237.36 13.7852 242.801 20.2999C247.744 26.2181 251.257 35.1749 257.69 39.6984C258.783 40.4258 259.481 42.2863 259.782 43.4555C260.861 47.6408 259.553 51.5977 255.929 54.0323C253.472 55.6839 250.285 56.3076 247.404 55.6133C245.754 55.2165 243.891 53.8339 242.141 54.1781C240.572 54.4862 239.333 55.9469 238.01 56.7449C235.25 58.4086 232.087 59.737 228.829 59.8347C223.98 59.9805 218.835 58.2913 214.65 55.9319C213.219 55.1249 211.849 54.2668 210.646 53.1411C210.122 52.6512 209.367 51.6864 208.567 51.6864C207.006 51.6864 204.903 54.7086 203.662 55.5096C201.008 57.2228 197.659 58.0133 194.548 58.2613C189.346 58.676 183.994 57.6541 179.284 55.4164C177.719 54.6725 176.191 53.8445 174.738 52.9022C174.028 52.4423 173.06 51.4685 172.155 51.4535C170.383 51.4234 168.455 54.641 167.376 55.72C165.273 57.8224 162.606 58.9826 159.666 59.3117C155.809 59.7446 152.142 58.8173 148.339 58.4716C143.551 58.0373 139.008 58.6851 134.504 56.4744C132.474 55.478 130.761 53.876 129.249 52.2139C128.622 51.5256 127.685 49.8394 126.719 49.5749C126.074 49.3976 125.876 51.1499 125.793 51.473C125.294 53.4101 124.698 55.6824 122.861 56.7855C118.118 59.6288 110.97 57.7187 106.517 55.1519" fill="#EFF2FF"/>
</g>
<path fill-rule="evenodd" clip-rule="evenodd" d="M201.478 32.6577C200.429 40.7805 205.88 48.7454 214.446 51.0387C222.721 53.2554 231.13 49.4337 234.533 42.3569C234.444 43.0437 234.309 43.732 234.126 44.4173C231.768 53.2118 222.31 58.3319 213.022 55.8448C203.731 53.3576 198.102 44.1979 200.46 35.4034C200.719 34.4431 201.06 33.5263 201.478 32.6577Z" fill="#EFF2FF"/>
<path fill-rule="evenodd" clip-rule="evenodd" d="M121.949 34.6414C120.9 42.7642 126.352 50.7292 134.918 53.0225C143.193 55.2391 151.601 51.4174 155.005 44.3406C154.917 45.0274 154.781 45.7157 154.598 46.401C152.24 55.1955 142.784 60.3157 133.494 57.8285C124.203 55.3413 118.576 46.1816 120.933 37.3871C121.19 36.4253 121.533 35.5085 121.949 34.6414Z" fill="#EFF2FF"/>
<path fill-rule="evenodd" clip-rule="evenodd" d="M153.654 54.4216C159.514 57.5925 167.158 55.7876 171.404 49.9627C175.507 44.3346 175.063 36.84 170.685 32.1888C171.18 32.4563 171.664 32.7599 172.131 33.101C178.119 37.4607 179.242 46.1305 174.636 52.4484C170.03 58.7662 161.428 60.3562 155.44 55.9965C154.787 55.5186 154.19 54.9911 153.654 54.4216Z" fill="#EFF2FF"/>
<path fill-rule="evenodd" clip-rule="evenodd" d="M83.3065 40.9368C83.3622 47.5973 88.639 53.4102 95.794 54.3089C102.707 55.1775 109.057 51.1665 111.015 45.0876C111.02 45.6511 110.987 46.2207 110.915 46.7933C109.991 54.1406 102.94 59.3133 95.1789 58.3395C87.4179 57.3641 81.8674 50.609 82.7907 43.2617C82.8915 42.4576 83.0659 41.6807 83.3065 40.9368Z" fill="#EFF2FF"/>
</svg>
