<svg width="763" height="151" viewBox="0 0 763 151" fill="none" xmlns="http://www.w3.org/2000/svg">
<path d="M359.802 39.1816C363.38 17.2659 386.521 0.333618 414.501 0.333618C443.489 0.333618 467.288 18.5163 469.508 41.5861C477.392 42.9717 483.64 48.2376 485.434 54.9568C487.871 54.1497 490.486 53.7094 493.215 53.7094C497.958 53.7094 502.364 55.0364 506.036 57.3102C512.922 51.2312 522.042 47.5283 532.038 47.5283C549.478 47.5283 564.245 58.792 569.14 74.2771C573.164 72.9726 577.495 72.2633 582 72.2633C601.758 72.2633 618.106 85.8999 620.647 103.554C634.872 104.783 645.903 113.444 645.903 123.932C645.903 125.881 645.521 127.769 644.812 129.555C644.92 129.552 645.028 129.551 645.136 129.551C651 129.551 655.755 133.673 655.755 138.748C655.755 140.17 655.382 141.516 654.716 142.72C700.561 146.545 756.892 149.952 762.899 150.682C773.136 151.928 0.0862427 149.061 0.0862427 149.061C0.0862427 149.061 48.2555 145.987 76.2921 142.598C96.3255 140.177 91.0592 136.978 92.6442 132.988C94.8172 127.521 103.444 123.433 113.742 123.433C117.16 123.433 120.395 123.884 123.27 124.685C124.051 112.852 138.804 103.402 156.863 103.402C165.112 103.402 172.67 105.373 178.522 108.642C179.873 98.8918 189.369 91.1417 201.329 90.0176C204.605 73.5557 219.87 61.0868 238.185 61.0868C245.254 61.0868 251.869 62.9443 257.518 66.1738C262.939 53.9078 277.629 45.1027 294.882 45.1027C304.152 45.1027 312.681 47.644 319.43 51.8985C324.95 42.8786 335.351 36.7951 347.261 36.7951C351.712 36.7996 355.949 37.6487 359.802 39.1816Z" fill="#EFF2FF"/>
<mask id="mask0_55274_552" style="mask-type:luminance" maskUnits="userSpaceOnUse" x="0" y="0" width="763" height="151">
<path d="M359.802 39.1816C363.38 17.2659 386.521 0.333618 414.501 0.333618C443.489 0.333618 467.288 18.5163 469.508 41.5861C477.392 42.9717 483.64 48.2376 485.434 54.9568C487.871 54.1497 490.486 53.7094 493.215 53.7094C497.958 53.7094 502.364 55.0364 506.036 57.3102C512.922 51.2312 522.042 47.5283 532.038 47.5283C549.478 47.5283 564.245 58.792 569.14 74.2771C573.164 72.9726 577.495 72.2633 582 72.2633C601.758 72.2633 618.106 85.8999 620.647 103.554C634.872 104.783 645.903 113.444 645.903 123.932C645.903 125.881 645.521 127.769 644.812 129.555C644.92 129.552 645.028 129.551 645.136 129.551C651 129.551 655.755 133.673 655.755 138.748C655.755 140.17 655.382 141.516 654.716 142.72C700.561 146.545 756.892 149.952 762.899 150.682C773.136 151.928 0.0862427 149.061 0.0862427 149.061C0.0862427 149.061 48.2555 145.987 76.2921 142.598C96.3255 140.177 91.0592 136.978 92.6442 132.988C94.8172 127.521 103.444 123.433 113.742 123.433C117.16 123.433 120.395 123.884 123.27 124.685C124.051 112.852 138.804 103.402 156.863 103.402C165.112 103.402 172.67 105.373 178.522 108.642C179.873 98.8918 189.369 91.1417 201.329 90.0176C204.605 73.5557 219.87 61.0868 238.185 61.0868C245.254 61.0868 251.869 62.9443 257.518 66.1738C262.939 53.9078 277.629 45.1027 294.882 45.1027C304.152 45.1027 312.681 47.644 319.43 51.8985C324.95 42.8786 335.351 36.7951 347.261 36.7951C351.712 36.7996 355.949 37.6487 359.802 39.1816Z" fill="white"/>
</mask>
<g mask="url(#mask0_55274_552)">
<path fill-rule="evenodd" clip-rule="evenodd" d="M258.618 133.409C257.581 137.041 252.665 139.707 249.445 140.78C239.907 143.957 228.265 142.759 219.547 137.702C216.618 136.003 211.742 129.812 208.021 130.385C204.29 130.959 201.467 135.606 198.768 137.822C193.947 141.781 188.36 144.242 182.113 144.784C174.139 145.475 166.617 142.988 159.934 138.747C157.236 137.035 153.053 131.952 149.69 131.879C147.627 131.832 145.579 134.787 144.364 136.093C141.871 138.772 138.628 141.383 134.992 142.275C128.128 143.958 120.001 142.331 113.395 140.254C110.972 139.492 108.577 138.04 106.059 137.665C102.732 137.169 100.104 141.548 96.8728 142.275C86.7418 144.554 75.877 138.186 71.4423 129.25C64.7745 115.814 79.0214 106.18 88.5072 99C102.497 88.4111 118.162 83.4488 135.338 80.7707C147.869 78.8171 160.79 79.558 172.071 73.0042C209.494 56.3829 234.675 24.8251 271.626 6.99262C323.304 -17.9452 379.923 -18.9356 435.957 -14.9351C472.557 -12.3217 508.757 -7.87781 541.897 8.97485C560.299 18.3299 578.137 32.4264 591.399 48.3053C603.448 62.7309 612.012 84.5639 627.694 95.5916C630.359 97.3649 632.059 101.899 632.795 104.75C635.426 114.952 632.237 124.596 623.405 130.534C617.414 134.561 609.65 136.078 602.623 134.387C598.602 133.419 594.06 130.051 589.794 130.888C585.97 131.638 582.952 135.198 579.726 137.145C573.001 141.201 565.288 144.436 557.347 144.675C545.526 145.031 532.986 140.912 522.785 135.161C519.294 133.194 515.955 131.103 513.023 128.356C511.746 127.161 509.909 124.808 507.96 124.808C504.155 124.808 499.027 132.176 496.001 134.128C489.534 138.305 481.367 140.231 473.783 140.836C461.103 141.847 448.058 139.355 436.576 133.902C432.76 132.089 429.036 130.071 425.493 127.775C423.764 126.653 421.405 124.28 419.197 124.243C414.88 124.168 410.18 132.014 407.547 134.644C402.422 139.769 395.919 142.595 388.751 143.399C379.35 144.456 370.413 142.194 361.143 141.351C349.471 140.29 338.399 141.871 327.421 136.482C322.472 134.052 318.298 130.147 314.61 126.097C313.084 124.42 310.8 120.31 308.446 119.664C306.872 119.231 306.391 123.504 306.188 124.291C304.97 129.014 303.52 134.552 299.04 137.239C287.479 144.172 270.055 139.513 259.202 133.257" fill="#EFF2FF"/>
</g>
</svg>
