<svg width="480" height="390" viewBox="0 0 480 390" fill="none" xmlns="http://www.w3.org/2000/svg">
<g clip-path="url(#clip0_55247_3308)">
<path d="M477.15 21.0342H2.84946C2.14509 21.0334 1.46979 20.7532 0.97173 20.2552C0.473667 19.7571 0.193518 19.0818 0.192749 18.3774V2.74997C0.193518 2.0456 0.473667 1.37031 0.97173 0.872243C1.46979 0.37418 2.14509 0.0940306 2.84946 0.0932617H477.15C477.855 0.0940306 478.53 0.37418 479.028 0.872243C479.526 1.37031 479.806 2.0456 479.807 2.74997V18.3774C479.806 19.0818 479.526 19.7571 479.028 20.2552C478.53 20.7532 477.855 21.0334 477.15 21.0342Z" fill="#E4E4E4"/>
<path d="M15.6108 13.5733C17.6939 13.5733 19.3827 11.8846 19.3827 9.80147C19.3827 7.71832 17.6939 6.0296 15.6108 6.0296C13.5276 6.0296 11.8389 7.71832 11.8389 9.80147C11.8389 11.8846 13.5276 13.5733 15.6108 13.5733Z" fill="white"/>
<path d="M29.9276 13.5733C32.0107 13.5733 33.6994 11.8846 33.6994 9.80147C33.6994 7.71832 32.0107 6.0296 29.9276 6.0296C27.8444 6.0296 26.1557 7.71832 26.1557 9.80147C26.1557 11.8846 27.8444 13.5733 29.9276 13.5733Z" fill="white"/>
<path d="M44.2449 13.5733C46.3281 13.5733 48.0168 11.8846 48.0168 9.80147C48.0168 7.71832 46.3281 6.0296 44.2449 6.0296C42.1618 6.0296 40.4731 7.71832 40.4731 9.80147C40.4731 11.8846 42.1618 13.5733 44.2449 13.5733Z" fill="white"/>
<path d="M473.559 389.065H262.608C260.9 389.063 259.263 388.384 258.055 387.176C256.848 385.969 256.169 384.331 256.167 382.624V233.505C256.169 231.797 256.848 230.16 258.055 228.952C259.263 227.745 260.9 227.066 262.608 227.064H473.559C475.267 227.066 476.904 227.745 478.111 228.952C479.319 230.16 479.998 231.797 480 233.505V382.624C479.998 384.331 479.319 385.969 478.111 387.176C476.904 388.384 475.267 389.063 473.559 389.065Z" fill="#E6E6E6"/>
<path d="M464.777 235.845H271.392C269.684 235.847 268.046 236.527 266.838 237.735C265.63 238.943 264.951 240.58 264.949 242.289V373.839C264.951 375.547 265.63 377.185 266.838 378.393C268.046 379.601 269.684 380.281 271.392 380.283H464.777C466.485 380.281 468.122 379.601 469.329 378.393C470.536 377.185 471.215 375.547 471.216 373.839V242.289C471.215 240.581 470.536 238.943 469.329 237.735C468.122 236.527 466.485 235.847 464.777 235.845Z" fill="white"/>
<path d="M385.708 298.383C388.917 284.404 380.187 270.471 366.208 267.261C352.229 264.052 338.296 272.782 335.086 286.761C331.877 300.74 340.608 314.673 354.586 317.883C368.565 321.092 382.499 312.361 385.708 298.383Z" fill="#9E616A"/>
<path d="M435.084 355.829C434.129 351.317 431.968 347.148 428.83 343.767C425.693 340.386 421.697 337.919 417.269 336.63L417.25 336.619C416.404 336.203 415.509 335.896 414.587 335.706L383.378 329.32L377.125 322.611L350.519 324.309L347.742 332.027L317.18 345.609L317.687 345.254C316.377 345.779 315.104 346.389 313.875 347.081L313.72 347.15C312.839 347.545 312.02 348.067 311.29 348.7C303.518 354.094 298.383 362.752 298.193 372.406L297.387 380.283H440.274L435.084 355.829Z" fill="#F9A826"/>
<path d="M388.817 278.653C386.691 272.012 380.471 266.405 373.501 266.583C374.044 264.927 373.117 263.07 371.728 262.015C370.34 260.961 368.585 260.54 366.878 260.184C363.35 259.449 359.674 258.887 356.167 259.716C352.66 260.544 349.336 263.06 348.547 266.576C345.352 263.582 339.446 264.41 337.198 268.168C336.042 270.101 335.878 272.699 337.128 274.573C338.37 276.436 340.722 277.274 342.958 277.38C345.195 277.485 347.409 276.984 349.635 276.75C354.953 276.191 360.57 277.263 364.869 280.443C369.168 283.622 371.916 289.075 371.151 294.367C372.87 293.269 375.345 294.031 376.545 295.68C377.746 297.329 377.84 299.582 377.283 301.544C376.725 303.506 375.594 305.246 374.478 306.954C372.423 310.097 370.368 313.24 368.313 316.384L369.155 316.944C372.255 318.251 375.608 315.807 377.865 313.312C381.67 309.103 384.735 304.279 386.931 299.047C389.626 292.616 390.943 285.294 388.817 278.653Z" fill="#2F2E41"/>
<path d="M276.792 273.593H8.20088C6.02663 273.59 3.94213 272.725 2.4047 271.188C0.867266 269.651 0.00246107 267.566 0 265.392V75.5277C0.00245327 73.3534 0.867256 71.2689 2.40469 69.7315C3.94212 68.194 6.02662 67.3292 8.20088 67.3268H276.792C278.967 67.3292 281.051 68.1941 282.588 69.7315C284.126 71.2689 284.991 73.3534 284.993 75.5277V265.392C284.991 267.566 284.126 269.651 282.588 271.188C281.051 272.725 278.967 273.59 276.792 273.593Z" fill="#E6E6E6"/>
<path d="M265.61 78.5076H19.3862C17.211 78.5104 15.1258 79.3757 13.5877 80.9137C12.0497 82.4518 11.1844 84.537 11.1816 86.7121V254.207C11.1844 256.382 12.0497 258.467 13.5877 260.005C15.1258 261.543 17.211 262.409 19.3862 262.412H265.61C267.785 262.409 269.869 261.543 271.406 260.005C272.943 258.467 273.807 256.381 273.809 254.207V86.7121C273.807 84.5376 272.943 82.4525 271.406 80.9143C269.869 79.3762 267.785 78.5106 265.61 78.5076Z" fill="white"/>
<path d="M177.926 157.112L177.472 157.93C181.514 147.968 177.838 135.693 170.627 128.181C163.417 120.67 153.392 117.236 143.522 115.873C136.194 114.862 128.588 114.891 121.621 117.575C111.531 121.462 103.822 130.46 97.3863 139.82C94.4423 144.101 91.5478 148.982 91.841 154.333C92.1133 159.299 95.0609 163.513 97.4748 167.726C99.8889 171.939 101.905 177.166 100.172 181.764C99.1398 184.504 96.9579 186.478 95.1875 188.719C93.4171 190.961 91.9607 193.991 92.8159 196.803C93.5078 199.078 95.5891 200.575 97.7296 201.074C99.8698 201.572 102.09 201.246 104.258 200.919L160.521 192.418C164.344 191.841 167.971 190.347 171.092 188.065C174.213 185.783 176.736 182.779 178.446 179.311C180.155 175.843 181.001 172.013 180.91 168.148C180.82 164.282 179.796 160.496 177.926 157.112Z" fill="#2F2E41"/>
<path d="M136.076 192.026C151.269 192.026 163.585 179.71 163.585 164.518C163.585 149.326 151.269 137.01 136.076 137.01C120.884 137.01 108.568 149.326 108.568 164.518C108.568 179.71 120.884 192.026 136.076 192.026Z" fill="#FFB9B9"/>
<path d="M204.689 226.79C202.908 222.889 200.101 219.546 196.566 217.119C193.031 214.692 188.903 213.272 184.623 213.011L176.956 212.547L176.975 212.627L157.486 200.904C157.965 201.452 125.785 202.602 125.785 202.602L113.845 212.903L108.838 213.206C104.558 213.466 100.43 214.886 96.895 217.314C93.3603 219.741 90.5525 223.084 88.7724 226.985L72.5117 262.606H104.921L105.673 259.37C106.491 260.367 107.284 261.381 108.053 262.412H220.949L204.689 226.79Z" fill="#F9A826"/>
<path d="M162.169 138.987C161.458 135.231 157.627 133.513 154.345 132.68C144.823 130.251 134.919 129.707 125.188 131.079C118.095 132.091 110.834 134.321 105.687 139.858C101.673 144.176 99.2443 150.362 99.0553 156.749C98.9453 160.471 99.6109 164.345 101.463 167.48C103.315 170.614 106.472 172.888 109.731 172.808L110.061 173.956C123.872 172.032 136.701 163.439 144.781 150.7C143.264 156.115 140.246 160.99 136.076 164.762C145.4 161.031 153.505 154.784 159.489 146.718C161.122 144.55 162.709 141.845 162.169 138.987Z" fill="#2F2E41"/>
<path d="M463.123 7.20535H446.637C446.476 7.20585 446.317 7.17463 446.168 7.11348C446.02 7.05234 445.885 6.96246 445.771 6.84901C445.657 6.73556 445.567 6.60077 445.505 6.45236C445.444 6.30395 445.412 6.14484 445.412 5.98415C445.412 5.82346 445.444 5.66435 445.505 5.51594C445.567 5.36753 445.657 5.23273 445.771 5.11928C445.885 5.00584 446.02 4.91596 446.168 4.85481C446.317 4.79367 446.476 4.76245 446.637 4.76295H463.123C463.446 4.76395 463.756 4.89306 463.984 5.12197C464.212 5.35088 464.341 5.66093 464.341 5.98415C464.341 6.30738 464.212 6.61742 463.984 6.84633C463.756 7.07524 463.446 7.20435 463.123 7.20535Z" fill="white"/>
<path d="M463.123 11.7849H446.637C446.476 11.7854 446.317 11.7542 446.168 11.693C446.02 11.6319 445.885 11.542 445.771 11.4285C445.657 11.3151 445.567 11.1803 445.505 11.0319C445.444 10.8835 445.412 10.7244 445.412 10.5637C445.412 10.403 445.444 10.2439 445.505 10.0955C445.567 9.94706 445.657 9.81226 445.771 9.69881C445.885 9.58537 446.02 9.49549 446.168 9.43434C446.317 9.3732 446.476 9.34197 446.637 9.34247H463.123C463.446 9.34348 463.756 9.47259 463.984 9.7015C464.212 9.93041 464.341 10.2405 464.341 10.5637C464.341 10.8869 464.212 11.1969 463.984 11.4259C463.756 11.6548 463.446 11.7839 463.123 11.7849Z" fill="white"/>
<path d="M463.123 16.3644H446.637C446.476 16.3649 446.317 16.3337 446.168 16.2725C446.02 16.2114 445.885 16.1215 445.771 16.0081C445.657 15.8946 445.567 15.7598 445.505 15.6114C445.444 15.463 445.412 15.3039 445.412 15.1432C445.412 14.9825 445.444 14.8234 445.505 14.675C445.567 14.5266 445.657 14.3918 445.771 14.2783C445.885 14.1649 446.02 14.075 446.168 14.0139C446.317 13.9527 446.476 13.9215 446.637 13.922H463.123C463.446 13.923 463.756 14.0521 463.984 14.281C464.212 14.5099 464.341 14.82 464.341 15.1432C464.341 15.4664 464.212 15.7765 463.984 16.0054C463.756 16.2343 463.446 16.3634 463.123 16.3644Z" fill="white"/>
</g>
<defs>
<clipPath id="clip0_55247_3308">
<rect width="480" height="388.971" fill="white" transform="translate(0 0.0932617)"/>
</clipPath>
</defs>
</svg>
