<svg width="1120" height="700" viewBox="0 0 1120 700" fill="none" xmlns="http://www.w3.org/2000/svg">
<path d="M1120 700H0V0H1120V700Z" fill="white"/>
<path d="M146.204 629.744C146.204 629.744 28.4903 487.945 86.0196 341.967C123.519 246.813 264.183 194.673 343.567 246.813C377.377 269.02 485.853 247.562 543.771 155.624C656.32 -23.0336 1049.12 85.4663 977.61 359.768C943.005 492.513 1082.93 497.336 1011.63 630.024L146.204 629.744Z" fill="#F2F2F2"/>
<path d="M233.339 396.371C233.339 396.371 221.467 382.522 232.606 373.723C232.606 373.723 240.744 368.798 247.378 369.197C247.378 369.197 237.977 384.961 241.019 386.529C244.06 388.097 250.228 368.21 250.228 368.21C250.228 368.21 268.745 366.415 274.702 369.278C274.702 369.278 258.872 382.231 262.206 383.001C265.54 383.775 282.638 371.059 282.638 371.059C282.638 371.059 299.872 373.992 298.953 384.506C298.034 395.017 292.096 398.265 289.486 397.985C286.876 397.705 271.608 391.877 271.275 394.016C270.943 396.154 280.133 403.144 286.569 403.469C286.569 403.469 274.418 416.871 266.343 413.003C258.268 409.136 257.579 403.007 252.545 400.708C247.511 398.408 243.214 398.412 245.292 400.757C247.37 403.102 256.481 405.38 259.359 410.473C262.238 415.565 264.821 418.999 256.466 417.742C248.111 416.486 234.531 410.371 233.935 403.371C233.339 396.371 233.339 396.371 233.339 396.371Z" fill="#C8DBF4"/>
<path d="M290.484 384.79C290.484 384.79 243.675 382.984 233.338 396.372C233.338 396.372 231.052 403.218 224.016 409.455L222.92 412.443C222.92 412.443 231.032 403.89 233.934 403.372C233.934 403.372 229.395 386.788 290.484 384.79Z" fill="#C8DBF4"/>
<path d="M224.017 409.454C224.017 409.454 213.969 416.885 213.272 430.16L215.095 430.325C215.095 430.325 218.304 416.594 224.104 411.229C229.904 405.86 224.017 409.454 224.017 409.454Z" fill="#C8DBF4"/>
<path d="M191.83 378.952C191.83 378.952 210.715 368.378 201.902 354.025C201.902 354.025 194.852 345.212 187.298 342.947C187.298 342.947 191.326 364.35 187.298 364.854C183.269 365.358 184.528 340.679 184.528 340.679C184.528 340.679 164.635 331.11 156.83 331.866C156.83 331.866 169.168 352.765 165.139 352.261C161.11 351.76 147.261 330.606 147.261 330.606C147.261 330.606 126.865 326.83 123.592 338.919C120.318 351.004 125.606 357.045 128.628 357.801C131.65 358.557 151.038 358.305 150.535 360.825C150.031 363.342 136.937 367.37 129.635 365.106C129.635 365.106 137.693 384.996 148.268 383.988C158.844 382.984 162.117 376.435 168.664 375.931C175.211 375.427 179.995 377.191 176.722 378.952C173.448 380.716 162.369 379.533 157.081 384.027C151.794 388.521 147.513 391.293 157.333 393.305C167.154 395.321 184.78 394.061 188.305 386.508C191.83 378.952 191.83 378.952 191.83 378.952Z" fill="#C8DBF4"/>
<path d="M132.909 342.695C132.909 342.695 185.787 359.817 191.83 378.952C191.83 378.952 191.578 387.516 196.866 397.334V401.114C196.866 401.114 191.326 388.269 188.305 386.508C188.305 386.508 200.139 369.89 132.909 342.695Z" fill="#C8DBF4"/>
<path d="M196.866 397.334C196.866 397.334 205.021 409.721 200.372 424.792L198.274 424.228C198.274 424.228 200.31 407.628 196.044 399.277C191.777 390.926 196.866 397.334 196.866 397.334Z" fill="#C8DBF4"/>
<path d="M221.875 364.368C221.875 364.368 196.981 350.427 208.598 331.51C208.598 331.51 217.892 319.89 227.849 316.904C227.849 316.904 222.539 345.118 227.849 345.779C233.16 346.444 231.5 313.915 231.5 313.915C231.5 313.915 257.722 301.304 268.012 302.298C268.012 302.298 251.747 329.847 257.058 329.186C262.369 328.521 280.625 300.64 280.625 300.64C280.625 300.64 307.511 295.659 311.825 311.595C316.14 327.527 309.17 335.493 305.187 336.487C301.204 337.484 275.646 337.152 276.31 340.47C276.974 343.791 294.234 349.101 303.859 346.112C303.859 346.112 293.238 372.334 279.297 371.007C265.357 369.681 261.041 361.05 252.411 360.385C243.781 359.723 237.475 362.044 241.79 364.368C246.105 366.692 260.71 365.13 267.68 371.056C274.65 376.981 280.293 380.632 267.348 383.288C254.403 385.945 231.169 384.283 226.522 374.325C221.875 364.368 221.875 364.368 221.875 364.368Z" fill="#D4E4F8"/>
<path d="M299.544 316.572C299.544 316.572 229.841 339.143 221.875 364.368C221.875 364.368 222.207 375.655 215.236 388.598V393.579C215.236 393.579 222.539 376.649 226.522 374.325C226.522 374.325 210.922 352.419 299.544 316.572Z" fill="#D4E4F8"/>
<path d="M215.237 388.598C215.237 388.598 204.488 404.922 210.616 424.792L213.381 424.05C213.381 424.05 210.697 402.164 216.321 391.157C221.945 380.149 215.237 388.598 215.237 388.598Z" fill="#D4E4F8"/>
<path d="M221.037 467.883C247.968 467.883 269.8 446.05 269.8 419.118H172.273C172.273 446.05 194.105 467.883 221.037 467.883Z" fill="#D4E4F8"/>
<path d="M270.473 470.365H171.599C171.599 467.04 174.293 464.349 177.615 464.349H264.457C267.78 464.349 270.473 467.04 270.473 470.365Z" fill="#D4E4F8"/>
<path d="M270.908 420.613H170.669V419.118H270.908V420.613Z" fill="#9FC1F4"/>
<path d="M472.657 628.73L472.899 628.726C474.869 628.691 476.392 627.081 476.206 625.226L463.06 493.952L451.591 494.977L470.466 626.955C470.613 627.988 471.555 628.751 472.657 628.73Z" fill="#8CB4F4"/>
<path d="M346.089 628.73L345.848 628.726C343.877 628.691 342.356 627.081 342.541 625.226L355.687 493.952L367.157 494.977L348.281 626.955C348.134 627.988 347.191 628.751 346.089 628.73Z" fill="#8CB4F4"/>
<path d="M565.39 628.73L565.632 628.726C567.602 628.691 569.125 627.081 568.939 625.226L555.793 493.952L544.324 494.977L563.199 626.955C563.346 627.988 564.288 628.751 565.39 628.73Z" fill="#8CB4F4"/>
<path d="M350.003 474.859L326.671 359.635C323.676 344.036 336.603 329.77 353.387 330.155L398.387 331.18C413.91 331.537 427.406 341.925 431.721 356.842L465.857 474.859H350.003Z" fill="#8CB4F4"/>
<path d="M364.119 474.859L340.787 359.635C337.792 344.036 350.718 329.77 367.504 330.155L412.503 331.18C428.026 331.537 441.522 341.925 445.837 356.842L479.973 474.859H364.119Z" fill="#8CB4F4"/>
<path d="M356.506 495.873H534.537C538.114 495.873 541.04 492.947 541.04 489.37V481.362C541.04 477.785 538.114 474.859 534.537 474.859H350.003V489.37C350.003 492.947 352.929 495.873 356.506 495.873Z" fill="#8CB4F4"/>
<path d="M440.052 495.873H553.543C556.423 495.873 558.782 493.514 558.782 490.633V480.095C558.782 477.214 556.423 474.859 553.543 474.859H440.052C437.171 474.859 434.812 477.214 434.812 480.095V490.633C434.812 493.514 437.171 495.873 440.052 495.873Z" fill="#8CB4F4"/>
<path d="M296.883 473.358V477.288C296.883 478.664 296.437 479.787 295.894 479.787H152.444C151.9 479.787 151.455 478.664 151.455 477.288V473.358C151.455 471.982 151.9 470.859 152.444 470.859H295.894C296.437 470.859 296.883 471.982 296.883 473.358Z" fill="#9ABFE2"/>
<path d="M296.883 473.358V477.288C296.883 478.664 296.474 479.787 295.975 479.787H182.092C181.593 479.787 181.184 478.664 181.184 477.288V473.358C181.184 471.982 181.593 470.859 182.092 470.859H295.975C296.474 470.859 296.883 471.982 296.883 473.358Z" fill="#BAD4F4"/>
<path d="M260.577 628.225H158.736V479.79H260.577V628.225Z" fill="#C8DBF4"/>
<path d="M289.116 628.225H187.275V479.79H289.116V628.225Z" fill="#DFEBFD"/>
<path d="M193.731 619.048H282.663V484.963H193.731V619.048ZM283.645 620.032H192.749V483.983H283.645V620.032Z" fill="#B7D3F3"/>
<path d="M283.154 529.97H193.24V528.99H283.154V529.97Z" fill="#B7D3F3"/>
<path d="M283.154 575.851H193.24V574.871H283.154V575.851Z" fill="#B7D3F3"/>
<path d="M247.41 492.758H230.725C229.916 492.758 229.253 492.093 229.253 491.285C229.253 490.476 229.916 489.811 230.725 489.811H247.41C248.22 489.811 248.882 490.476 248.882 491.285C248.882 492.093 248.22 492.758 247.41 492.758Z" fill="#B7D3F3"/>
<path d="M247.41 537.625H230.725C229.916 537.625 229.253 536.963 229.253 536.155C229.253 535.343 229.916 534.681 230.725 534.681H247.41C248.22 534.681 248.882 535.343 248.882 536.155C248.882 536.963 248.22 537.625 247.41 537.625Z" fill="#B7D3F3"/>
<path d="M247.41 584.398H230.725C229.916 584.398 229.253 583.737 229.253 582.925C229.253 582.116 229.916 581.455 230.725 581.455H247.41C248.22 581.455 248.882 582.116 248.882 582.925C248.882 583.737 248.22 584.398 247.41 584.398Z" fill="#B7D3F3"/>
<path d="M696.679 212.898H632.128C629.164 212.898 626.738 210.473 626.738 207.508V145.205C626.738 142.244 629.164 139.818 632.128 139.818H696.679C699.643 139.818 702.069 142.244 702.069 145.205V207.508C702.069 210.473 699.643 212.898 696.679 212.898Z" fill="#C0D8FB"/>
<path d="M693.882 209.73H634.924C632.215 209.73 630.003 207.518 630.003 204.809V147.903C630.003 145.197 632.215 142.982 634.924 142.982H693.882C696.587 142.982 698.803 145.197 698.803 147.903V204.809C698.803 207.518 696.587 209.73 693.882 209.73Z" fill="#DFEBFD"/>
<path d="M662.844 149.653C662.844 148.792 663.541 148.092 664.402 148.092C665.266 148.092 665.963 148.792 665.963 149.653C665.963 150.514 665.266 151.214 664.402 151.214C663.541 151.214 662.844 150.514 662.844 149.653Z" fill="#B7D3F3"/>
<path d="M675.434 151.858C675.854 151.106 676.803 150.836 677.555 151.253C678.311 151.673 678.581 152.621 678.161 153.374C677.744 154.13 676.792 154.399 676.04 153.979C675.287 153.563 675.014 152.611 675.434 151.858Z" fill="#B7D3F3"/>
<path d="M686.221 160.429C686.945 159.96 687.911 160.17 688.377 160.895C688.846 161.619 688.635 162.585 687.911 163.051C687.19 163.52 686.224 163.31 685.755 162.585C685.289 161.861 685.496 160.895 686.221 160.429Z" fill="#B7D3F3"/>
<path d="M691.565 173.695C692.426 173.695 693.123 174.391 693.123 175.252C693.123 176.117 692.426 176.813 691.565 176.813C690.701 176.813 690.004 176.117 690.004 175.252C690.004 174.391 690.701 173.695 691.565 173.695Z" fill="#B7D3F3"/>
<path d="M688.835 189.087C689.444 189.696 689.444 190.683 688.835 191.292C688.226 191.901 687.239 191.901 686.63 191.292C686.021 190.683 686.021 189.696 686.63 189.087C687.239 188.478 688.226 188.478 688.835 189.087Z" fill="#B7D3F3"/>
<path d="M679.038 198.912C679.647 199.521 679.647 200.508 679.038 201.117C678.429 201.726 677.439 201.726 676.83 201.117C676.221 200.508 676.221 199.521 676.83 198.912C677.439 198.303 678.429 198.303 679.038 198.912Z" fill="#B7D3F3"/>
<path d="M662.844 203.973C662.844 203.112 663.541 202.416 664.402 202.416C665.266 202.416 665.963 203.112 665.963 203.973C665.963 204.838 665.266 205.534 664.402 205.534C663.541 205.534 662.844 204.838 662.844 203.973Z" fill="#B7D3F3"/>
<path d="M653.324 151.858C652.904 151.106 651.956 150.836 651.2 151.253C650.447 151.673 650.178 152.621 650.594 153.374C651.014 154.13 651.963 154.399 652.719 153.979C653.471 153.563 653.741 152.611 653.324 151.858Z" fill="#B7D3F3"/>
<path d="M642.537 160.429C641.812 159.96 640.846 160.17 640.377 160.895C639.912 161.619 640.118 162.585 640.843 163.051C641.567 163.52 642.533 163.31 643.002 162.585C643.468 161.861 643.261 160.895 642.537 160.429Z" fill="#B7D3F3"/>
<path d="M637.192 173.695C636.331 173.695 635.631 174.391 635.631 175.252C635.631 176.117 636.331 176.813 637.192 176.813C638.053 176.813 638.753 176.117 638.753 175.252C638.753 174.391 638.053 173.695 637.192 173.695Z" fill="#B7D3F3"/>
<path d="M639.922 189.087C639.31 189.696 639.31 190.683 639.922 191.292C640.531 191.901 641.518 191.901 642.127 191.292C642.736 190.683 642.736 189.696 642.127 189.087C641.518 188.478 640.531 188.478 639.922 189.087Z" fill="#B7D3F3"/>
<path d="M649.719 198.912C649.11 199.521 649.11 200.508 649.719 201.117C650.328 201.726 651.319 201.726 651.928 201.117C652.537 200.508 652.537 199.521 651.928 198.912C651.319 198.303 650.328 198.303 649.719 198.912Z" fill="#B7D3F3"/>
<path d="M663.981 175.252C663.981 174.391 664.681 173.695 665.542 173.695C666.403 173.695 667.103 174.391 667.103 175.252C667.103 176.117 666.403 176.813 665.542 176.813C664.681 176.813 663.981 176.117 663.981 175.252Z" fill="#B7D3F3"/>
<path d="M665.756 175.252H665.329V155.76H665.756V175.252Z" fill="#B7D3F3"/>
<path d="M665.742 175.728L664.951 174.723L675.286 166.61L676.074 167.615L665.742 175.728Z" fill="#B7D3F3"/>
<path d="M505.095 450.744C495.463 467.509 483.35 473.977 483.35 473.977H432.953C432.953 473.977 512.442 437.959 505.095 450.744Z" fill="#233862"/>
<path d="M567.252 617.281C566.71 622.569 574.063 623.934 582.593 624.452C591.122 624.967 588.525 626.689 600.198 628.932C611.87 631.176 616.592 628.026 617.456 626.454C618.223 625.061 612.808 622.811 607.04 620.27C606.316 619.951 605.588 619.626 604.863 619.297C598.371 616.36 594.773 610.473 589.747 604.996C584.987 599.805 580.591 583.313 580.591 583.313L564.732 579.747C564.732 579.747 569.037 594.597 570.518 600.932C571.389 604.66 570 608.8 568.775 611.95C568.113 613.665 567.445 615.419 567.252 617.281Z" fill="#A0616A"/>
<path d="M582.593 624.452C591.123 624.967 588.526 626.689 600.198 628.932C611.871 631.176 616.592 628.026 617.457 626.454C618.223 625.061 612.809 622.811 607.041 620.27L606.95 620.368C606.95 620.368 598.697 623.07 589.233 620.389C581.519 618.205 574.088 613.501 568.775 611.95C568.114 613.665 567.445 615.419 567.253 617.281C566.71 622.569 574.064 623.934 582.593 624.452Z" fill="#0F2549"/>
<path d="M543.228 433.573C534.698 427.585 478.257 416.903 449.452 413.812L417.62 386.176C417.62 386.176 390.519 426.314 390.306 457.02C390.208 471.335 396.802 472.756 396.802 472.759C396.802 472.759 498.858 473.519 503.331 473.977C510.653 474.733 520.31 492.975 522.725 509.59C525.14 526.204 567.696 593.779 567.696 593.779C567.696 593.779 576.572 596.624 580.674 596.383C585.088 596.124 587.132 594.643 587.132 594.643C587.132 594.643 562.471 447.087 543.228 433.573Z" fill="#3F3D56"/>
<path d="M540.855 617.281C540.312 622.569 547.666 623.934 556.195 624.452C564.725 624.967 562.128 626.689 573.8 628.932C585.473 631.176 590.194 628.026 591.055 626.454C591.825 625.061 586.411 622.811 580.643 620.27C579.918 619.951 579.19 619.626 578.466 619.297C571.973 616.36 568.375 610.473 563.349 604.996C558.589 599.805 554.193 583.313 554.193 583.313L538.335 579.747C538.335 579.747 542.64 594.597 544.12 600.932C544.992 604.66 543.602 608.8 542.377 611.95C541.712 613.665 541.047 615.419 540.855 617.281Z" fill="#A0616A"/>
<path d="M556.196 624.452C564.725 624.967 562.128 626.689 573.801 628.932C585.473 631.176 590.195 628.026 591.056 626.454C591.826 625.061 586.411 622.811 580.643 620.27L580.552 620.368C580.552 620.368 572.299 623.07 562.835 620.389C555.121 618.205 547.691 613.501 542.378 611.95C541.713 613.665 541.048 615.419 540.855 617.281C540.313 622.569 547.666 623.934 556.196 624.452Z" fill="#233862"/>
<path d="M516.6 433.573C509.187 428.369 486.892 424.333 462.283 421.341C455.479 420.511 449.89 415.566 448.231 408.916L390.988 386.176C390.988 386.176 363.891 426.314 363.674 457.02C363.576 471.335 370.17 472.756 370.17 472.759C370.17 472.759 472.227 473.519 476.7 473.977C484.022 474.733 493.682 492.975 496.093 509.59C498.508 526.204 541.065 593.779 541.065 593.779C541.065 593.779 549.941 596.624 554.043 596.383C558.46 596.124 560.5 594.643 560.5 594.643C560.5 594.643 535.839 447.087 516.6 433.573Z" fill="#3F3D56"/>
<path d="M440.003 219.422C432.135 215.289 420.169 214.732 418.223 214.47C394.955 211.344 380.951 245.154 380.125 255.399C378.61 274.285 368.621 277.162 354.558 288.988C326.364 312.701 334.632 340.256 350.05 350.497C359.297 356.64 375.603 350.494 375.603 350.494C375.834 350.655 420.193 325.696 442.058 313.656C474.839 308.998 460.048 229.947 440.003 219.422Z" fill="#233862"/>
<path d="M435.148 302.025C435.253 302.078 424.809 306.827 417.273 304.335C410.182 302.001 403.938 291.326 404.036 291.308C407.116 290.864 410.242 287.826 411.117 269.836L412.478 270.179L435.393 275.972C435.393 275.972 434.486 283.231 434.112 290.094C433.797 295.859 433.863 301.339 435.148 302.025Z" fill="#A0616A"/>
<path d="M435.393 275.972C435.393 275.972 435.393 277.466 434.536 284.218C421.579 280.949 415.863 276.654 411.835 271.737L435.393 275.972Z" fill="#A0616A"/>
<path d="M440.282 276.885C440.282 276.885 409.979 281.82 407.2 262.902C404.418 243.985 398.632 231.882 417.861 227.93C437.09 223.982 441.92 230.646 444.384 236.736C446.848 242.823 448.091 275.114 440.282 276.885Z" fill="#A0616A"/>
<path d="M440.311 227.14C440.311 227.14 426.552 248.861 414.267 254.006C401.982 259.151 395.948 256.536 395.948 256.536C395.948 256.536 401.538 248.063 402.994 236.688C403.421 233.331 405.608 230.458 408.744 229.201C417.561 225.67 434.613 220.101 440.311 227.14Z" fill="#233862"/>
<path d="M428.225 229.24C428.225 229.24 436.289 233.373 439.61 237.251C442.816 240.989 446.519 251.136 446.253 255.693C446.253 255.693 450.233 233.856 441.945 226.348C433.156 218.386 428.225 229.24 428.225 229.24Z" fill="#233862"/>
<path d="M459.389 348.24C458.472 409.833 459.137 396.96 452.399 402.805C450.775 404.212 446.215 405.052 440.205 405.447C421.319 406.7 388.122 403.592 386.858 400.099C382.501 388.024 385.577 384.272 381.944 365.782C381.563 363.815 381.094 361.687 380.544 359.37C377.513 346.672 374.566 342.349 385.315 321.951C395.066 303.471 406.532 288.456 407.442 288.998C433.163 304.269 434.045 291.47 434.045 291.47C434.045 291.47 459.84 318.199 459.389 348.24Z" fill="white"/>
<path d="M434.046 291.47C434.046 291.47 460.373 295.932 463.481 307.325C466.589 318.721 484.876 385.714 484.876 385.714C484.876 385.714 471.422 388.133 465.206 381.917C458.99 375.701 443.576 324.247 443.576 324.247L434.046 291.47Z" fill="white"/>
<path d="M440.206 405.447C421.32 406.7 388.122 403.592 386.859 400.099C382.501 388.024 385.578 384.272 381.945 365.782L391.052 340.134C391.052 340.134 389.547 368.697 397.971 376.208C406.385 383.723 432.46 390.712 436.555 396.988C438.529 400.001 439.828 403.022 440.206 405.447Z" fill="#EBF3FF"/>
<path d="M418.568 393.435C418.568 393.435 437.199 389.288 440.205 390.94C443.212 392.592 450.562 398.615 451.479 400.712C452.399 402.805 444.787 399.119 442.312 398.454C440.706 398.024 436.485 399.494 434.395 400.19C425.603 403.12 420.213 401.611 420.213 401.611L418.568 393.435Z" fill="#A0616A"/>
<path d="M407.442 288.999C407.442 288.999 381.073 290.539 372.41 302.617C360.22 319.624 336.035 392.091 349.895 401.755C365.505 412.64 420.938 404.6 420.938 404.6C420.938 404.6 422.782 395.98 420.213 391.808C417.648 387.639 375.942 380.902 374.017 378.977C372.092 377.052 398.076 341.439 398.076 335.664C398.076 329.889 407.442 288.999 407.442 288.999Z" fill="white"/>
<path d="M441.108 396.127C441.108 396.127 445.011 401.16 446.292 401.762C447.573 402.364 448.399 402.213 448.399 402.213L445.767 397.478L441.108 396.127Z" fill="#F9A826"/>
<path d="M440.205 390.94L451.556 396.452C451.556 396.452 451.073 397.243 449.676 397.177C448.28 397.114 444.755 395.826 444.755 395.826L440.205 390.94Z" fill="#F9A826"/>
<path d="M482.02 404.005H429.303C429.303 401.685 431.186 399.805 433.507 399.805H482.02V404.005Z" fill="#ED7D2B"/>
<path d="M481.866 346.595H563.371L543.82 404.005H461.79L481.866 346.595Z" fill="#ED7D2B"/>
<path d="M564.571 346.591L545.02 404.005H462.991L483.07 346.591H564.571Z" fill="#F9A826"/>
<path d="M520.629 387.766C520.125 389.961 517.934 391.739 515.739 391.739C513.548 391.739 512.18 389.961 512.687 387.766C513.191 385.572 515.382 383.794 517.573 383.794C519.768 383.794 521.136 385.572 520.629 387.766Z" fill="white"/>
<path d="M411.082 416.923H768.254C769.755 416.923 770.973 415.705 770.973 414.204V406.724C770.973 405.223 769.755 404.005 768.254 404.005H411.082C409.581 404.005 408.363 405.223 408.363 406.724V414.204C408.363 415.705 409.581 416.923 411.082 416.923Z" fill="#182D4F"/>
<path d="M776.997 629.692L777.151 629.674C778.981 629.447 780.276 627.812 780.045 626.024L748.216 410.578L736.565 410.91L774.011 627.525C774.253 628.911 775.569 629.867 776.997 629.692Z" fill="#182D4F"/>
<path d="M399.123 629.692L398.969 629.674C397.138 629.447 395.843 627.812 396.074 626.024L427.903 410.578L439.555 410.91L402.105 627.525C401.867 628.911 400.551 629.867 399.123 629.692Z" fill="#182D4F"/>
<path d="M472.805 629.692L472.651 629.674C470.824 629.447 469.525 627.812 469.76 626.024L501.585 410.578L513.24 410.91L475.79 627.525C475.549 628.911 474.233 629.867 472.805 629.692Z" fill="#182D4F"/>
<path d="M1060.73 631.467H71.5353C70.7916 631.467 70.1829 630.858 70.1829 630.116V629.01C70.1829 628.264 70.7916 627.655 71.5353 627.655H1060.73C1061.47 627.655 1062.08 628.264 1062.08 629.01V630.116C1062.08 630.858 1061.47 631.467 1060.73 631.467Z" fill="#2E3552"/>
<path d="M660.58 629.517H723.741C726.779 625.811 725.659 612.133 725.2 607.667C725.102 606.767 725.039 606.242 725.039 606.242C725.039 606.242 703.472 588.991 700.508 602.2C700.417 602.613 700.308 603.019 700.189 603.418C696.458 615.773 679.714 621.39 670.047 622.951C663.761 623.973 661.441 627.239 660.58 629.517Z" fill="#233862"/>
<path d="M832.92 424.291C830.638 424.291 724.731 444.175 707.214 465.861C698.46 476.693 697.158 601.804 697.158 601.804C697.158 601.804 707.987 615.227 731.371 607.432C731.371 607.432 748.514 521.836 747.25 495.873C746.897 488.695 819.609 494.834 832.92 491.39C846.227 487.946 878.745 458.994 871.577 444.892C864.413 430.787 832.92 424.291 832.92 424.291Z" fill="#3F3D56"/>
<path d="M707.666 393.656C707.666 393.656 686.305 393.943 681.251 396.109C676.201 398.272 665.949 403.242 668.693 404.005C671.437 404.768 684.524 403.694 687.352 404.124C690.18 404.558 693.666 404.005 695.398 404.005C697.131 404.005 705.209 404.005 705.209 404.005L707.666 393.656Z" fill="#FFB8B8"/>
<path d="M682.69 342.388C682.69 342.388 675.406 337.183 668.333 336.172C664.301 335.594 660.377 334.877 658.008 334.04C651.48 331.741 638.422 320.002 639.412 318.623C642.576 314.209 657.822 323.551 660.482 322.546C663.146 321.545 655.369 316.015 658.074 314.073C659.485 313.054 662.789 318.147 665.491 318.658C669.145 319.347 672.004 324.51 673.103 324.779C675.245 325.304 684.622 332.276 684.622 332.276L682.69 342.388Z" fill="#FFB8B8"/>
<path d="M822.37 281.607C822.37 281.607 806.109 286.647 790.086 330.768C774.063 374.889 767.976 377.272 762.152 379.005C756.328 380.734 705.207 390.912 705.207 390.912V404.005H783.978C783.978 404.005 813.515 375.911 822.37 356.997C831.225 338.079 822.37 281.607 822.37 281.607Z" fill="#F9A826"/>
<path d="M632.668 629.517H695.825C698.863 625.811 697.743 612.133 697.285 607.667C697.19 606.767 697.127 606.242 697.127 606.242C697.127 606.242 675.557 588.991 672.596 602.2C672.505 602.613 672.396 603.019 672.277 603.418C668.543 615.773 651.802 621.39 642.135 622.951C635.849 623.973 633.525 627.239 632.668 629.517Z" fill="#1B3051"/>
<path d="M801.71 424.291C799.428 424.291 693.522 444.175 676.004 465.861C667.251 476.693 665.949 601.804 665.949 601.804C665.949 601.804 676.778 615.227 700.161 607.432C700.161 607.432 717.304 521.836 716.041 495.873C715.687 488.695 788.4 494.834 801.71 491.39C815.017 487.946 847.536 458.994 840.368 444.892C833.203 430.787 801.71 424.291 801.71 424.291Z" fill="#3F3D56"/>
<path d="M808.339 295.589C815.955 294.959 823.945 292.929 830.847 290.689C839.478 287.889 846.436 283.794 841.953 275.908C837.819 268.639 831.134 252.396 831.586 238.942L815.528 251.885L804.618 260.677C804.618 260.677 804.664 265.857 805.854 274.939C806.074 276.595 806.326 278.383 806.627 280.29C806.872 281.834 806.162 283.378 804.835 284.2C804.751 284.249 804.671 284.302 804.59 284.354C799.169 287.76 801.955 296.114 808.339 295.589Z" fill="#F9A826"/>
<path d="M804.619 258.534C804.619 258.534 804.059 260.417 805.018 267.365C814.744 265.779 823.837 258.023 823.837 258.023C818.885 256.662 817.082 251.314 813.397 251.811L804.619 258.534Z" fill="#ED975D"/>
<path d="M795.623 260.12C795.623 260.12 833.032 266.336 836.546 242.98C840.056 219.621 847.249 204.694 823.512 199.738C799.775 194.782 793.786 202.997 790.717 210.508C787.647 218.019 785.981 257.901 795.623 260.12Z" fill="#FFB8B8"/>
<path d="M785.214 200.172C783.608 205.797 787.906 212.646 795.123 214.904C805.836 218.25 803.47 231.389 808.29 231.214C813.109 231.032 815.055 223.657 819.36 229.551C823.035 234.577 816.305 240.534 816.767 243.292C817.561 248.024 824.974 257.705 831.652 257.219C838.334 256.732 850.832 224.991 848.33 215.17C845.831 205.349 835.831 194.992 826.371 193.564C816.907 192.136 803.764 196.224 800.73 196.224C797.695 196.224 786.082 197.134 785.214 200.172Z" fill="#2B478B"/>
<path d="M872.077 314.023C866.669 292.26 851.724 269.423 841.62 269.444C824.403 269.475 799.648 274.018 789.655 298.672C782.295 316.83 772.477 421.281 783.572 428.708C808.937 445.69 867.733 480.357 878.177 445.004C887.75 412.615 881.46 351.792 872.077 314.023Z" fill="#F9A826"/>
<path d="M830.256 292.366C825.345 279.587 809.501 275.17 798.696 283.577C792.851 288.124 785.697 294.598 777.052 303.803C744.919 338.019 738.388 337.81 732.354 337.103C726.316 336.396 675.328 325.573 675.328 325.573C675.328 325.573 672.717 327.498 671.181 330.613C669.13 334.771 670.162 337.603 670.162 337.603C668.164 336.315 688.236 350.151 698.229 355.667C711.42 362.95 731.3 369.782 739.221 372.376C741.464 373.111 743.883 373.072 746.105 372.271C757.858 368.036 797.328 352.601 829.454 325.815C837.921 318.756 834.809 304.213 830.256 292.366Z" fill="#F9A826"/>
<path d="M843.353 269.654L839.458 260.869C839.458 260.869 804.563 263.715 798.697 283.577C798.697 283.577 825.745 270.078 843.353 269.654Z" fill="white"/>
<path d="M928.074 628.73L928.315 628.726C930.286 628.691 931.805 627.081 931.619 625.226L918.477 493.952L907.007 494.977L925.879 626.955C926.03 627.988 926.971 628.751 928.074 628.73Z" fill="#8CB4F4"/>
<path d="M860.416 628.73L860.658 628.726C862.628 628.691 864.151 627.081 863.965 625.226L850.819 493.952L839.35 494.977L858.225 626.955C858.372 627.988 859.314 628.751 860.416 628.73Z" fill="#8CB4F4"/>
<path d="M733.4 628.73L733.159 628.726C731.192 628.691 729.669 627.081 729.855 625.226L742.997 493.952L754.467 494.977L735.595 626.955C735.448 627.988 734.503 628.751 733.4 628.73Z" fill="#73A2E5"/>
<path d="M924.361 475.356L936.834 365.715C938.469 349.916 933.184 334.443 910.382 333.246L870.272 330.803C846.496 329.823 835.762 349.608 832.752 364.84L808.938 485.366L924.361 475.356Z" fill="#8CB4F4"/>
<path d="M917.654 495.873H739.627C736.05 495.873 733.12 492.947 733.12 489.37V481.362C733.12 477.785 736.05 474.859 739.627 474.859H924.157V489.37C924.157 492.947 921.231 495.873 917.654 495.873Z" fill="#73A2E5"/>
<path d="M919.107 495.873H813.988C811.213 495.873 808.938 493.598 808.938 490.822V479.909C808.938 477.13 811.213 474.859 813.988 474.859H924.158V490.822C924.158 493.598 921.886 495.873 919.107 495.873Z" fill="#8CB4F4"/>
</svg>
