<svg width="480" height="453" viewBox="0 0 480 453" fill="none" xmlns="http://www.w3.org/2000/svg">
<g clip-path="url(#clip0_54982_45372)">
<path d="M348.482 256.549V381.407L369.367 415.444L370.957 418.033H453.363L455.028 256.549H348.482Z" fill="#E6E6E6"/>
<path opacity="0.1" d="M348.482 256.549V381.407L369.367 415.444L370.649 256.549H348.482Z" fill="black"/>
<path d="M149.541 253.219V378.078L128.656 412.114L127.066 414.703H44.6599L42.9949 253.219H149.541Z" fill="#E6E6E6"/>
<path opacity="0.1" d="M149.541 253.219V378.078L128.656 412.114L127.374 253.219H149.541Z" fill="black"/>
<path d="M480 250.723V258.214H32.1738V247.392L73.7932 225.75H443.375L480 250.723Z" fill="#E6E6E6"/>
<path opacity="0.1" d="M480 250.722V258.213H32.1738V247.392L480 250.722Z" fill="black"/>
<path d="M96.2682 288.18H76.2904L67.9665 282.353H105.424L96.2682 288.18Z" fill="#3F3D56"/>
<path d="M96.2682 312.319H76.2904L67.9665 306.492H105.424L96.2682 312.319Z" fill="#3F3D56"/>
<path d="M96.2682 346.447H76.2904L67.9665 340.62H105.424L96.2682 346.447Z" fill="#3F3D56"/>
<path d="M96.2682 380.575H76.2904L67.9665 374.748H105.424L96.2682 380.575Z" fill="#3F3D56"/>
<path d="M401.755 291.509H421.733L430.057 285.682H392.599L401.755 291.509Z" fill="#3F3D56"/>
<path d="M401.755 315.648H421.733L430.057 309.822H392.599L401.755 315.648Z" fill="#3F3D56"/>
<path d="M401.755 349.777H421.733L430.057 343.95H392.599L401.755 349.777Z" fill="#3F3D56"/>
<path d="M401.755 383.905H421.733L430.057 378.078H392.599L401.755 383.905Z" fill="#3F3D56"/>
<path d="M415.359 81.3639H247.177C246.342 81.3638 245.515 81.5282 244.743 81.8478C243.972 82.1674 243.27 82.6359 242.68 83.2266C242.089 83.8172 241.621 84.5184 241.301 85.2902C240.981 86.0619 240.817 86.889 240.817 87.7243V201.016C240.817 201.851 240.981 202.678 241.301 203.45C241.621 204.222 242.089 204.923 242.68 205.514C243.27 206.104 243.972 206.573 244.743 206.893C245.515 207.212 246.342 207.377 247.177 207.376H311.021L308.629 222.648C308.629 222.648 294.96 229.909 304.571 230.123C314.182 230.336 359.461 230.123 359.461 230.123C359.461 230.123 368.218 230.123 354.335 222.434L352.085 207.376H415.359C416.195 207.377 417.022 207.212 417.794 206.893C418.565 206.573 419.267 206.104 419.857 205.514C420.448 204.923 420.916 204.222 421.236 203.45C421.556 202.678 421.72 201.851 421.72 201.016V87.7243C421.72 86.889 421.556 86.0619 421.236 85.2902C420.916 84.5184 420.448 83.8172 419.857 83.2266C419.267 82.6359 418.565 82.1674 417.794 81.8478C417.022 81.5282 416.195 81.3638 415.359 81.3639Z" fill="#3F3D56"/>
<path d="M415.633 88.0917H246.904V182.494H415.633V88.0917Z" fill="#F2F2F2"/>
<path d="M331.268 86.1695C331.858 86.1695 332.336 85.6914 332.336 85.1016C332.336 84.5118 331.858 84.0337 331.268 84.0337C330.679 84.0337 330.201 84.5118 330.201 85.1016C330.201 85.6914 330.679 86.1695 331.268 86.1695Z" fill="#F2F2F2"/>
<path d="M331.268 202.785C333.51 202.785 335.327 200.968 335.327 198.726C335.327 196.485 333.51 194.668 331.268 194.668C329.027 194.668 327.21 196.485 327.21 198.726C327.21 200.968 329.027 202.785 331.268 202.785Z" fill="#F2F2F2"/>
<path d="M324.945 241.656V243.792H210.039V242.083L210.197 241.656L213.029 233.967H322.596L324.945 241.656Z" fill="#3F3D56"/>
<path d="M369.165 239.565C368.955 240.46 368.165 241.404 366.379 242.297C359.972 245.501 346.944 241.443 346.944 241.443C346.944 241.443 336.905 239.734 336.905 235.249C337.187 235.056 337.481 234.881 337.785 234.726C340.479 233.3 349.411 229.784 365.248 234.875C366.415 235.241 367.457 235.924 368.259 236.847C368.614 237.197 368.881 237.625 369.039 238.097C369.196 238.57 369.239 239.073 369.165 239.565Z" fill="#3F3D56"/>
<path opacity="0.1" d="M369.165 239.565C361.322 242.57 354.331 242.795 347.157 237.812C344.444 235.806 341.159 234.724 337.785 234.726C340.479 233.3 349.411 229.784 365.248 234.875C366.415 235.241 367.457 235.924 368.259 236.847C368.614 237.197 368.881 237.625 369.039 238.097C369.196 238.57 369.239 239.073 369.165 239.565Z" fill="black"/>
<path d="M359.331 237.812C360.865 237.812 362.108 237.429 362.108 236.957C362.108 236.486 360.865 236.103 359.331 236.103C357.798 236.103 356.555 236.486 356.555 236.957C356.555 237.429 357.798 237.812 359.331 237.812Z" fill="#F2F2F2"/>
<path opacity="0.1" d="M324.945 241.656V243.792H210.039V242.083L210.197 241.656H324.945Z" fill="black"/>
<path d="M63.8896 0.0647754C62.7234 -0.0309724 61.5557 0.22989 60.5411 0.812797C59.5449 1.49501 58.917 2.69018 58.2761 3.80236C55.8257 8.10544 52.5083 11.8527 48.534 14.8068C45.6393 16.9274 41.9591 19.5716 42.4544 23.4814C42.7156 24.7726 43.1926 26.0106 43.8653 27.1432C46.5358 32.5339 53.8229 36.6997 53.1062 42.8509C55.7593 38.4093 52.2105 36.213 54.8637 31.7714C56.1272 29.6562 58.3221 27.2685 60.2297 28.5968C60.8684 29.0416 61.2878 29.8393 61.9529 30.2296C63.5398 31.1608 65.228 29.3806 66.6327 28.1196C71.4766 23.7713 78.365 24.9104 84.3927 26.2652C87.2383 26.9049 90.364 27.744 92.0462 30.4638C94.2579 34.0397 89.9448 37.9017 88.8551 41.9446C88.7661 42.2891 88.7619 42.65 88.8428 42.9965C88.9237 43.343 89.0874 43.6647 89.3197 43.9341C89.5521 44.2036 89.8462 44.4127 90.177 44.5437C90.5078 44.6747 90.8655 44.7236 91.2193 44.6863C93.0279 44.5078 95.1705 44.3616 95.2775 43.5679C97.553 43.6489 100.341 43.3912 101.316 41.0218C101.614 40.0843 101.772 39.1078 101.784 38.1242C102.141 34.144 103.831 30.5129 104.95 26.7247C106.069 22.9365 106.556 18.497 104.667 15.1384C103.993 14.0209 103.159 13.0078 102.193 12.1312C91.4755 1.75976 77.3848 0.0493803 63.8896 0.0647754Z" fill="#2F2E41"/>
<path d="M55.437 50.6203C55.437 50.6203 57.7677 70.0436 49.2215 71.5975C40.6752 73.1514 56.9908 99.5671 56.9908 99.5671L95.8375 104.229L86.5143 73.1513C86.5143 73.1513 80.2988 70.8205 84.1835 55.2819C88.0682 39.7432 55.437 50.6203 55.437 50.6203Z" fill="#FFB8B8"/>
<path d="M31.7405 384.313L34.8485 427.045H51.1635L46.5025 384.313H31.7405Z" fill="#FFB8B8"/>
<path d="M151.388 303.512L153.719 339.251L171.589 331.482L164.596 301.958L151.388 303.512Z" fill="#FFB8B8"/>
<path d="M20.0865 221.157C20.0865 221.157 20.8634 266.219 25.5251 280.981C30.1867 295.743 29.4097 296.52 28.6328 298.85C27.8559 301.181 27.0789 299.627 27.0789 303.512C27.0789 307.397 25.5251 368.774 27.0789 374.213C28.6328 379.651 22.4173 388.975 27.0789 389.752C31.7405 390.528 53.4946 389.752 54.2716 385.09C55.0485 380.428 48.0561 378.874 51.1639 375.767C54.2716 372.659 58.9332 308.951 58.9332 308.951L69.8103 264.665L90.0105 241.357H132.742L145.95 292.635C145.95 292.635 140.511 307.397 144.396 307.397C148.28 307.397 171.588 312.058 171.588 294.966C171.588 277.873 163.819 227.373 162.265 225.819C160.711 224.265 163.042 218.826 160.711 216.495C158.381 214.165 131.188 197.849 121.088 194.741C110.988 191.634 96.8189 187.935 96.8189 187.935L20.0865 221.157Z" fill="#2F2E41"/>
<path d="M171.588 325.266C171.588 325.266 159.934 321.381 154.496 333.035C149.057 344.689 151.388 347.797 151.388 347.797C151.388 347.797 169.258 354.013 172.365 350.905C173.717 349.553 178.011 349.083 182.43 348.984C189.161 348.833 190.952 339.31 184.595 337.092C184.406 337.026 184.214 336.969 184.019 336.92C177.804 335.366 171.588 325.266 171.588 325.266Z" fill="#2F2E41"/>
<path d="M72.9179 63.4396C85.7906 63.4396 96.2259 53.0042 96.2259 40.1316C96.2259 27.259 85.7906 16.8236 72.9179 16.8236C60.0453 16.8236 49.61 27.259 49.61 40.1316C49.61 53.0042 60.0453 63.4396 72.9179 63.4396Z" fill="#FFB8B8"/>
<path d="M42.6176 81.309C42.6176 81.309 80.6873 89.0784 90.0105 76.6474C99.3337 64.2165 103.218 111.609 103.218 111.609L107.88 161.333L100.888 188.526C100.888 188.526 64.3717 218.049 52.7177 220.38C41.0637 222.711 23.1942 224.265 23.1942 224.265C23.1942 224.265 28.6328 138.025 28.6328 136.471C28.6328 134.917 42.6176 81.309 42.6176 81.309Z" fill="#F9A826"/>
<path d="M54.1955 66.7379C54.1955 66.7379 45.7253 61.8857 43.3945 66.5473C41.0637 71.2089 19.3096 82.8629 16.9788 82.8629C14.648 82.8629 21.6404 147.348 18.5326 155.118C15.4249 162.887 0.663179 219.603 9.20944 224.265C17.7557 228.926 11.5402 219.603 20.0865 231.257C28.6328 242.911 70.5871 242.911 72.9179 238.25C75.2487 233.588 54.2716 198.626 58.1562 165.995C62.0409 133.364 68.2564 88.3015 62.8178 82.086C57.3793 75.8705 54.1955 66.7379 54.1955 66.7379Z" fill="#2F2E41"/>
<path d="M82.2412 71.9858L83.3234 68.2616C83.3234 68.2616 115.649 78.9782 117.203 85.9706C118.757 92.963 117.98 141.91 112.542 145.794C107.103 149.679 99.3337 155.895 104.772 165.218C110.211 174.541 116.426 184.641 121.088 185.418C125.749 186.195 134.296 191.634 131.965 197.072C129.634 202.511 101.665 192.41 101.665 192.41C101.665 192.41 83.0181 178.426 83.795 156.672C84.572 134.917 82.2412 71.9858 82.2412 71.9858Z" fill="#2F2E41"/>
<path d="M109.434 163.664L90.7874 198.626C90.7874 198.626 63.5948 226.596 79.1334 229.703C94.6721 232.811 103.218 204.064 103.218 204.064L123.419 175.318L109.434 163.664Z" fill="#FFB8B8"/>
<path d="M65.025 6.16327C64.0856 6.09366 63.1445 6.27618 62.2992 6.69197C61.5349 7.25017 60.905 7.97209 60.4554 8.80497C58.3831 11.9222 55.6818 14.5715 52.525 16.5828C50.1686 18.0817 47.1727 19.9505 47.5759 22.714C47.7947 23.6405 48.1842 24.5182 48.7245 25.3021C50.9058 29.1507 51.7742 33.6051 51.1982 37.9912L57.6776 28.5733C58.7061 27.0783 60.4929 25.3907 62.0458 26.3296C62.5657 26.6439 62.9071 27.2078 63.4485 27.4836C64.7403 28.1418 66.1146 26.8835 67.2581 25.9922C71.2012 22.9189 76.8087 23.724 81.7155 24.6816C84.0319 25.1337 86.5763 25.7268 87.9457 27.6491C90.2213 30.8436 87.8451 35.4594 89.1733 39.1498C89.545 38.8896 89.8608 38.5573 90.1017 38.1727C90.3427 37.7881 90.504 37.3591 90.5761 36.911C92.4285 36.9683 94.6982 36.7861 95.4919 35.1114C95.7333 34.4551 95.862 33.7626 95.8724 33.0634C96.1637 30.2502 97.5388 27.6838 98.4498 25.0063C99.3608 22.3289 99.7569 19.191 98.2196 16.8172C97.6572 16.0128 96.9784 15.2965 96.2054 14.6917C87.4812 7.36126 76.0107 6.15239 65.025 6.16327Z" fill="#2F2E41"/>
<path d="M109.434 82.8629L116.673 84.7843C116.673 84.7843 133.519 127.925 129.634 157.448C125.749 186.972 123.419 180.756 123.419 180.756C123.419 180.756 117.203 166.772 103.218 169.879L109.434 82.8629Z" fill="#2F2E41"/>
<path d="M32.8169 421.397C30.9434 423.943 31.319 427.582 29.6594 430.273C28.2208 432.605 25.5097 433.828 23.7103 435.894C23.1362 436.581 22.6243 437.317 22.1808 438.094C20.5117 440.89 19.1549 444.473 20.7989 447.284C22.1213 449.545 24.901 450.429 27.4503 451.031C30.6724 451.793 34.0202 452.402 37.2796 451.82C40.5389 451.239 43.7244 449.243 44.8865 446.143C45.1149 445.363 45.3864 444.597 45.6998 443.847C47.4664 440.369 53.0076 440.332 54.8156 436.875C56.0808 434.456 54.9178 431.532 53.7551 429.063L50.2043 421.519C49.0259 419.015 44.249 420.455 41.7587 419.855C38.5107 419.073 35.1534 418.211 32.8169 421.397Z" fill="#2F2E41"/>
<path d="M6.87865 179.203L39.5098 229.703C39.5098 229.703 59.7101 255.342 65.9256 243.688C72.141 232.034 44.1714 212.611 44.1714 212.611L23.1942 173.764L6.87865 179.203Z" fill="#FFB8B8"/>
<path d="M23.1942 84.4168L16.9788 82.8629C16.9788 82.8629 4.54784 86.7476 1.44011 103.063C-1.66762 119.379 0.663172 184.641 4.54784 185.418C8.4325 186.195 23.7342 174.055 26.1835 176.629C28.6328 179.203 20.8634 165.995 23.1942 159.002C25.525 152.01 23.1942 84.4168 23.1942 84.4168Z" fill="#2F2E41"/>
<path d="M315.298 119.097H295.218V123.931H315.298V119.097Z" fill="#F9A826"/>
<path d="M384.837 119.097H377.772V123.931H384.837V119.097Z" fill="#F9A826"/>
<path d="M398.968 119.097H391.902V123.931H398.968V119.097Z" fill="#F9A826"/>
<path d="M370.334 119.097H322.364V123.931H370.334V119.097Z" fill="#F9A826"/>
<path d="M290.012 150.333H269.931V155.167H290.012V150.333Z" fill="#F9A826"/>
<path d="M359.55 150.333H352.485V155.167H359.55V150.333Z" fill="#F9A826"/>
<path d="M373.681 150.333H366.616V155.167H373.681V150.333Z" fill="#F9A826"/>
<path d="M345.048 150.333H297.077V155.167H345.048V150.333Z" fill="#F9A826"/>
<path d="M372.937 129.881H352.857V134.715H372.937V129.881Z" fill="#F9A826"/>
<path d="M400.083 129.881H380.003V134.715H400.083V129.881Z" fill="#F9A826"/>
<path d="M276.996 129.881H269.931V134.715H276.996V129.881Z" fill="#F9A826"/>
<path d="M291.127 129.881H284.062V134.715H291.127V129.881Z" fill="#F9A826"/>
<path d="M346.163 129.881H298.193V134.715H346.163V129.881Z" fill="#F9A826"/>
<path d="M331.289 140.293H311.208V145.127H331.289V140.293Z" fill="#F9A826"/>
<path d="M304.143 140.293H284.062V145.127H304.143V140.293Z" fill="#F9A826"/>
<path d="M276.996 140.293H269.931V145.127H276.996V140.293Z" fill="#F9A826"/>
<path d="M400.084 140.293H393.018V145.127H400.084V140.293Z" fill="#F9A826"/>
<path d="M385.953 140.293H337.982V145.127H385.953V140.293Z" fill="#F9A826"/>
</g>
<defs>
<clipPath id="clip0_54982_45372">
<rect width="480" height="451.987" fill="white" transform="translate(0 0.0646973)"/>
</clipPath>
</defs>
</svg>
