<svg width="480" height="473" viewBox="0 0 480 473" fill="none" xmlns="http://www.w3.org/2000/svg">
<g clip-path="url(#clip0_54982_45225)">
<path d="M349.602 87.7166C349.544 106.044 348.303 124.348 345.889 142.516C345.805 143.154 345.712 143.792 345.628 144.43H173.998C173.49 143.799 172.991 143.161 172.506 142.516C170.892 140.379 169.378 138.18 167.987 135.905C161.299 124.944 158.194 112.084 161.184 103.182L161.237 103.044C161.883 101.095 162.907 99.2924 164.251 97.7401C171.138 89.8996 185.159 91.1218 197.911 97.3481C186.435 84.9263 177.264 69.2222 176.496 55.1631C175.742 41.4499 182.86 31.6109 190.593 23.24C190.847 22.9632 191.101 22.6942 191.354 22.4252C191.477 22.2868 191.608 22.1561 191.731 22.0178C197.765 15.6377 204.806 9.34229 215.053 10.0418C226.29 10.8105 238.797 20.1499 247.591 31.0651C256.384 41.9727 262.257 54.3868 268.207 66.5011C274.164 78.6078 280.605 91.0219 290.114 101.345C277.223 85.2261 266.8 66.8624 262.887 48.9676C258.975 31.0728 262.234 13.8468 273.595 5.34521C277.044 2.84319 281.043 1.20373 285.256 0.564041C285.748 0.479487 286.247 0.410307 286.755 0.348813C297.309 -0.911779 309.938 2.67022 320.715 11.3409C332.583 20.8879 340.854 35.093 345.005 48.5987C349.156 62.1043 349.663 75.1256 349.602 87.7166Z" fill="#F2F2F2"/>
<path d="M237.628 144.43H234.347C233.301 143.784 232.25 143.146 231.195 142.516C230.541 142.108 229.88 141.716 229.219 141.316C218.296 134.729 207.307 128.413 196.251 122.369C185.205 116.319 174.105 110.551 162.952 105.066C162.656 104.939 162.414 104.713 162.268 104.426C162.122 104.14 162.081 103.811 162.152 103.497C162.164 103.456 162.182 103.417 162.206 103.382C162.36 103.09 162.706 102.967 163.213 103.213C164.581 103.89 165.957 104.566 167.325 105.258C178.51 110.838 189.648 116.701 200.74 122.845C211.824 128.987 222.847 135.403 233.808 142.093C234.039 142.231 234.27 142.377 234.5 142.516C235.545 143.154 236.583 143.792 237.628 144.43Z" fill="white"/>
<path d="M279.944 144.43H277.915C277.454 143.792 277 143.154 276.539 142.516C265.701 127.496 254.865 112.476 244.032 97.4557C226.291 72.8657 208.555 48.2758 190.824 23.6858C190.719 23.5535 190.641 23.4021 190.593 23.24C190.44 22.6942 190.839 22.3714 191.354 22.4252C191.572 22.4549 191.78 22.5307 191.965 22.6473C192.151 22.764 192.309 22.9188 192.43 23.1016C202.377 36.8917 212.321 50.6766 222.263 64.4564C239.912 88.9234 257.558 113.388 275.202 137.85C276.324 139.402 277.446 140.963 278.568 142.516C279.03 143.154 279.491 143.792 279.944 144.43Z" fill="white"/>
<path d="M325.089 132.392C325.004 135.813 324.797 139.18 324.52 142.516C324.466 143.154 324.412 143.792 324.358 144.43H322.229C322.291 143.792 322.352 143.154 322.406 142.516C322.829 137.696 323.121 132.823 323.136 127.818C323.115 113.945 321.686 100.11 318.87 86.5251C315.876 71.898 311.614 57.5593 306.133 43.6714C300.38 29.0239 293.463 14.8606 285.448 1.31731C285.297 1.09669 285.229 0.82991 285.256 0.564012C285.34 -0.0432424 286.147 -0.227724 286.755 0.348784C286.875 0.461891 286.978 0.591264 287.062 0.733122C288.054 2.41652 289.027 4.10505 289.983 5.7987C297.705 19.419 304.329 33.6333 309.792 48.3065C314.995 62.2416 318.974 76.6035 321.683 91.2294C324.22 104.798 325.361 118.591 325.089 132.392Z" fill="white"/>
<path d="M473.289 142.516H6.70265C4.92546 142.517 3.22152 143.224 1.96488 144.481C0.708233 145.737 0.00156109 147.441 0 149.218V465.39C0.00155905 467.168 0.708232 468.872 1.96488 470.128C3.22152 471.385 4.92546 472.092 6.70265 472.093H473.289C474.259 472.093 475.216 471.883 476.096 471.477C476.976 471.071 477.757 470.479 478.386 469.741C478.439 469.683 478.488 469.622 478.532 469.557C478.932 469.068 479.256 468.521 479.493 467.935C479.83 467.129 480.003 466.264 480 465.39V149.218C479.998 147.44 479.29 145.735 478.032 144.478C476.774 143.221 475.068 142.515 473.289 142.516ZM478.086 465.391C478.087 466.326 477.811 467.24 477.294 468.019C476.835 468.705 476.211 469.265 475.48 469.649C474.803 469.999 474.052 470.181 473.289 470.179H6.70265C5.43304 470.178 4.21586 469.673 3.31811 468.775C2.42036 467.877 1.91533 466.66 1.91379 465.391V149.218C1.91532 147.949 2.42036 146.732 3.31811 145.834C4.21586 144.936 5.43303 144.431 6.70265 144.43H473.289C474.56 144.429 475.779 144.934 476.679 145.832C477.578 146.729 478.084 147.948 478.086 149.218V465.391Z" fill="#3F3D56"/>
<path d="M479.039 169.38H0.955193V171.296H479.039V169.38Z" fill="#3F3D56"/>
<path d="M17.2426 162.635C20.4174 162.635 22.9911 160.062 22.9911 156.887C22.9911 153.712 20.4174 151.138 17.2426 151.138C14.0678 151.138 11.4941 153.712 11.4941 156.887C11.4941 160.062 14.0678 162.635 17.2426 162.635Z" fill="#3F3D56"/>
<path d="M33.7696 162.635C36.9444 162.635 39.5181 160.062 39.5181 156.887C39.5181 153.712 36.9444 151.138 33.7696 151.138C30.5947 151.138 28.0211 153.712 28.0211 156.887C28.0211 160.062 30.5947 162.635 33.7696 162.635Z" fill="#3F3D56"/>
<path d="M50.2965 162.635C53.4713 162.635 56.045 160.062 56.045 156.887C56.045 153.712 53.4713 151.138 50.2965 151.138C47.1217 151.138 44.548 153.712 44.548 156.887C44.548 160.062 47.1217 162.635 50.2965 162.635Z" fill="#3F3D56"/>
<path d="M212.906 332.279C207.157 328.536 204.297 319.839 205.706 311.885C207.114 303.93 212.42 297.079 218.779 294.125C221.873 292.73 225.264 292.126 228.649 292.367C232.034 292.608 235.306 293.685 238.171 295.503C244.003 299.069 252.251 301.023 255.021 308.157C257.149 313.64 254.45 324.774 251.585 330.1C249.109 334.703 244.405 336.808 239.985 337.723C235.095 338.72 230.048 338.656 225.185 337.534C220.322 336.412 215.757 334.259 211.798 331.22L212.906 332.279Z" fill="#2F2E41"/>
<path d="M209.907 374.525L205.31 382.451L204.703 383.496L203.819 385.033H190.267L191.182 383.496L193.55 379.506L199.069 370.19L205.318 372.688L209.907 374.525Z" fill="#FFB8B8"/>
<path d="M189.253 385.033L186.778 383.496L186.47 383.303L202.005 354.993C202.673 353.768 203.578 352.687 204.666 351.814C205.755 350.94 207.006 350.291 208.347 349.904C210.04 349.4 211.833 349.334 213.558 349.712C214.565 349.925 215.534 350.288 216.433 350.788C216.803 350.991 217.16 351.217 217.502 351.465C218.815 352.386 219.895 353.602 220.653 355.016C221.556 356.671 222.002 358.537 221.945 360.421C221.889 362.306 221.331 364.141 220.33 365.739L214.343 375.309L209.223 383.496L208.262 385.033H189.253Z" fill="#2F2E41"/>
<path d="M229.166 342.326C239.593 342.326 248.045 333.874 248.045 323.447C248.045 313.02 239.593 304.568 229.166 304.568C218.739 304.568 210.286 313.02 210.286 323.447C210.286 333.874 218.739 342.326 229.166 342.326Z" fill="#FFB8B8"/>
<path d="M248.118 385.033H205.68L205.872 384.487C205.764 384.157 205.664 383.826 205.572 383.496C205.472 383.15 205.387 382.796 205.311 382.45C204.621 379.232 204.624 375.905 205.318 372.688C207.663 361.173 217.018 351.819 217.018 351.819C217.179 351.696 217.34 351.58 217.502 351.465C218.893 350.446 220.403 349.599 221.999 348.944C228.947 346.061 236.235 347.222 241.131 348.713C242.836 349.229 244.503 349.863 246.12 350.612C246.688 350.881 246.996 351.05 246.996 351.05L247.48 365.816L248.064 383.496L248.118 385.033Z" fill="#F9A826"/>
<path d="M267.75 383.496L264.506 367L261.232 350.366C261.095 349.679 260.754 349.049 260.254 348.559C259.753 348.07 259.116 347.743 258.426 347.622L251.569 346.438L245.19 345.339C244.574 345.228 243.94 345.287 243.356 345.511C242.772 345.734 242.261 346.113 241.877 346.607C241.397 347.205 241.134 347.947 241.131 348.713C241.131 349.186 241.228 349.655 241.415 350.089C244.744 357.853 244.805 370.144 243.96 383.496C243.921 384.003 243.891 384.518 243.852 385.033H268.058L267.75 383.496Z" fill="#2F2E41"/>
<path d="M221.999 348.944C221.857 348.384 221.579 347.869 221.19 347.444C220.8 347.018 220.31 346.697 219.765 346.508C219.22 346.319 218.636 346.268 218.067 346.36C217.497 346.453 216.96 346.686 216.503 347.037L213.559 349.712L201.506 360.689C201.13 361.026 200.836 361.444 200.645 361.911C199.284 365.163 196.632 371.581 193.55 379.506C193.05 380.798 192.535 382.127 192.005 383.496C191.82 384.003 191.621 384.518 191.42 385.033H211.283C211.445 384.518 211.606 384.003 211.768 383.496C212.651 380.705 213.512 377.969 214.343 375.309C216.771 367.584 218.962 360.566 220.654 355.016C221.122 353.479 221.55 352.059 221.937 350.758C222.118 350.169 222.139 349.543 221.999 348.944Z" fill="#2F2E41"/>
<path d="M272.208 385.033H273.492L273.315 384.603L272.846 383.496L265.613 366.331L264.506 367L255.62 372.373L260.179 383.496L260.809 385.033H268.058H272.208Z" fill="#FFB8B8"/>
<path d="M264.875 352.718C263.897 350.156 261.965 348.072 259.485 346.902C257.006 345.731 254.169 345.565 251.569 346.438C251.237 346.548 250.911 346.676 250.593 346.822C248.772 347.634 247.22 348.949 246.12 350.612C245.67 351.276 245.301 351.99 245.02 352.741C244.522 354.044 244.286 355.433 244.327 356.827C244.368 358.222 244.684 359.594 245.259 360.866L247.48 365.816L255.428 383.496L256.12 385.033H272.208L273.315 384.603L276.19 383.496L276.59 383.342L264.875 352.718Z" fill="#2F2E41"/>
<path d="M243.994 301.764C244.652 301.961 245.356 301.936 245.999 301.692C246.641 301.448 247.185 301 247.547 300.415C247.889 299.82 248.09 299.154 248.135 298.469C248.18 297.783 248.068 297.097 247.807 296.462C247.271 295.194 246.426 294.08 245.35 293.222C244.128 292.116 242.641 291.346 241.032 290.987C240.229 290.814 239.398 290.816 238.595 290.992C237.792 291.169 237.037 291.515 236.38 292.009C235.735 292.52 235.257 293.211 235.006 293.995C234.756 294.778 234.746 295.618 234.976 296.408C235.465 297.826 236.789 298.776 238.111 299.483C240.735 300.884 243.628 301.706 246.596 301.895L243.994 301.764Z" fill="#2F2E41"/>
<path d="M247.666 322.883C244.631 323.302 245.021 321.757 243.805 318.944C242.59 316.132 240.962 312.793 237.912 312.508C235.412 312.275 233.352 314.273 231.326 315.757C227.716 318.403 222.851 319.697 218.667 318.111C214.482 316.524 211.574 311.536 213.162 307.352C213.656 306.197 214.382 305.155 215.296 304.292C216.209 303.428 217.29 302.762 218.471 302.333C220.841 301.491 223.358 301.141 225.868 301.306C231.449 301.484 236.924 302.886 241.905 305.411C245.343 307.158 248.689 309.657 249.993 313.286C251.298 316.914 252.156 322.014 248.427 322.995L247.666 322.883Z" fill="#2F2E41"/>
<path d="M242.442 291.783C240.942 289.171 242.18 285.588 244.635 283.843C247.09 282.098 250.383 281.927 253.312 282.627C256.209 283.357 258.863 284.835 261.008 286.915C263.154 288.994 264.714 291.601 265.534 294.473C266.777 299.04 266.038 303.945 267.091 308.56C267.652 311.02 268.711 313.339 270.202 315.374C271.693 317.409 273.585 319.117 275.762 320.394C277.938 321.67 280.352 322.488 282.857 322.796C285.361 323.104 287.901 322.896 290.322 322.185C293.475 321.259 296.68 319.008 296.99 315.736C297.316 319.493 296.46 323.258 294.54 326.504C292.62 329.75 289.733 332.314 286.284 333.838C282.221 335.532 277.69 335.643 273.289 335.53C270.422 335.456 267.489 335.284 264.843 334.174C263.013 333.34 261.367 332.148 260.003 330.669C258.64 329.19 257.584 327.454 256.9 325.562C255.553 321.76 255.19 317.678 255.843 313.697C256.276 310.601 257.137 307.566 257.378 304.449C257.619 301.331 257.162 298.003 255.24 295.537C253.318 293.071 249.647 291.811 246.915 293.331C245.817 293.941 244.931 294.939 243.738 295.333C242.545 295.728 240.854 295.035 240.962 293.783L242.442 291.783Z" fill="#2F2E41"/>
<path d="M371.275 385.033L371.422 383.496L375.757 338.39C377.178 337.277 378.705 336.306 380.315 335.492C389.24 330.995 397.849 333.147 402.507 335.008C403.741 335.491 404.934 336.074 406.074 336.752L408.61 383.496L408.695 385.033H371.275Z" fill="#F9A826"/>
<path d="M391.578 326.385C402.005 326.385 410.458 317.932 410.458 307.506C410.458 297.079 402.005 288.626 391.578 288.626C381.152 288.626 372.699 297.079 372.699 307.506C372.699 317.932 381.152 326.385 391.578 326.385Z" fill="#FFB8B8"/>
<path d="M406.897 319.017C408.3 317.538 409.232 315.675 409.573 313.665C409.915 311.655 409.651 309.589 408.815 307.73C407.979 305.87 406.608 304.301 404.878 303.223C403.148 302.144 401.136 301.605 399.098 301.673C396.488 301.76 394.028 302.828 391.536 303.613C387.76 304.897 383.732 305.26 379.787 304.671C375.819 304.054 372.238 301.94 369.782 298.763C367.446 295.552 366.717 291.099 368.368 287.488C370.273 283.32 374.723 281.022 378.909 279.156C380.597 278.311 382.4 277.718 384.261 277.398C385.193 277.243 386.147 277.282 387.063 277.513C387.979 277.744 388.838 278.162 389.585 278.74C390.761 279.752 391.451 281.272 392.731 282.149C394.172 283.136 396.044 283.11 397.782 283.284C401.696 283.676 405.399 285.251 408.397 287.798C411.395 290.346 413.547 293.746 414.565 297.546C415.584 301.346 415.422 305.366 414.1 309.072C412.778 312.777 410.359 315.992 407.165 318.29L406.897 319.017Z" fill="#2F2E41"/>
<path d="M383.128 343.302L380.315 335.492L380.14 335.005C380.056 334.774 379.922 334.565 379.746 334.394C379.57 334.223 379.357 334.095 379.124 334.018C378.891 333.941 378.644 333.918 378.401 333.951C378.158 333.984 377.925 334.072 377.721 334.208L374.527 336.337C374.527 336.337 354.042 336.337 352.397 348.629C352.374 348.821 352.343 349.036 352.32 349.267C352.319 349.277 352.316 349.288 352.312 349.297C352.105 350.104 348.238 365.048 344.918 383.496C344.826 384.003 344.733 384.518 344.641 385.033H389.155C390.603 366.501 389.793 349.271 383.128 343.302Z" fill="#2F2E41"/>
<path d="M436.229 383.496C433.8 364.571 430.325 349.267 430.325 349.267C430.295 349.036 430.264 348.821 430.241 348.629C428.603 336.337 408.118 336.337 408.118 336.337L404.926 334.209C404.722 334.073 404.489 333.985 404.246 333.952C404.003 333.919 403.755 333.942 403.522 334.019C403.289 334.096 403.076 334.225 402.9 334.396C402.724 334.567 402.59 334.777 402.507 335.008L399.517 343.302C392.852 349.27 392.042 366.501 393.49 385.032L436.421 385.033C436.359 384.518 436.29 384.003 436.229 383.496Z" fill="#2F2E41"/>
<path d="M75.6577 340.404L71.0918 383.496L70.9304 385.033H58.5779C58.7239 384.533 58.8699 384.018 59.0238 383.496C62.529 371.474 67.3024 353.925 66.7871 349.274C65.9802 342.018 71.63 339.597 71.63 339.597L71.9836 339.666L75.6577 340.404Z" fill="#F9A826"/>
<path d="M95.5793 327.103C106.006 327.103 114.459 318.65 114.459 308.223C114.459 297.796 106.006 289.344 95.5793 289.344C85.1524 289.344 76.6998 297.796 76.6998 308.223C76.6998 318.65 85.1524 327.103 95.5793 327.103Z" fill="#A0616A"/>
<path d="M120.018 375.886C119.066 377.641 118.286 379.484 117.689 381.39C117.466 382.066 117.251 382.773 117.051 383.496C116.905 383.995 116.774 384.51 116.644 385.033H66.8486C66.9181 384.526 66.9792 384.011 67.0487 383.496C69.5931 363.395 71.6529 342.994 71.9835 339.666C72.0143 339.351 72.0297 339.189 72.0297 339.189C101.87 323.462 123.646 344.032 123.646 344.032C123.646 344.032 123.677 344.178 123.723 344.462C124.2 347.337 126.629 364.125 120.018 375.886Z" fill="#F9A826"/>
<path d="M117.689 381.389L114.369 374.272L115.175 346.046L123.723 344.462L124.023 344.408C128.441 346.977 131.86 350.965 133.724 355.723C135.384 359.874 138.543 372.358 141.211 383.496C141.334 384.011 141.456 384.526 141.58 385.033H119.388L118.673 383.496L117.689 381.389Z" fill="#F9A826"/>
<path d="M148.06 258.201H38.8922C36.5506 258.204 34.3058 259.136 32.65 260.791C30.9942 262.447 30.0628 264.692 30.0599 267.033V376.201C30.0628 378.543 30.9942 380.787 32.65 382.443C34.3058 384.099 36.5506 385.03 38.8922 385.033H148.06C150.402 385.031 152.647 384.1 154.303 382.444C155.959 380.788 156.89 378.543 156.892 376.201V267.033C156.89 264.692 155.959 262.446 154.303 260.79C152.647 259.134 150.402 258.203 148.06 258.201ZM155.354 376.201C155.353 378.135 154.584 379.99 153.216 381.357C151.848 382.725 149.994 383.494 148.06 383.496H38.8922C36.9584 383.493 35.1046 382.723 33.7372 381.356C32.3698 379.989 31.6002 378.135 31.5973 376.201V267.033C31.6002 265.1 32.3698 263.246 33.7372 261.879C35.1046 260.511 36.9584 259.742 38.8922 259.739H148.06C149.994 259.74 151.848 260.509 153.216 261.877C154.584 263.245 155.353 265.099 155.354 267.033V376.201ZM71.0918 383.496L70.9303 385.033H116.644C116.774 384.51 116.905 383.995 117.051 383.496H71.0918Z" fill="#3F3D56"/>
<path d="M294.577 258.201H185.41C183.068 258.204 180.823 259.136 179.167 260.791C177.512 262.447 176.58 264.692 176.577 267.033V376.201C176.58 378.543 177.512 380.787 179.167 382.443C180.823 384.099 183.068 385.03 185.41 385.033H294.577C296.919 385.031 299.165 384.1 300.821 382.444C302.477 380.788 303.407 378.543 303.409 376.201V267.033C303.407 264.692 302.477 262.446 300.821 260.79C299.165 259.134 296.919 258.203 294.577 258.201ZM301.872 376.201C301.87 378.135 301.101 379.99 299.733 381.357C298.366 382.725 296.511 383.494 294.577 383.496H185.41C183.476 383.493 181.622 382.723 180.255 381.356C178.887 379.989 178.118 378.135 178.115 376.201V267.033C178.118 265.1 178.887 263.246 180.255 261.879C181.622 260.511 183.476 259.742 185.41 259.739H294.577C296.511 259.74 298.366 260.509 299.733 261.877C301.101 263.245 301.87 265.099 301.872 267.033V376.201ZM205.572 383.496C205.664 383.826 205.764 384.157 205.872 384.487L205.68 385.033H243.852C243.891 384.518 243.921 384.003 243.96 383.496H205.572Z" fill="#3F3D56"/>
<path d="M441.102 258.201H331.935C329.593 258.203 327.347 259.134 325.691 260.79C324.035 262.446 323.104 264.691 323.103 267.033V376.201C323.104 378.543 324.035 380.789 325.691 382.445C327.347 384.101 329.593 385.032 331.935 385.033H441.102C443.444 385.03 445.689 384.099 447.344 382.443C449 380.787 449.931 378.542 449.934 376.201V267.033C449.931 264.692 449 262.447 447.344 260.791C445.689 259.136 443.444 258.204 441.102 258.201ZM448.397 376.201C448.394 378.135 447.625 379.988 446.257 381.356C444.89 382.723 443.036 383.493 441.102 383.496H331.935C330.001 383.494 328.146 382.725 326.778 381.357C325.411 379.99 324.642 378.135 324.64 376.201V267.033C324.642 265.099 325.411 263.245 326.778 261.877C328.146 260.509 330.001 259.74 331.935 259.739H441.102C443.036 259.742 444.89 260.511 446.257 261.879C447.625 263.246 448.394 265.1 448.397 267.033V376.201ZM389.27 383.496C389.232 384.003 389.193 384.518 389.155 385.033H422.277C422.339 384.526 422.408 384.011 422.469 383.496H389.27Z" fill="#3F3D56"/>
<path d="M366.829 429.616H113.165C111.534 429.616 109.97 428.968 108.817 427.815C107.664 426.662 107.016 425.098 107.016 423.467C107.016 421.836 107.664 420.272 108.817 419.119C109.97 417.965 111.534 417.317 113.165 417.317H366.829C368.46 417.317 370.024 417.965 371.177 419.119C372.33 420.272 372.978 421.836 372.978 423.467C372.978 425.098 372.33 426.662 371.177 427.815C370.024 428.968 368.46 429.616 366.829 429.616Z" fill="#CCCCCC"/>
<path d="M295.726 225.917H184.268C182.637 225.917 181.073 225.269 179.92 224.116C178.766 222.963 178.119 221.398 178.119 219.768C178.119 218.137 178.766 216.572 179.92 215.419C181.073 214.266 182.637 213.618 184.268 213.618H295.726C297.357 213.618 298.921 214.266 300.074 215.419C301.228 216.572 301.876 218.137 301.876 219.768C301.876 221.398 301.228 222.963 300.074 224.116C298.921 225.269 297.357 225.917 295.726 225.917Z" fill="#F9A826"/>
<path d="M104.61 324.672C105.249 325.302 106.094 325.681 106.99 325.739C107.886 325.796 108.773 325.528 109.488 324.984C113.937 321.686 117.843 317.581 120.155 312.573C122.804 306.835 123.1 299.793 119.906 294.34C117.206 289.729 112.439 286.754 107.687 284.311C105.842 283.27 103.855 282.504 101.788 282.038C99.6997 281.577 97.514 281.93 95.6762 283.024C94.7772 283.588 94.0688 284.409 93.6437 285.382C93.2185 286.354 93.0963 287.432 93.2929 288.475C91.0106 285.871 88.0873 283.908 84.8129 282.782C82.751 281.976 80.4932 281.812 78.3366 282.313C75.3214 283.168 73.1201 285.847 71.9162 288.741C70.9425 290.942 70.6063 293.372 70.9457 295.755C71.1244 296.94 71.55 298.075 72.1949 299.086C72.8398 300.097 73.6897 300.961 74.6897 301.623C77.1826 303.166 80.363 303.054 83.2259 302.424C86.0889 301.794 88.8602 300.698 91.7785 300.421C94.6969 300.144 97.9467 300.871 99.7228 303.204C100.974 304.846 101.295 306.992 101.575 309.037L103.036 319.675C103.155 321.214 103.548 322.719 104.196 324.12C104.309 324.322 104.448 324.507 104.61 324.672Z" fill="#2F2E41"/>
</g>
<defs>
<clipPath id="clip0_54982_45225">
<rect width="480" height="472.093" fill="white"/>
</clipPath>
</defs>
</svg>
